<?xml version="1.0" standalone="no"?><!DOCTYPE svg PUBLIC "-//W3C//DTD SVG 1.1//EN" "http://www.w3.org/Graphics/SVG/1.1/DTD/svg11.dtd"><svg height="3849" node-id="1" sillyvg="true" template-height="3849" template-width="2903" version="1.1" viewBox="0 0 2903 3849" width="2903" xmlns="http://www.w3.org/2000/svg" xmlns:xlink="http://www.w3.org/1999/xlink"><defs node-id="95"></defs><g node-id="316"><path d="M 1274.75 167.19 L 1285.47 167.74 L 1295.98 168.76 L 1306.29 170.25 L 1316.41 172.20 L 1326.35 174.61 L 1336.22 177.50 L 1345.85 180.80 L 1355.26 184.50 L 1364.44 188.62 L 1373.41 193.14 L 1382.19 198.08 L 1390.69 203.36 L 1398.92 209.00 L 1406.89 215.00 L 1414.61 221.36 L 1422.04 228.05 L 1429.16 235.04 L 1435.95 242.33 L 1442.45 249.93 L 1448.63 257.85 L 1454.46 266.02 L 1459.93 274.42 L 1465.03 283.09 L 1469.78 292.01 L 1474.17 301.20 L 1478.13 310.55 L 1481.69 320.09 L 1484.83 329.84 L 1487.56 339.80 L 1489.88 350.00 L 1491.73 360.23 L 1493.12 370.61 L 1494.04 381.16 L 1494.49 391.90 L 1494.46 402.83 L 1493.92 413.75 L 1492.90 424.45 L 1491.43 434.94 L 1489.50 445.24 L 1487.12 455.35 L 1484.27 465.41 L 1481.02 475.23 L 1477.37 484.80 L 1473.32 494.14 L 1468.87 503.26 L 1464.01 512.21 L 1458.80 520.88 L 1453.26 529.26 L 1447.36 537.37 L 1441.11 545.22 L 1434.52 552.80 L 1427.64 560.05 L 1420.46 566.98 L 1412.99 573.59 L 1405.22 579.88 L 1397.18 585.83 L 1388.91 591.40 L 1380.39 596.60 L 1371.62 601.43 L 1362.60 605.90 L 1353.40 609.95 L 1344.02 613.58 L 1334.44 616.79 L 1324.65 619.57 L 1314.63 621.94 L 1304.58 623.83 L 1294.37 625.25 L 1284.00 626.20 L 1273.46 626.67 L 1262.72 626.65 L 1251.99 626.11 L 1241.48 625.09 L 1231.17 623.60 L 1221.06 621.65 L 1211.12 619.23 L 1201.24 616.34 L 1191.61 613.05 L 1182.21 609.34 L 1173.03 605.23 L 1164.06 600.70 L 1155.28 595.77 L 1146.77 590.48 L 1138.54 584.85 L 1130.57 578.85 L 1122.85 572.49 L 1115.42 565.79 L 1108.31 558.80 L 1101.51 551.51 L 1095.02 543.91 L 1088.83 536.00 L 1083.00 527.83 L 1077.53 519.42 L 1072.43 510.76 L 1067.69 501.84 L 1063.30 492.64 L 1059.33 483.30 L 1055.78 473.76 L 1052.63 464.01 L 1049.90 454.04 L 1047.58 443.84 L 1045.73 433.62 L 1044.35 423.24 L 1043.43 412.68 L 1042.97 401.94 L 1043.00 391.01 L 1043.55 380.09 L 1044.56 369.39 L 1046.03 358.90 L 1047.96 348.61 L 1050.34 338.49 L 1053.19 328.43 L 1056.44 318.62 L 1060.09 309.05 L 1064.14 299.71 L 1068.59 290.58 L 1073.45 281.63 L 1078.66 272.97 L 1084.21 264.59 L 1090.10 256.47 L 1096.35 248.63 L 1102.95 241.04 L 1109.83 233.79 L 1117.00 226.87 L 1124.47 220.26 L 1132.24 213.96 L 1140.28 208.02 L 1148.55 202.45 L 1157.07 197.25 L 1165.84 192.41 L 1174.86 187.94 L 1184.06 183.89 L 1193.44 180.27 L 1203.02 177.06 L 1212.82 174.27 L 1222.83 171.90 L 1232.88 170.01 L 1243.09 168.59 L 1253.46 167.65 L 1264.01 167.18 L 1274.75 167.19 Z" fill="#ffc791" fill-rule="nonzero" group-id="1" node-id="99" stroke="none" target-height="459.49292" target-width="451.5144" target-x="1042.9739" target-y="167.17639"></path></g><path d="M 1673.50 1712.50 L 1648.40 1713.70 C 1643.40 1713.90 1639.40 1718.10 1639.40 1723.20 L 1639.10 2052.70 C 1565.80 2039.00 1502.00 2055.10 1447.50 2101.10 C 1406.00 2136.10 1408.10 2159.90 1409.90 2214.20 C 1413.20 2316.80 1411.70 2419.60 1410.80 2522.00 L 1335.40 2547.60 C 1333.00 2536.10 1332.30 2522.40 1333.20 2506.60 C 1336.10 2456.90 1337.10 2397.20 1336.10 2327.70 C 1334.60 2223.00 1334.10 2118.20 1334.40 2013.40 C 1334.70 1919.40 1400.00 1804.20 1474.70 1749.80 C 1476.60 1748.40 1477.60 1746.50 1477.60 1744.10 L 1477.50 1362.20 L 1480.10 1279.30 C 1480.20 1276.10 1481.80 1274.50 1485.00 1274.50 L 1488.50 1274.50 C 1495.60 1274.50 1499.20 1278.10 1499.20 1285.20 L 1501.10 1726.60 C 1501.10 1730.10 1503.90 1732.80 1507.30 1732.80 C 1507.80 1732.80 1508.40 1732.70 1508.90 1732.60 L 1574.10 1715.40 C 1576.40 1714.80 1577.70 1713.30 1577.80 1710.90 C 1580.60 1679.20 1590.00 1646.30 1606.00 1612.20 C 1638.30 1543.20 1671.10 1474.40 1704.40 1405.90 C 1714.80 1384.60 1715.10 1369.00 1714.90 1346.10 C 1714.00 1272.70 1713.20 1219.00 1712.50 1184.90 C 1712.50 1183.60 1711.40 1182.50 1710.10 1182.50 C 1709.00 1182.50 1708.00 1183.30 1707.80 1184.30 L 1701.80 1205.80 C 1701.10 1208.20 1699.70 1209.90 1697.60 1211.20 L 1693.70 1213.60 C 1689.10 1216.30 1686.50 1215.00 1685.80 1209.70 L 1628.90 735.00 C 1628.70 733.30 1627.10 732.10 1625.40 732.40 C 1624.40 732.50 1623.50 733.20 1623.10 734.10 L 1463.60 1067.50 C 1462.90 1068.90 1461.20 1069.40 1459.90 1068.80 C 1459.00 1068.40 1458.40 1067.40 1458.40 1066.40 L 1454.50 966.70 C 1470.90 962.90 1478.30 944.30 1476.80 910.80 C 1472.70 820.70 1473.00 758.80 1477.60 725.10 C 1481.20 699.30 1495.30 676.00 1520.00 655.30 C 1620.20 571.30 1751.70 645.40 1753.10 769.30 C 1755.20 960.00 1756.90 1150.30 1751.30 1341.00 C 1750.10 1382.30 1742.30 1418.30 1727.90 1449.10 C 1712.80 1481.40 1705.10 1498.00 1704.80 1498.90 C 1680.30 1571.70 1700.00 1637.20 1673.50 1712.50 Z" fill="#fff0db" fill-rule="nonzero" node-id="102" stroke="none" target-height="1976.3" target-width="424.59998" target-x="1332.3" target-y="571.3"></path><path d="M 2041.64 714.98 L 2043.05 716.27 L 2044.00 717.92 L 2044.47 719.82 L 2044.45 721.93 L 2043.93 724.03 L 2042.87 726.14 L 2041.38 727.97 L 2039.67 729.30 L 2037.76 730.18 L 2035.84 730.54 L 2033.94 730.35 L 2032.19 729.59 L 2030.77 728.30 L 2029.82 726.65 L 2029.36 724.75 L 2029.38 722.64 L 2029.90 720.54 L 2030.95 718.43 L 2032.44 716.60 L 2034.15 715.27 L 2036.06 714.39 L 2037.98 714.03 L 2039.88 714.22 L 2041.64 714.98 Z" fill="#ffcd82" fill-rule="nonzero" group-id="2" node-id="106" stroke="none" target-height="16.507446" target-width="15.108276" target-x="2029.3584" target-y="714.03125"></path><path d="M 1477.50 1362.30 L 1453.20 1394.00 C 1453.00 1394.30 1452.70 1394.40 1452.40 1394.30 C 1451.40 1394.00 1450.50 1393.70 1449.50 1393.30 C 1448.60 1392.90 1447.90 1393.20 1447.40 1394.00 L 1437.00 1412.20 C 1436.80 1412.60 1436.40 1412.80 1435.90 1412.60 C 1435.20 1412.40 1434.60 1412.20 1434.00 1411.90 C 1432.50 1411.20 1431.20 1411.40 1430.00 1412.40 L 1385.90 1451.10 C 1385.10 1451.80 1383.90 1451.60 1383.20 1450.80 C 1382.80 1450.40 1382.70 1449.80 1382.80 1449.20 L 1386.40 1433.70 C 1386.90 1431.60 1386.10 1431.00 1384.10 1431.80 C 1382.80 1432.40 1382.10 1433.40 1382.10 1434.70 C 1382.10 1436.90 1381.20 1438.50 1379.20 1439.60 L 1374.80 1441.80 C 1374.80 1368.90 1374.70 1296.00 1374.70 1223.00 C 1374.60 1199.20 1399.70 1141.40 1408.00 1114.60 C 1423.40 1064.90 1438.90 1015.50 1454.30 966.50 L 1458.20 1066.20 C 1458.30 1067.70 1459.60 1068.90 1461.10 1068.90 C 1462.10 1068.80 1463.00 1068.30 1463.50 1067.40 L 1623.10 734.00 C 1623.90 732.50 1625.70 731.90 1627.30 732.60 C 1628.20 733.10 1628.80 733.90 1629.00 734.90 L 1685.90 1209.80 C 1686.50 1215.10 1689.20 1216.40 1693.80 1213.70 L 1697.70 1211.30 C 1699.80 1210.10 1701.20 1208.30 1701.90 1205.90 L 1707.90 1184.40 C 1708.20 1183.10 1709.50 1182.30 1710.80 1182.60 C 1711.90 1182.90 1712.60 1183.80 1712.60 1184.90 C 1713.30 1219.00 1714.10 1272.70 1715.00 1346.10 C 1715.20 1369.00 1714.90 1384.60 1704.50 1405.90 C 1671.10 1474.40 1638.30 1543.20 1606.10 1612.20 C 1590.20 1646.30 1580.80 1679.20 1577.90 1710.90 C 1577.70 1713.30 1576.50 1714.80 1574.20 1715.40 L 1509.00 1732.60 C 1505.70 1733.50 1502.30 1731.50 1501.40 1728.20 C 1501.30 1727.70 1501.20 1727.10 1501.20 1726.60 L 1499.30 1285.20 C 1499.30 1278.00 1495.70 1274.50 1488.60 1274.50 L 1485.10 1274.50 C 1481.90 1274.50 1480.30 1276.10 1480.20 1279.30 L 1477.50 1362.30 Z" fill="#ffb490" fill-rule="nonzero" node-id="109" stroke="none" target-height="1001.6" target-width="340.59998" target-x="1374.6" target-y="731.9"></path><path d="M 1825.90 748.00 C 1827.70 748.80 1828.50 751.00 1827.70 752.80 L 1826.70 754.90 C 1820.70 767.90 1811.80 776.70 1806.80 774.40 L 1805.80 774.00 C 1800.90 771.70 1801.70 759.30 1807.80 746.20 C 1807.80 746.20 1807.80 746.20 1807.80 746.20 L 1808.80 744.10 C 1809.60 742.30 1811.80 741.50 1813.60 742.30 L 1825.90 748.00 Z" fill="#ffcd82" fill-rule="nonzero" node-id="111" stroke="none" target-height="35.200012" target-width="27.599976" target-x="1800.9" target-y="741.5"></path><path d="M 851.74 756.72 L 852.85 757.20 L 853.74 757.99 L 854.44 759.13 L 854.86 760.42 L 854.98 761.86 L 854.78 763.49 L 854.24 765.04 L 853.49 766.27 L 852.55 767.25 L 851.42 767.97 L 850.27 768.28 L 849.06 768.22 L 847.95 767.73 L 847.06 766.95 L 846.35 765.81 L 845.94 764.52 L 845.82 763.08 L 846.02 761.45 L 846.56 759.90 L 847.30 758.67 L 848.25 757.68 L 849.38 756.97 L 850.52 756.66 L 851.74 756.72 Z" fill="#ffdfc3" fill-rule="nonzero" group-id="3" node-id="115" stroke="none" target-height="11.612183" target-width="9.15686" target-x="845.8204" target-y="756.66345"></path><path d="M 742.10 764.80 C 743.00 765.30 743.30 766.50 742.80 767.40 L 741.20 770.30 C 725.00 799.10 709.10 820.80 705.80 819.00 L 704.50 818.30 C 701.20 816.20 711.70 791.40 727.80 762.80 L 729.40 759.90 C 729.90 759.00 731.10 758.70 732.00 759.20 L 742.10 764.80 Z" fill="#ff9967" fill-rule="nonzero" node-id="118" stroke="none" target-height="62.099976" target-width="42.099976" target-x="701.2" target-y="758.7"></path><path d="M 968.20 833.30 C 967.60 833.50 967.00 833.20 966.80 832.60 L 966.40 831.70 C 964.30 826.20 969.70 819.00 978.50 815.50 L 980.30 814.80 C 989.10 811.40 998.00 813.10 1000.10 818.60 C 1000.10 818.60 1000.10 818.60 1000.10 818.60 L 1000.40 819.50 C 1000.60 820.00 1000.30 820.70 999.80 820.90 L 968.20 833.30 Z" fill="#ffc791" fill-rule="nonzero" node-id="120" stroke="none" target-height="22.099976" target-width="36.299988" target-x="964.3" target-y="811.4"></path><path d="M 2118.20 1050.40 L 2116.40 1332.40 C 2116.40 1335.10 2115.00 1336.60 2112.40 1336.90 C 2103.90 1337.80 2096.70 1335.50 2090.80 1329.80 C 2088.70 1327.90 2087.70 1325.50 2087.70 1322.70 L 2089.20 1050.70 L 2091.90 817.50 C 2091.90 815.20 2093.00 813.70 2095.20 813.00 C 2102.30 810.80 2107.60 811.80 2111.20 816.00 C 2113.50 818.70 2114.70 823.30 2114.70 829.70 C 2115.10 903.10 2116.30 976.70 2118.20 1050.40 Z" fill="#feeadc" fill-rule="nonzero" node-id="122" stroke="none" target-height="527.00006" target-width="30.5" target-x="2087.7" target-y="810.8"></path><path d="M 1822.50 859.90 C 1819.20 863.70 1814.70 864.50 1809.10 862.30 C 1806.00 861.10 1805.30 859.00 1807.10 856.10 C 1809.40 852.50 1812.90 850.50 1817.50 850.10 C 1820.70 849.80 1823.60 852.20 1823.90 855.40 C 1824.10 857.00 1823.50 858.60 1822.50 859.90 Z" fill="#ffdfc3" fill-rule="nonzero" node-id="124" stroke="none" target-height="14.700012" target-width="18.799927" target-x="1805.3" target-y="849.8"></path><path d="M 998.17 909.47 L 1000.38 910.12 L 1002.22 911.13 L 1003.74 912.47 L 1004.79 913.98 L 1005.35 915.67 L 1005.33 917.42 L 1004.71 919.06 L 1003.58 920.43 L 1002.06 921.47 L 1000.15 922.16 L 998.07 922.43 L 995.77 922.25 L 993.57 921.59 L 991.72 920.58 L 990.20 919.25 L 989.15 917.73 L 988.60 916.04 L 988.62 914.29 L 989.23 912.65 L 990.36 911.28 L 991.88 910.25 L 993.79 909.55 L 995.87 909.28 L 998.17 909.47 Z" fill="#ffcd82" fill-rule="nonzero" group-id="4" node-id="128" stroke="none" target-height="13.151306" target-width="16.749634" target-x="988.596" target-y="909.2808"></path><path d="M 871.30 1009.20 L 871.10 932.70 C 871.10 929.10 872.60 928.30 875.70 930.30 L 880.60 933.70 C 881.60 934.40 882.20 935.50 882.20 936.80 L 882.20 1010.10 C 882.20 1013.50 884.90 1016.20 888.20 1016.20 C 888.20 1016.20 888.20 1016.20 888.20 1016.20 C 912.00 1016.30 936.30 1016.90 961.10 1018.00 C 969.20 1018.30 972.10 1021.60 969.80 1027.80 C 968.40 1031.60 964.70 1034.20 960.70 1034.20 L 887.00 1034.30 C 883.60 1034.30 881.90 1036.00 881.90 1039.40 C 882.60 1246.00 882.50 1452.50 881.60 1658.80 C 881.10 1758.60 882.90 1888.00 879.80 2002.80 C 879.80 2004.40 878.80 2005.90 877.30 2006.80 L 875.50 2007.80 C 875.00 2008.00 874.80 2007.90 874.80 2007.40 L 868.30 1040.90 C 868.30 1037.30 866.50 1035.50 862.90 1035.50 L 754.60 1036.00 C 751.50 1036.00 749.70 1034.50 749.40 1031.40 L 748.40 1021.90 C 748.10 1019.00 749.40 1017.50 752.40 1017.50 L 863.30 1017.50 C 867.70 1017.30 871.30 1013.70 871.30 1009.20 L 871.30 1009.20 Z" fill="#ffcbb6" fill-rule="nonzero" node-id="131" stroke="none" target-height="1079.7" target-width="224" target-x="748.1" target-y="928.3"></path><path d="M 1344.49 943.37 L 1346.06 943.55 L 1347.52 944.02 L 1348.88 944.80 L 1350.62 946.41 L 1351.99 948.54 L 1352.86 950.99 L 1353.17 953.79 L 1352.85 956.59 L 1351.97 959.03 L 1350.59 961.16 L 1348.85 962.76 L 1347.48 963.53 L 1346.03 964.00 L 1344.45 964.17 L 1342.88 963.99 L 1341.42 963.52 L 1340.06 962.74 L 1338.32 961.13 L 1336.95 959.01 L 1336.08 956.56 L 1335.77 953.76 L 1336.09 950.96 L 1336.97 948.51 L 1338.35 946.39 L 1340.10 944.78 L 1341.46 944.01 L 1342.91 943.54 L 1344.49 943.37 Z" fill="#ffcd82" fill-rule="nonzero" group-id="5" node-id="135" stroke="none" target-height="20.800049" target-width="17.399902" target-x="1335.7705" target-y="943.3717"></path><path d="M 459.56 955.55 L 462.84 958.34 L 465.41 961.03 L 467.47 963.84 L 468.63 966.16 L 469.01 967.72 L 468.95 968.90 L 468.53 969.83 L 467.74 970.49 L 466.62 970.86 L 465.01 970.89 L 462.47 970.38 L 459.22 969.13 L 455.95 967.36 L 452.40 964.92 L 449.11 962.14 L 446.55 959.44 L 444.49 956.64 L 443.33 954.32 L 442.95 952.76 L 443.01 951.57 L 443.43 950.64 L 444.21 949.99 L 445.34 949.62 L 446.95 949.59 L 449.49 950.09 L 452.74 951.35 L 456.01 953.11 L 459.56 955.55 Z" fill="#ffc791" fill-rule="nonzero" group-id="6" node-id="140" stroke="none" target-height="21.304443" target-width="26.067993" target-x="442.9453" target-y="949.5856"></path><path d="M 982.07 971.31 L 984.02 972.21 L 985.58 973.37 L 986.81 974.80 L 987.56 976.33 L 987.85 977.95 L 987.60 979.54 L 986.82 980.96 L 985.60 982.06 L 984.07 982.80 L 982.22 983.18 L 980.27 983.14 L 978.19 982.66 L 976.24 981.76 L 974.68 980.59 L 973.45 979.16 L 972.70 977.64 L 972.41 976.02 L 972.66 974.43 L 973.44 973.01 L 974.66 971.91 L 976.19 971.17 L 978.04 970.79 L 979.99 970.83 L 982.07 971.31 Z" fill="#ffcd82" fill-rule="nonzero" group-id="7" node-id="145" stroke="none" target-height="12.386108" target-width="15.447876" target-x="972.4062" target-y="970.791"></path><path d="M 1881.00 985.10 C 1880.40 985.10 1879.80 984.90 1879.30 984.50 C 1875.70 981.60 1875.60 979.30 1879.00 977.70 C 1882.10 976.30 1885.00 976.30 1887.70 977.60 C 1889.60 978.60 1890.40 981.00 1889.40 982.90 C 1888.70 984.20 1887.30 985.10 1885.90 985.10 L 1881.00 985.10 Z" fill="#ffdfc3" fill-rule="nonzero" node-id="148" stroke="none" target-height="8.799988" target-width="14.800049" target-x="1875.6" target-y="976.3"></path><path d="M 2089.00 1050.70 L 2087.50 1322.70 C 2087.50 1325.50 2088.50 1327.90 2090.60 1329.80 C 2096.50 1335.50 2103.70 1337.90 2112.20 1336.90 C 2114.80 1336.60 2116.20 1335.10 2116.20 1332.40 L 2118.00 1050.40 L 2179.30 1050.10 C 2181.90 1050.10 2183.30 1051.40 2183.30 1054.10 L 2182.60 1822.80 C 2169.60 1827.50 2153.30 1827.70 2133.70 1823.30 C 2140.80 1796.90 2145.50 1770.10 2148.00 1742.90 C 2151.00 1710.30 2147.40 1685.50 2137.30 1668.70 C 2114.30 1630.70 2058.40 1622.60 2018.40 1642.80 C 2011.80 1646.10 2001.40 1655.40 1987.10 1670.60 C 1965.40 1693.70 1939.30 1710.50 1908.70 1721.00 C 1888.30 1728.10 1884.40 1751.50 1873.10 1767.00 C 1869.90 1741.40 1873.00 1722.90 1892.00 1703.30 C 1937.60 1656.50 1982.40 1609.00 2026.20 1560.80 C 2039.60 1546.10 2032.70 1535.80 2032.70 1519.60 C 2032.70 1365.40 2032.70 1211.00 2032.40 1056.50 C 2032.40 1053.20 2035.10 1050.50 2038.40 1050.50 L 2089.00 1050.70 Z" fill="#ffcfa5" fill-rule="nonzero" node-id="150" stroke="none" target-height="777.6" target-width="313.40002" target-x="1869.9" target-y="1050.1"></path><path d="M 2420.10 1656.60 L 2404.00 1657.50 C 2398.80 1638.30 2396.30 1622.70 2396.70 1610.50 C 2401.30 1467.40 2403.00 1324.20 2401.90 1181.00 C 2401.90 1176.40 2403.90 1175.20 2408.00 1177.30 L 2412.70 1179.80 C 2415.10 1181.10 2416.20 1183.00 2416.10 1185.70 C 2413.20 1311.00 2414.90 1431.70 2421.30 1548.00 C 2423.50 1587.00 2423.10 1623.20 2420.10 1656.60 Z" fill="#feeadc" fill-rule="nonzero" node-id="152" stroke="none" target-height="482.30005" target-width="27.199951" target-x="2396.3" target-y="1175.2"></path><path d="M 188.00 1214.40 L 435.20 1214.00 C 439.50 1214.00 442.90 1217.40 442.90 1221.70 L 442.90 1242.60 C 442.90 1246.90 439.50 1250.30 435.20 1250.30 L 188.00 1250.70 C 183.70 1250.70 180.30 1247.30 180.30 1243.00 L 180.30 1222.10 C 180.30 1217.80 183.70 1214.40 188.00 1214.40 Z" fill="#ffcd82" fill-rule="nonzero" node-id="154" stroke="none" target-height="36.69995" target-width="262.59998" target-x="180.3" target-y="1214"></path><path d="M 1956.90 1244.20 C 1956.90 1257.23 1946.33 1267.80 1933.30 1267.80 C 1920.27 1267.80 1909.70 1257.23 1909.70 1244.20 C 1909.70 1231.17 1920.27 1220.60 1933.30 1220.60 C 1946.33 1220.60 1956.90 1231.17 1956.90 1244.20 Z" fill="#ffcd82" fill-rule="nonzero" node-id="156" stroke="none" target-height="47.200073" target-width="47.200073" target-x="1909.7" target-y="1220.6"></path><path d="M 2263.50 1267.70 C 2263.50 1274.99 2257.59 1280.90 2250.30 1280.90 C 2243.01 1280.90 2237.10 1274.99 2237.10 1267.70 C 2237.10 1260.41 2243.01 1254.50 2250.30 1254.50 C 2257.59 1254.50 2263.50 1260.41 2263.50 1267.70 Z" fill="#ffcd82" fill-rule="nonzero" node-id="158" stroke="none" target-height="26.400024" target-width="26.399902" target-x="2237.1" target-y="1254.5"></path><path d="M 1220.50 1258.10 C 1221.40 1256.60 1223.10 1255.80 1224.80 1256.00 C 1228.00 1256.40 1229.90 1258.80 1230.50 1263.10 C 1230.80 1265.50 1230.20 1267.60 1228.70 1269.40 L 1220.30 1279.80 C 1216.40 1284.60 1214.60 1283.90 1214.80 1277.70 C 1215.10 1270.80 1217.00 1264.30 1220.50 1258.10 Z" fill="#cbd4e7" fill-rule="nonzero" node-id="160" stroke="none" target-height="28.799927" target-width="16.200073" target-x="1214.6" target-y="1255.8"></path><path d="M 993.79 1324.56 L 995.97 1325.38 L 997.76 1326.52 L 999.21 1327.96 L 1000.16 1329.52 L 1000.61 1331.23 L 1000.47 1332.95 L 999.74 1334.51 L 998.51 1335.77 L 996.91 1336.67 L 994.94 1337.20 L 992.82 1337.30 L 990.52 1336.94 L 988.34 1336.12 L 986.55 1334.98 L 985.10 1333.55 L 984.15 1331.98 L 983.70 1330.27 L 983.84 1328.55 L 984.57 1326.99 L 985.80 1325.73 L 987.40 1324.84 L 989.37 1324.30 L 991.49 1324.20 L 993.79 1324.56 Z" fill="#ffdfc3" fill-rule="nonzero" group-id="8" node-id="164" stroke="none" target-height="13.104858" target-width="16.905273" target-x="983.7017" target-y="1324.1984"></path><path d="M 1971.80 1368.60 C 1971.80 1392.18 1952.68 1411.30 1929.10 1411.30 C 1905.52 1411.30 1886.40 1392.18 1886.40 1368.60 C 1886.40 1345.02 1905.52 1325.90 1929.10 1325.90 C 1952.68 1325.90 1971.80 1345.02 1971.80 1368.60 Z" fill="#ffcd82" fill-rule="nonzero" node-id="167" stroke="none" target-height="85.400024" target-width="85.400024" target-x="1886.4" target-y="1325.9"></path><path d="M 912.40 1362.00 L 988.10 1359.80 C 990.30 1359.70 992.10 1361.50 992.20 1363.70 L 992.20 1364.40 C 992.30 1366.60 990.50 1368.40 988.30 1368.50 L 912.60 1370.70 C 910.40 1370.80 908.60 1369.00 908.50 1366.80 L 908.50 1366.10 C 908.50 1363.90 910.30 1362.10 912.40 1362.00 Z" fill="#ffdfc3" fill-rule="nonzero" node-id="169" stroke="none" target-height="11.100098" target-width="83.79999" target-x="908.5" target-y="1359.7"></path><path d="M 1477.50 1362.30 L 1477.60 1744.20 C 1477.60 1746.60 1476.60 1748.50 1474.70 1749.90 C 1400.00 1804.30 1334.70 1919.60 1334.40 2013.50 C 1334.10 2118.30 1334.60 2223.10 1336.10 2327.80 C 1337.10 2397.30 1336.10 2456.90 1333.20 2506.70 C 1332.30 2522.50 1333.00 2536.20 1335.40 2547.70 C 1237.90 2605.30 1173.40 2715.80 1257.00 2819.60 C 1265.70 2830.30 1277.10 2836.50 1288.00 2846.20 C 1290.40 2848.40 1290.00 2849.20 1286.80 2848.60 C 1274.70 2846.70 1263.00 2840.10 1251.70 2839.60 C 1205.90 2837.80 1164.50 2850.50 1127.50 2877.70 L 1083.20 2736.50 L 1090.20 2735.00 C 1092.60 2734.50 1094.50 2733.40 1096.00 2731.60 C 1151.60 2666.80 1208.00 2602.60 1265.10 2539.00 C 1295.80 2504.70 1306.20 2486.10 1305.90 2441.90 C 1305.40 2350.00 1304.80 2259.30 1304.10 2169.90 C 1304.10 2163.50 1298.80 2158.30 1292.40 2158.30 C 1292.20 2158.30 1292.00 2158.30 1291.90 2158.30 L 1215.10 2162.00 C 1214.60 2046.40 1214.70 1932.00 1215.40 1818.80 C 1216.10 1721.60 1295.80 1720.40 1368.50 1729.90 C 1371.00 1730.20 1372.30 1729.10 1372.30 1726.60 L 1374.80 1441.90 L 1379.20 1439.70 C 1381.20 1438.70 1382.10 1437.10 1382.10 1434.80 C 1382.10 1433.40 1382.80 1432.40 1384.10 1431.90 C 1386.10 1431.10 1386.90 1431.80 1386.40 1433.80 L 1382.80 1449.30 C 1382.60 1450.30 1383.30 1451.30 1384.30 1451.50 C 1384.90 1451.60 1385.40 1451.50 1385.90 1451.10 L 1430.00 1412.40 C 1431.20 1411.40 1432.50 1411.20 1434.00 1411.90 C 1434.60 1412.20 1435.20 1412.40 1435.90 1412.60 C 1436.40 1412.70 1436.80 1412.60 1437.00 1412.20 L 1447.40 1394.00 C 1447.90 1393.10 1448.60 1392.90 1449.50 1393.30 C 1450.40 1393.70 1451.40 1394.00 1452.40 1394.30 C 1452.70 1394.40 1453.00 1394.30 1453.20 1394.00 L 1477.50 1362.30 Z" fill="#ffcfa5" fill-rule="nonzero" node-id="171" stroke="none" target-height="1515.3999" target-width="394.40002" target-x="1083.2" target-y="1362.3"></path><path d="M 910.40 1397.70 L 1007.30 1397.90 C 1009.20 1397.90 1010.80 1399.50 1010.80 1401.40 L 1010.80 1401.50 C 1010.80 1403.40 1009.20 1405.00 1007.30 1405.00 L 910.40 1404.80 C 908.50 1404.80 906.90 1403.20 906.90 1401.30 L 906.90 1401.20 C 906.80 1399.30 908.40 1397.70 910.40 1397.70 Z" fill="#ffcd82" fill-rule="nonzero" node-id="173" stroke="none" target-height="7.300049" target-width="104" target-x="906.8" target-y="1397.7"></path><path d="M 911.70 1429.10 L 1019.40 1426.30 C 1022.10 1426.20 1024.40 1428.40 1024.50 1431.10 L 1024.50 1431.70 C 1024.60 1434.40 1022.40 1436.70 1019.70 1436.80 L 912.00 1439.60 C 909.30 1439.70 907.00 1437.50 906.90 1434.80 L 906.90 1434.20 C 906.80 1431.40 909.00 1429.10 911.70 1429.10 Z" fill="#ffcd82" fill-rule="nonzero" node-id="175" stroke="none" target-height="13.5" target-width="117.79999" target-x="906.8" target-y="1426.2"></path><path d="M 2703.00 1922.30 L 2711.50 1989.90 L 2546.70 2101.40 L 2574.40 1905.20 L 2633.10 1450.90 C 2633.20 1449.00 2634.90 1447.50 2636.90 1447.60 C 2638.50 1447.70 2639.80 1448.90 2640.10 1450.40 C 2644.40 1466.70 2647.50 1484.00 2649.50 1502.40 C 2665.20 1642.00 2683.00 1782.00 2703.00 1922.30 Z" fill="#ffcd82" fill-rule="nonzero" node-id="177" stroke="none" target-height="653.8999" target-width="164.80005" target-x="2546.7" target-y="1447.5"></path><path d="M 913.10 1460.60 L 1044.00 1461.30 C 1046.60 1461.30 1048.80 1463.50 1048.80 1466.10 L 1048.80 1466.40 C 1048.80 1469.00 1046.60 1471.20 1044.00 1471.20 L 913.10 1470.50 C 910.50 1470.50 908.30 1468.30 908.30 1465.70 L 908.30 1465.40 C 908.30 1462.70 910.50 1460.60 913.10 1460.60 Z" fill="#ffcd82" fill-rule="nonzero" node-id="179" stroke="none" target-height="10.599976" target-width="140.50006" target-x="908.3" target-y="1460.6"></path><path d="M 1313.00 1484.20 C 1313.00 1487.46 1309.24 1490.10 1304.60 1490.10 C 1299.96 1490.10 1296.20 1487.46 1296.20 1484.20 C 1296.20 1480.94 1299.96 1478.30 1304.60 1478.30 C 1309.24 1478.30 1313.00 1480.94 1313.00 1484.20 Z" fill="#f7a597" fill-rule="nonzero" node-id="181" stroke="none" target-height="11.799927" target-width="16.800049" target-x="1296.2" target-y="1478.3"></path><path d="M 911.60 1493.40 L 1062.20 1493.40 C 1064.10 1493.40 1065.70 1495.00 1065.70 1496.90 L 1065.70 1497.20 C 1065.70 1499.10 1064.10 1500.70 1062.20 1500.70 L 911.60 1500.70 C 909.70 1500.70 908.10 1499.10 908.10 1497.20 L 908.10 1496.90 C 908.10 1495.00 909.70 1493.40 911.60 1493.40 Z" fill="#ffcd82" fill-rule="nonzero" node-id="183" stroke="none" target-height="7.2999268" target-width="157.59998" target-x="908.1" target-y="1493.4"></path><path d="M 2225.04 1499.98 L 2230.81 1500.34 L 2235.73 1501.19 L 2238.88 1502.09 L 2241.37 1503.09 L 2243.31 1504.18 L 2244.97 1505.57 L 2245.86 1506.92 L 2246.16 1508.30 L 2245.83 1509.66 L 2244.91 1511.00 L 2243.22 1512.35 L 2241.26 1513.40 L 2238.75 1514.35 L 2235.58 1515.18 L 2230.64 1515.93 L 2224.87 1516.17 L 2219.11 1515.81 L 2214.19 1514.96 L 2211.04 1514.06 L 2208.55 1513.06 L 2206.61 1511.97 L 2204.95 1510.58 L 2204.06 1509.23 L 2203.76 1507.85 L 2204.09 1506.49 L 2205.00 1505.15 L 2206.70 1503.79 L 2208.66 1502.75 L 2211.17 1501.80 L 2214.33 1500.97 L 2219.27 1500.22 L 2225.04 1499.98 Z" fill="#ffcd82" fill-rule="nonzero" group-id="9" node-id="187" stroke="none" target-height="16.198242" target-width="42.395508" target-x="2203.7612" target-y="1499.9751"></path><path d="M 1803.00 1537.30 C 1801.90 1538.60 1800.00 1538.90 1798.60 1537.80 L 1797.90 1537.10 C 1790.50 1531.00 1789.30 1520.30 1795.20 1513.00 L 1796.70 1511.20 C 1802.60 1503.90 1813.40 1502.90 1820.90 1509.00 C 1820.90 1509.00 1820.90 1509.00 1820.90 1509.00 L 1821.60 1509.70 C 1822.90 1510.80 1823.10 1512.80 1822.00 1514.10 L 1803.00 1537.30 Z" fill="#ffcfa5" fill-rule="nonzero" node-id="190" stroke="none" target-height="36" target-width="33.799927" target-x="1789.3" target-y="1502.9"></path><path d="M 998.18 1527.41 L 1027.23 1527.74 L 1052.45 1528.57 L 1063.53 1529.16 L 1072.34 1529.79 L 1080.28 1530.58 L 1085.39 1531.33 L 1088.56 1532.07 L 1089.78 1532.64 L 1090.07 1533.07 L 1089.78 1533.50 L 1088.56 1534.07 L 1085.38 1534.80 L 1080.27 1535.53 L 1072.33 1536.29 L 1063.51 1536.89 L 1052.44 1537.45 L 1027.21 1538.18 L 998.16 1538.41 L 969.11 1538.08 L 943.89 1537.26 L 932.81 1536.66 L 923.99 1536.03 L 916.06 1535.24 L 910.95 1534.50 L 907.78 1533.75 L 906.55 1533.18 L 906.27 1532.75 L 906.55 1532.32 L 907.78 1531.75 L 910.96 1531.02 L 916.07 1530.29 L 924.01 1529.53 L 932.82 1528.93 L 943.90 1528.38 L 969.13 1527.64 L 998.18 1527.41 Z" fill="#ffcd82" fill-rule="nonzero" group-id="10" node-id="194" stroke="none" target-height="11" target-width="183.80011" target-x="906.2685" target-y="1527.4116"></path><path d="M 548.40 1577.90 C 628.90 1503.90 746.00 1594.40 692.40 1689.00 C 664.50 1738.00 607.10 1739.70 557.10 1718.10 C 554.70 1717.10 552.40 1717.00 550.00 1717.80 C 534.30 1722.90 515.30 1732.30 499.50 1731.80 C 446.00 1730.40 420.00 1700.60 421.30 1642.40 C 422.50 1591.20 490.20 1581.90 525.30 1604.20 C 528.00 1606.00 530.40 1605.60 532.60 1603.20 C 537.90 1597.30 542.00 1590.60 544.90 1583.10 C 545.60 1581.20 546.80 1579.40 548.40 1577.90 Z" fill="#f3e1df" fill-rule="nonzero" node-id="197" stroke="none" target-height="235.79993" target-width="326" target-x="420" target-y="1503.9"></path><path d="M 915.50 1560.70 L 1096.90 1558.80 C 1099.30 1558.80 1101.30 1560.70 1101.40 1563.20 L 1101.40 1563.50 C 1101.40 1565.90 1099.50 1567.90 1097.00 1568.00 L 915.60 1569.90 C 913.20 1569.90 911.20 1568.00 911.10 1565.50 L 911.10 1565.20 C 911.10 1562.70 913.00 1560.70 915.50 1560.70 Z" fill="#ffcd82" fill-rule="nonzero" node-id="199" stroke="none" target-height="11.099976" target-width="190.30005" target-x="911.1" target-y="1558.8"></path><path d="M 912.40 1596.60 L 1128.10 1596.20 C 1130.00 1596.20 1131.50 1597.70 1131.50 1599.60 L 1131.50 1600.20 C 1131.50 1602.10 1130.00 1603.60 1128.10 1603.60 L 912.40 1604.00 C 910.50 1604.00 909.00 1602.50 909.00 1600.60 L 909.00 1600.00 C 909.00 1598.10 910.50 1596.60 912.40 1596.60 Z" fill="#ffcd82" fill-rule="nonzero" node-id="201" stroke="none" target-height="7.800049" target-width="222.5" target-x="909" target-y="1596.2"></path><path d="M 1353.00 1628.10 C 1353.00 1631.80 1349.60 1634.80 1345.40 1634.80 C 1341.20 1634.80 1337.80 1631.80 1337.80 1628.10 C 1337.80 1624.40 1341.20 1621.40 1345.40 1621.40 C 1349.60 1621.40 1353.00 1624.40 1353.00 1628.10 Z" fill="#ffcd82" fill-rule="nonzero" node-id="203" stroke="none" target-height="13.400024" target-width="15.199951" target-x="1337.8" target-y="1621.4"></path><path d="M 913.50 1627.50 L 1170.50 1627.90 C 1172.00 1627.90 1173.20 1629.10 1173.20 1630.60 L 1173.20 1635.20 C 1173.20 1636.70 1172.00 1637.90 1170.50 1637.90 L 913.50 1637.50 C 912.00 1637.50 910.80 1636.30 910.80 1634.80 L 910.80 1630.20 C 910.70 1628.70 912.00 1627.50 913.50 1627.50 Z" fill="#ffcd82" fill-rule="nonzero" node-id="205" stroke="none" target-height="10.400024" target-width="262.49994" target-x="910.7" target-y="1627.5"></path><path d="M 1746.26 1633.84 L 1749.05 1634.74 L 1751.36 1635.98 L 1753.29 1637.58 L 1754.59 1639.31 L 1755.14 1640.59 L 1755.35 1641.85 L 1755.25 1643.13 L 1754.80 1644.33 L 1754.07 1645.38 L 1753.03 1646.30 L 1751.12 1647.32 L 1748.69 1647.95 L 1746.07 1648.08 L 1743.16 1647.70 L 1740.37 1646.81 L 1738.05 1645.57 L 1736.12 1643.97 L 1734.82 1642.24 L 1734.27 1640.95 L 1734.06 1639.69 L 1734.17 1638.42 L 1734.62 1637.22 L 1735.34 1636.17 L 1736.39 1635.24 L 1738.30 1634.23 L 1740.72 1633.60 L 1743.35 1633.46 L 1746.26 1633.84 Z" fill="#ffdfc3" fill-rule="nonzero" group-id="11" node-id="209" stroke="none" target-height="14.619385" target-width="21.289063" target-x="1734.062" target-y="1633.4636"></path><path d="M 2133.80 1823.40 C 2143.70 1862.20 2138.40 1898.00 2117.80 1930.90 C 2093.70 1969.40 2053.00 1978.40 2012.50 1991.10 C 2010.10 1991.90 2008.60 1994.20 2008.80 1996.70 C 2015.00 2072.50 2048.60 2131.50 2109.60 2173.90 C 2115.30 2177.90 2119.50 2184.80 2119.30 2191.30 C 2110.80 2195.10 2105.30 2196.80 2102.60 2196.40 C 2066.30 2191.50 2026.20 2198.20 2002.20 2227.40 C 1964.00 2274.10 1981.80 2344.70 2040.10 2365.10 C 2072.40 2376.40 2127.80 2400.20 2161.20 2392.80 C 2184.30 2387.70 2205.20 2377.10 2223.90 2361.10 C 2225.80 2359.40 2227.90 2358.70 2230.40 2359.00 C 2263.90 2362.10 2293.20 2354.30 2318.20 2335.50 C 2360.40 2303.80 2360.00 2263.10 2357.60 2215.10 L 2396.60 2215.00 L 2394.20 2421.40 C 2394.20 2424.10 2396.30 2426.40 2399.10 2426.40 C 2400.10 2426.40 2401.10 2426.10 2402.00 2425.50 L 2896.20 2086.70 C 2900.20 2084.00 2902.10 2085.10 2902.10 2089.90 C 2901.60 2217.50 2882.90 2338.10 2855.00 2463.20 C 2767.40 2465.30 2680.20 2464.90 2593.50 2462.00 C 2589.00 2461.80 2580.90 2462.80 2569.30 2464.90 C 2567.10 2465.30 2565.40 2466.40 2564.20 2468.40 L 2432.40 2685.10 C 2430.40 2688.40 2428.30 2688.50 2426.20 2685.20 L 2253.00 2419.40 C 2252.40 2418.50 2251.20 2418.20 2250.30 2418.70 C 2249.70 2419.10 2249.30 2419.70 2249.40 2420.50 L 2247.90 2852.80 C 2206.80 2861.40 2173.20 2864.40 2147.00 2861.90 C 2091.60 2856.60 2042.40 2855.40 1999.40 2858.40 C 1957.60 2861.30 1922.40 2860.80 1883.80 2863.10 C 1876.70 2863.50 1873.10 2860.20 1873.10 2853.00 C 1873.60 2734.00 1873.50 2613.10 1872.70 2490.10 C 1872.60 2475.50 1868.70 2466.50 1860.90 2463.20 C 1856.10 2414.50 1857.20 2355.70 1833.60 2313.30 L 1832.50 2017.30 C 1845.30 2015.00 1856.70 2010.40 1866.50 2003.60 C 1868.60 2002.10 1869.90 2000.10 1870.20 1997.60 C 1881.80 1924.50 1871.70 1849.70 1873.40 1767.70 C 1884.60 1752.30 1888.50 1728.80 1909.00 1721.70 C 1939.50 1711.20 1965.70 1694.40 1987.40 1671.30 C 2001.70 1656.10 2012.20 1646.80 2018.70 1643.50 C 2058.70 1623.30 2114.60 1631.40 2137.60 1669.40 C 2147.70 1686.20 2151.30 1710.90 2148.30 1743.60 C 2145.60 1770.10 2140.90 1796.90 2133.80 1823.40 Z M 1990.50 2743.20 C 2052.00 2755.70 2136.40 2764.90 2200.30 2743.60 C 2203.00 2742.70 2204.80 2740.30 2205.00 2737.50 C 2208.10 2692.70 2210.50 2616.30 2195.60 2577.40 C 2163.70 2494.40 2048.30 2487.20 2003.50 2563.00 C 1978.60 2605.10 1983.40 2688.90 1984.00 2741.10 C 1984.00 2743.40 1985.20 2744.60 1987.50 2744.80 C 1988.80 2744.90 1989.70 2744.40 1990.50 2743.20 Z" fill="#ffdfc3" fill-rule="nonzero" node-id="212" stroke="none" target-height="1241.0999" target-width="1069.6001" target-x="1832.5" target-y="1623.3"></path><path d="M 2404.00 1657.50 L 2420.10 1656.60 L 2471.00 1658.90 C 2473.50 1659.00 2474.90 1660.30 2475.30 1662.80 L 2477.50 1678.80 C 2477.90 1681.80 2475.80 1684.50 2472.80 1684.90 C 2472.60 1684.90 2472.40 1684.90 2472.20 1684.90 L 2419.00 1685.70 L 2403.70 1686.80 C 2392.10 1684.40 2380.50 1684.40 2368.70 1686.70 C 2363.30 1685.50 2360.40 1686.00 2360.10 1688.00 L 2317.90 1686.40 C 2315.10 1686.30 2313.70 1684.80 2313.80 1682.00 L 2314.40 1660.50 C 2314.40 1657.70 2316.80 1655.40 2319.60 1655.40 C 2319.60 1655.40 2319.70 1655.40 2319.70 1655.40 L 2404.00 1657.50 Z" fill="#ffcbb6" fill-rule="nonzero" node-id="214" stroke="none" target-height="32.599976" target-width="164.19995" target-x="2313.7" target-y="1655.4"></path><path d="M 913.20 1659.50 L 1173.80 1660.40 C 1176.40 1660.40 1178.60 1662.60 1178.60 1665.20 L 1178.60 1665.50 C 1178.60 1668.10 1176.40 1670.30 1173.80 1670.30 L 913.20 1669.40 C 910.60 1669.40 908.40 1667.20 908.40 1664.60 L 908.40 1664.30 C 908.40 1661.60 910.50 1659.50 913.20 1659.50 Z" fill="#ffcd82" fill-rule="nonzero" node-id="216" stroke="none" target-height="10.800049" target-width="270.19995" target-x="908.4" target-y="1659.5"></path><path d="M 2368.80 1686.80 C 2369.90 1709.90 2370.30 1733.00 2370.00 1756.10 C 2370.00 1759.70 2369.10 1762.20 2367.50 1763.60 C 2365.80 1765.00 2363.70 1765.60 2361.20 1765.20 C 2358.40 1764.90 2357.10 1763.30 2357.20 1760.40 L 2360.30 1688.10 C 2360.50 1686.10 2363.40 1685.60 2368.80 1686.80 Z" fill="#ffdfc3" fill-rule="nonzero" node-id="218" stroke="none" target-height="80" target-width="13.199951" target-x="2357.1" target-y="1685.6"></path><path d="M 2403.80 1686.90 L 2419.10 1685.80 C 2421.40 1710.00 2421.90 1734.20 2420.80 1758.20 C 2420.40 1766.10 2416.20 1772.50 2407.60 1770.80 C 2402.40 1769.80 2398.80 1765.10 2399.10 1759.80 L 2403.80 1686.90 Z" fill="#feeadc" fill-rule="nonzero" node-id="220" stroke="none" target-height="86.69995" target-width="23.099854" target-x="2398.8" target-y="1685.8"></path><path d="M 913.10 1693.90 L 1127.00 1693.50 C 1128.30 1693.50 1129.40 1694.50 1129.40 1695.80 L 1129.40 1702.00 C 1129.40 1703.30 1128.40 1704.40 1127.10 1704.40 L 913.20 1704.80 C 911.90 1704.80 910.80 1703.80 910.80 1702.50 L 910.80 1696.30 C 910.70 1695.00 911.80 1693.90 913.10 1693.90 Z" fill="#ffcd82" fill-rule="nonzero" node-id="222" stroke="none" target-height="11.300049" target-width="218.70001" target-x="910.7" target-y="1693.5"></path><path d="M 1673.50 1712.50 C 1683.60 1712.00 1691.40 1713.60 1697.00 1717.40 C 1698.80 1718.60 1699.90 1720.60 1699.90 1722.80 L 1700.30 2230.60 C 1700.30 2233.30 1699.00 2234.90 1696.20 2235.30 L 1638.20 2242.80 L 1639.10 2052.70 L 1639.40 1723.20 C 1639.40 1718.10 1643.30 1714.00 1648.40 1713.70 L 1673.50 1712.50 Z" fill="#805449" fill-rule="nonzero" node-id="224" stroke="none" target-height="530.80005" target-width="62.100098" target-x="1638.2" target-y="1712"></path><path d="M 912.70 1728.70 L 1098.30 1728.40 C 1100.20 1728.40 1101.80 1729.90 1101.80 1731.80 L 1101.80 1732.10 C 1101.80 1734.00 1100.30 1735.60 1098.40 1735.60 L 912.80 1735.90 C 910.90 1735.90 909.30 1734.40 909.30 1732.50 L 909.30 1732.20 C 909.20 1730.30 910.80 1728.80 912.70 1728.70 Z" fill="#ffcd82" fill-rule="nonzero" node-id="226" stroke="none" target-height="7.5" target-width="192.60004" target-x="909.2" target-y="1728.4"></path><path d="M 1723.10 2236.50 C 1721.50 2236.10 1720.40 2234.70 1720.40 2233.00 L 1720.40 1737.90 C 1720.40 1735.70 1721.30 1735.20 1723.10 1736.40 C 1755.20 1756.30 1764.90 1781.80 1764.60 1820.90 C 1764.00 1961.10 1764.30 2101.20 1765.50 2241.40 C 1765.50 2244.70 1763.90 2246.00 1760.70 2245.20 L 1723.10 2236.50 Z" fill="#805449" fill-rule="nonzero" node-id="228" stroke="none" target-height="510.80005" target-width="45.099976" target-x="1720.4" target-y="1735.2"></path><path d="M 915.40 1758.50 L 1077.10 1758.80 C 1079.90 1758.80 1082.10 1761.00 1082.10 1763.80 L 1082.10 1764.20 C 1082.10 1767.00 1079.90 1769.20 1077.10 1769.20 L 915.40 1768.90 C 912.60 1768.90 910.40 1766.70 910.40 1763.90 L 910.40 1763.50 C 910.40 1760.70 912.70 1758.50 915.40 1758.50 Z" fill="#ffcd82" fill-rule="nonzero" node-id="230" stroke="none" target-height="10.699951" target-width="171.69995" target-x="910.4" target-y="1758.5"></path><path d="M 912.30 1794.70 L 1072.90 1793.90 C 1075.00 1793.90 1076.70 1795.60 1076.70 1797.70 L 1076.70 1797.80 C 1076.70 1799.90 1075.00 1801.60 1072.90 1801.60 L 912.30 1802.40 C 910.20 1802.40 908.50 1800.70 908.50 1798.60 L 908.50 1798.50 C 908.50 1796.50 910.20 1794.70 912.30 1794.70 Z" fill="#ffcd82" fill-rule="nonzero" node-id="232" stroke="none" target-height="8.5" target-width="168.19995" target-x="908.5" target-y="1793.9"></path><path d="M 913.70 2232.90 L 967.40 2386.60 L 782.00 2519.70 C 779.90 2521.20 778.80 2523.30 778.80 2525.90 L 778.90 2736.70 C 758.40 2812.30 739.70 2887.40 723.00 2962.20 C 721.60 2968.30 717.40 2973.50 710.30 2977.60 C 685.50 2889.80 662.00 2801.80 639.60 2713.70 C 634.50 2693.60 636.30 2673.90 635.20 2654.00 C 640.40 2623.60 642.20 2594.40 648.60 2565.20 C 660.30 2511.50 667.00 2456.30 668.70 2399.60 C 686.50 2351.00 696.60 2294.50 699.00 2230.10 L 758.40 1803.10 C 758.80 1800.40 761.30 1798.40 764.00 1798.80 C 765.90 1799.10 767.50 1800.40 768.10 1802.20 L 913.70 2232.90 Z" fill="#ffcd82" fill-rule="nonzero" node-id="234" stroke="none" target-height="1179.2001" target-width="332.90002" target-x="634.5" target-y="1798.4"></path><path d="M 2182.70 1822.80 C 2194.80 1825.40 2206.80 1827.90 2218.70 1830.20 C 2291.60 1843.90 2338.80 1892.80 2359.30 1967.10 C 2368.60 2033.40 2351.80 2090.60 2308.90 2138.80 C 2301.90 2133.80 2300.30 2130.40 2291.20 2130.30 C 2220.40 2129.70 2195.80 2160.10 2137.70 2190.40 C 2135.50 2191.50 2133.20 2192.00 2130.70 2191.90 L 2119.30 2191.10 C 2119.50 2184.60 2115.30 2177.70 2109.60 2173.70 C 2048.60 2131.40 2015.00 2072.30 2008.80 1996.50 C 2008.60 1994.00 2010.20 1991.70 2012.50 1990.90 C 2052.90 1978.20 2093.70 1969.10 2117.80 1930.70 C 2138.40 1897.80 2143.70 1862.00 2133.80 1823.20 C 2153.40 1827.70 2169.70 1827.50 2182.70 1822.80 Z" fill="#ffcbb6" fill-rule="nonzero" node-id="236" stroke="none" target-height="369.19995" target-width="360.00012" target-x="2008.6" target-y="1822.8"></path><path d="M 914.60 1829.60 L 1066.60 1829.90 C 1068.00 1829.90 1069.10 1831.00 1069.10 1832.40 L 1069.10 1836.50 C 1069.10 1837.90 1068.00 1839.00 1066.60 1839.00 L 914.60 1838.70 C 913.20 1838.70 912.10 1837.60 912.10 1836.20 L 912.10 1832.10 C 912.10 1830.70 913.20 1829.60 914.60 1829.60 Z" fill="#ffcd82" fill-rule="nonzero" node-id="238" stroke="none" target-height="9.400024" target-width="157" target-x="912.1" target-y="1829.6"></path><path d="M 1832.30 2016.80 L 1833.40 2312.80 L 1788.90 2264.10 C 1787.30 2262.40 1786.50 2260.20 1786.50 2257.90 L 1786.50 1833.50 C 1786.50 1832.00 1787.70 1830.80 1789.20 1830.80 C 1790.20 1830.80 1791.20 1831.40 1791.60 1832.30 C 1821.80 1890.40 1835.30 1951.90 1832.30 2016.80 Z" fill="#805449" fill-rule="nonzero" node-id="240" stroke="none" target-height="482" target-width="48.80005" target-x="1786.5" target-y="1830.8"></path><path d="M 912.50 1859.90 L 1051.90 1860.90 C 1053.20 1860.90 1054.20 1861.90 1054.20 1863.20 L 1054.20 1866.40 C 1054.20 1867.70 1053.20 1868.70 1051.90 1868.70 L 912.50 1867.70 C 911.20 1867.70 910.20 1866.70 910.20 1865.40 L 910.20 1862.20 C 910.20 1860.90 911.30 1859.90 912.50 1859.90 Z" fill="#ffcd82" fill-rule="nonzero" node-id="242" stroke="none" target-height="8.799927" target-width="143.99994" target-x="910.2" target-y="1859.9"></path><path d="M 699.00 2230.10 C 696.60 2294.50 686.50 2350.90 668.70 2399.60 C 554.70 2504.00 448.00 2614.70 338.10 2726.30 C 328.50 2736.10 323.70 2734.10 323.50 2720.40 L 318.60 2415.60 L 326.20 2323.20 C 326.40 2320.50 325.20 2319.10 322.50 2319.00 L 297.40 2318.30 L 298.30 2285.50 C 298.40 2282.60 297.00 2281.00 294.00 2280.90 L 238.40 2278.00 L 241.60 2015.70 C 241.60 2012.30 243.60 2009.20 246.70 2007.60 L 324.80 1969.00 C 327.10 1967.90 328.90 1966.00 330.00 1963.60 C 342.00 1937.20 338.20 1904.50 338.40 1877.70 C 338.40 1871.40 341.60 1868.30 347.90 1868.30 L 620.60 1868.50 C 627.30 1868.50 630.60 1871.90 630.60 1878.50 L 630.60 1985.50 C 630.60 1988.90 628.90 1990.60 625.50 1990.60 L 455.20 1991.20 C 452.60 1991.20 450.40 1993.30 450.40 1995.90 C 450.40 1995.90 450.40 1995.90 450.40 1995.90 L 450.40 2261.70 C 450.40 2264.50 452.70 2266.90 455.50 2266.90 C 455.60 2266.90 455.70 2266.90 455.80 2266.90 C 506.90 2263.90 552.90 2277.00 593.90 2306.20 C 596.10 2307.80 597.90 2307.40 599.40 2305.20 C 624.50 2266.50 657.70 2241.50 699.00 2230.10 Z M 449.10 2284.60 C 449.00 2280.70 445.80 2277.60 441.90 2277.70 L 441.90 2277.70 L 385.20 2278.70 C 381.30 2278.80 378.20 2282.00 378.30 2285.90 L 378.80 2313.80 C 378.90 2317.70 382.10 2320.80 386.00 2320.70 L 442.70 2319.70 C 446.60 2319.60 449.70 2316.40 449.60 2312.50 C 449.60 2312.50 449.60 2312.50 449.60 2312.50 L 449.10 2284.60 Z" fill="#feeadc" fill-rule="nonzero" node-id="244" stroke="none" target-height="867.80005" target-width="460.6" target-x="238.4" target-y="1868.3"></path><path d="M 913.90 1890.40 L 1018.10 1891.30 C 1021.00 1891.30 1023.40 1893.70 1023.30 1896.60 L 1023.30 1897.50 C 1023.30 1900.40 1020.90 1902.80 1018.00 1902.70 L 913.80 1901.80 C 910.90 1901.80 908.50 1899.40 908.60 1896.50 L 908.60 1895.60 C 908.50 1892.70 910.90 1890.40 913.90 1890.40 Z" fill="#ffcd82" fill-rule="nonzero" node-id="246" stroke="none" target-height="12.400024" target-width="114.900024" target-x="908.5" target-y="1890.4"></path><path d="M 2711.50 1989.90 L 2703.00 1922.30 C 2745.90 1897.60 2790.80 1887.90 2837.60 1893.10 C 2843.90 1893.80 2844.40 1895.90 2839.30 1899.60 L 2711.50 1989.90 Z" fill="#feeadc" fill-rule="nonzero" node-id="248" stroke="none" target-height="102" target-width="141.3999" target-x="2703" target-y="1887.9"></path><path d="M 2574.50 1905.20 L 2546.80 2101.40 C 2503.10 2130.50 2458.00 2160.70 2411.50 2192.00 C 2402.10 2198.40 2397.20 2205.90 2396.60 2214.70 L 2357.60 2214.80 C 2352.60 2186.40 2337.30 2163.50 2311.70 2146.30 C 2309.30 2144.70 2308.40 2142.20 2308.90 2138.80 C 2351.80 2090.60 2368.60 2033.30 2359.30 1967.10 C 2422.90 1913.50 2494.70 1892.80 2574.50 1905.20 Z" fill="#feeadc" fill-rule="nonzero" node-id="250" stroke="none" target-height="322" target-width="266.1001" target-x="2308.4" target-y="1892.8"></path><path d="M 960.37 1926.50 L 970.60 1926.75 L 979.78 1927.17 L 988.52 1927.78 L 995.63 1928.49 L 1002.07 1929.39 L 1006.30 1930.26 L 1008.86 1931.09 L 1009.92 1931.76 L 1010.19 1932.30 L 1009.90 1932.83 L 1008.83 1933.46 L 1006.24 1934.23 L 1001.99 1934.98 L 995.53 1935.70 L 988.40 1936.20 L 979.65 1936.57 L 970.46 1936.74 L 960.23 1936.70 L 950.00 1936.45 L 940.81 1936.03 L 932.08 1935.42 L 924.97 1934.71 L 918.52 1933.81 L 914.30 1932.94 L 911.73 1932.11 L 910.67 1931.44 L 910.40 1930.90 L 910.69 1930.38 L 911.77 1929.74 L 914.35 1928.97 L 918.60 1928.22 L 925.07 1927.50 L 932.19 1927.00 L 940.94 1926.63 L 950.14 1926.47 L 960.37 1926.50 Z" fill="#ffcd82" fill-rule="nonzero" group-id="12" node-id="254" stroke="none" target-height="10.270264" target-width="99.79004" target-x="910.40204" target-y="1926.4656"></path><path d="M 919.70 1958.60 L 986.20 1959.80 C 988.40 1959.80 990.10 1961.60 990.00 1963.80 L 990.00 1964.10 C 990.00 1966.30 988.20 1968.00 986.00 1967.90 L 919.50 1966.70 C 917.30 1966.70 915.60 1964.90 915.70 1962.70 L 915.70 1962.40 C 915.80 1960.30 917.50 1958.60 919.70 1958.60 Z" fill="#ffdfc3" fill-rule="nonzero" node-id="257" stroke="none" target-height="9.400024" target-width="74.5" target-x="915.6" target-y="1958.6"></path><path d="M 1639.10 2052.70 L 1638.20 2242.80 C 1515.90 2296.20 1454.80 2404.80 1500.10 2537.20 C 1500.80 2539.30 1499.70 2541.60 1497.60 2542.30 C 1496.90 2542.50 1496.10 2542.60 1495.40 2542.40 L 1410.70 2522.10 C 1411.70 2419.70 1413.10 2316.80 1409.80 2214.30 C 1408.00 2160.00 1405.90 2136.10 1447.40 2101.20 C 1502.00 2055.10 1565.80 2039.00 1639.10 2052.70 Z" fill="#fa8a62" fill-rule="nonzero" node-id="259" stroke="none" target-height="503.6001" target-width="233.19995" target-x="1405.9" target-y="2039"></path><path d="M 2308.90 2138.80 C 2308.40 2142.20 2309.30 2144.70 2311.70 2146.30 C 2337.20 2163.60 2352.50 2186.40 2357.60 2214.80 C 2360.00 2262.80 2360.40 2303.50 2318.20 2335.20 C 2293.20 2354.00 2263.90 2361.90 2230.40 2358.70 C 2227.90 2358.50 2225.80 2359.20 2223.90 2360.80 C 2205.20 2376.80 2184.30 2387.40 2161.20 2392.50 C 2127.80 2399.90 2072.50 2376.10 2040.10 2364.80 C 1981.90 2344.40 1964.10 2273.80 2002.20 2227.10 C 2026.20 2197.90 2066.20 2191.30 2102.60 2196.10 C 2105.20 2196.50 2110.80 2194.80 2119.30 2191.00 L 2130.70 2191.80 C 2133.20 2191.90 2135.50 2191.50 2137.70 2190.30 C 2195.90 2160.00 2220.40 2129.60 2291.20 2130.20 C 2300.30 2130.40 2302.00 2133.80 2308.90 2138.80 Z" fill="#ffcd82" fill-rule="nonzero" node-id="261" stroke="none" target-height="270.2998" target-width="396.29993" target-x="1964.1" target-y="2129.6"></path><path d="M 1024.50 2134.51 L 1028.33 2135.00 L 1031.80 2136.01 L 1034.97 2137.51 L 1037.85 2139.50 L 1040.24 2141.81 L 1042.18 2144.46 L 1043.60 2147.40 L 1044.41 2150.52 L 1044.61 2153.87 L 1044.10 2157.19 L 1043.00 2160.22 L 1041.30 2163.02 L 1039.12 2165.47 L 1036.53 2167.55 L 1033.47 2169.25 L 1030.17 2170.45 L 1026.62 2171.13 L 1022.76 2171.26 L 1018.93 2170.77 L 1015.46 2169.76 L 1012.29 2168.26 L 1009.41 2166.27 L 1007.02 2163.96 L 1005.08 2161.31 L 1003.66 2158.37 L 1002.85 2155.25 L 1002.65 2151.90 L 1003.16 2148.58 L 1004.26 2145.55 L 1005.95 2142.75 L 1008.13 2140.30 L 1010.73 2138.22 L 1013.79 2136.51 L 1017.09 2135.31 L 1020.64 2134.64 L 1024.50 2134.51 Z" fill="#ffcd82" fill-rule="nonzero" group-id="13" node-id="265" stroke="none" target-height="36.759277" target-width="41.953857" target-x="1002.6527" target-y="2134.505"></path><path d="M 1083.20 2736.50 L 1022.50 2554.50 L 1120.60 2484.60 C 1126.60 2480.30 1130.30 2473.60 1130.70 2466.20 C 1132.70 2423.90 1132.10 2379.50 1129.10 2332.90 C 1129.00 2330.90 1127.40 2328.10 1124.50 2324.40 L 1128.10 2318.20 C 1129.20 2316.10 1129.80 2314.00 1129.70 2311.70 C 1128.10 2265.70 1136.20 2207.20 1119.30 2164.70 L 1215.20 2162.10 L 1292.00 2158.40 C 1298.40 2158.10 1303.90 2163.00 1304.20 2169.40 C 1304.20 2169.60 1304.20 2169.80 1304.20 2169.90 C 1304.80 2259.30 1305.40 2350.00 1306.00 2441.90 C 1306.30 2486.20 1295.90 2504.80 1265.20 2539.00 C 1208.10 2602.60 1151.70 2666.80 1096.10 2731.60 C 1094.60 2733.40 1092.60 2734.50 1090.30 2735.00 L 1083.20 2736.50 Z" fill="#f3e1df" fill-rule="nonzero" node-id="268" stroke="none" target-height="578.3999" target-width="283.80005" target-x="1022.5" target-y="2158.1"></path><path d="M 1119.20 2164.60 C 1136.20 2207.00 1128.00 2265.50 1129.60 2311.60 C 1129.60 2313.90 1129.10 2316.10 1128.00 2318.10 L 1124.40 2324.30 C 1080.20 2295.20 1071.70 2191.50 1119.20 2164.60 Z" fill="#ffcd82" fill-rule="nonzero" node-id="270" stroke="none" target-height="159.69995" target-width="64.5" target-x="1071.7" target-y="2164.6"></path><path d="M 913.70 2232.90 C 959.40 2234.70 1017.50 2294.30 1046.20 2324.70 C 1047.60 2326.20 1047.50 2328.60 1046.00 2330.00 C 1045.90 2330.10 1045.80 2330.20 1045.60 2330.30 L 967.40 2386.50 L 913.70 2232.90 Z" fill="#feeadc" fill-rule="nonzero" node-id="272" stroke="none" target-height="153.6001" target-width="133.89996" target-x="913.7" target-y="2232.9"></path><path d="M 11.30 2278.80 L 145.70 2277.60 C 147.20 2277.60 148.50 2278.80 148.50 2280.40 L 148.80 2315.80 C 148.80 2317.30 147.60 2318.60 146.00 2318.60 L 11.60 2319.80 C 10.10 2319.80 8.80 2318.60 8.80 2317.00 L 8.50 2281.60 C 8.50 2280.10 9.80 2278.80 11.30 2278.80 Z" fill="#ffcd82" fill-rule="nonzero" node-id="274" stroke="none" target-height="42.19995" target-width="140.3" target-x="8.5" target-y="2277.6"></path><path d="M 238.20 2278.00 L 293.80 2280.90 C 296.70 2281.00 298.20 2282.60 298.10 2285.50 L 297.20 2318.30 L 241.00 2320.30 C 238.40 2320.40 236.80 2319.20 236.20 2316.60 C 233.40 2303.30 234.00 2290.50 238.20 2278.00 Z" fill="#ffcd82" fill-rule="nonzero" node-id="276" stroke="none" target-height="42.399902" target-width="64.80002" target-x="233.4" target-y="2278"></path><path d="M 385.20 2278.60 L 441.90 2277.60 C 445.80 2277.50 449.00 2280.60 449.10 2284.50 L 449.60 2312.40 C 449.70 2316.30 446.60 2319.50 442.70 2319.60 L 386.00 2320.60 C 382.10 2320.70 378.90 2317.60 378.80 2313.70 L 378.30 2285.80 C 378.20 2281.90 381.30 2278.70 385.20 2278.60 Z" fill="#ffcd82" fill-rule="nonzero" node-id="278" stroke="none" target-height="43.19995" target-width="71.5" target-x="378.2" target-y="2277.5"></path><path d="M 318.50 2415.60 L 323.40 2720.40 C 323.60 2734.10 328.50 2736.00 338.00 2726.30 C 448.00 2614.70 554.70 2504.00 668.70 2399.60 C 667.00 2456.30 660.30 2511.40 648.60 2565.20 C 642.20 2594.40 640.40 2623.60 635.20 2654.00 C 619.80 2635.80 615.30 2614.50 621.90 2590.30 C 622.70 2587.40 621.00 2584.40 618.10 2583.60 C 615.80 2583.00 613.30 2583.90 612.10 2586.00 C 600.30 2604.30 598.10 2615.30 592.80 2633.60 C 547.50 2789.00 499.00 2943.60 447.40 3097.60 L 429.70 3150.40 C 428.90 3152.80 427.60 3154.70 425.70 3156.20 L 422.30 3158.80 C 240.40 2970.00 116.00 2748.80 49.20 2495.30 C 42.90 2471.10 51.80 2455.70 69.90 2441.60 C 133.00 2392.50 246.90 2365.00 318.50 2415.60 Z" fill="#ffcfa5" fill-rule="nonzero" node-id="280" stroke="none" target-height="793.80005" target-width="625.8" target-x="42.9" target-y="2365"></path><path d="M 2854.90 2462.80 C 2797.00 2686.30 2694.80 2886.60 2548.20 3063.80 C 2545.20 3067.50 2542.10 3069.10 2539.10 3068.60 C 2489.80 3017.10 2428.70 2989.90 2371.00 3049.00 C 2367.40 3052.70 2362.10 3054.00 2357.30 3052.50 L 2295.70 3033.10 C 2294.30 3032.70 2292.70 3032.60 2291.30 3033.00 L 2247.80 3044.50 L 2247.80 2852.40 L 2249.30 2420.10 C 2249.30 2419.00 2250.10 2418.10 2251.20 2418.10 C 2251.90 2418.10 2252.60 2418.40 2253.00 2419.00 L 2426.20 2684.80 C 2428.30 2688.10 2430.40 2688.10 2432.40 2684.70 L 2564.20 2468.00 C 2565.40 2466.10 2567.10 2464.90 2569.30 2464.50 C 2580.90 2462.40 2589.00 2461.40 2593.50 2461.60 C 2680.10 2464.50 2767.30 2464.90 2854.90 2462.80 Z" fill="#ff9967" fill-rule="nonzero" node-id="282" stroke="none" target-height="651" target-width="607.09985" target-x="2247.8" target-y="2418.1"></path><path d="M 1860.80 2462.70 C 1868.50 2466.00 1872.50 2475.00 1872.60 2489.60 C 1873.40 2612.60 1873.50 2733.50 1873.00 2852.50 C 1873.00 2859.70 1876.60 2863.00 1883.70 2862.60 C 1922.20 2860.30 1957.40 2860.80 1999.30 2857.90 C 2042.30 2854.90 2091.50 2856.10 2146.90 2861.40 C 2173.10 2863.90 2206.80 2860.90 2247.80 2852.30 L 2247.80 3044.40 C 2205.20 3060.50 2181.90 3093.20 2177.80 3142.50 C 2177.50 3145.60 2174.80 3147.90 2171.70 3147.70 C 2170.50 3147.60 2169.40 3147.10 2168.50 3146.30 C 2126.00 3110.40 2078.90 3103.60 2027.30 3126.00 C 1956.60 3123.80 1887.80 3122.10 1816.70 3128.20 C 1806.60 3100.20 1790.40 3075.90 1768.20 3055.30 C 1766.30 3053.50 1765.30 3051.40 1765.30 3048.80 L 1765.60 2899.80 L 1764.40 2469.00 C 1764.40 2465.90 1766.00 2464.30 1769.10 2464.20 L 1860.80 2462.70 Z" fill="#ffcbb6" fill-rule="nonzero" node-id="284" stroke="none" target-height="685.19995" target-width="483.40002" target-x="1764.4" target-y="2462.7"></path><path d="M 1990.50 2743.20 C 1989.70 2744.30 1988.70 2744.90 1987.60 2744.80 C 1985.20 2744.70 1984.10 2743.40 1984.10 2741.10 C 1983.40 2688.80 1978.70 2605.10 2003.60 2563.00 C 2048.40 2487.20 2163.80 2494.40 2195.70 2577.40 C 2210.60 2616.40 2208.20 2692.70 2205.10 2737.50 C 2204.90 2740.30 2203.10 2742.70 2200.40 2743.60 C 2136.50 2764.90 2052.10 2755.70 1990.50 2743.20 Z" fill="#fff0db" fill-rule="nonzero" node-id="286" stroke="none" target-height="277.69995" target-width="231.90015" target-x="1978.7" target-y="2487.2"></path><path d="M 1022.50 2554.40 L 1083.20 2736.40 L 1127.50 2877.60 L 1088.60 2921.30 C 1059.50 2962.20 1044.10 3008.40 1042.30 3059.90 L 1019.40 3193.00 C 1018.30 3199.80 1014.30 3203.30 1007.30 3203.50 L 908.90 3207.00 L 892.70 2775.70 C 892.60 2773.00 891.20 2771.40 888.40 2771.10 C 882.30 2770.20 876.40 2770.60 870.80 2772.30 C 870.30 2740.00 871.30 2707.60 873.80 2675.00 C 874.80 2661.70 882.80 2652.50 892.50 2645.30 C 925.40 2620.90 968.70 2590.60 1022.50 2554.40 Z" fill="#ffc791" fill-rule="nonzero" node-id="288" stroke="none" target-height="652.6001" target-width="257.2" target-x="870.3" target-y="2554.4"></path><path d="M 635.20 2654.00 C 636.30 2673.90 634.50 2693.60 639.60 2713.70 C 662.00 2801.80 685.50 2889.70 710.30 2977.60 L 771.50 3210.40 L 808.90 3357.70 C 779.10 3360.70 747.80 3361.80 715.00 3360.90 C 685.70 3360.20 682.00 3346.00 677.10 3320.90 C 662.40 3245.50 648.10 3170.00 634.10 3094.50 C 633.70 3092.20 632.30 3091.00 630.00 3091.00 C 619.80 3090.90 610.50 3093.90 602.30 3100.20 C 600.50 3101.60 598.40 3102.50 596.10 3102.80 C 552.50 3108.50 488.20 3116.30 447.30 3097.70 C 499.00 2943.70 547.40 2789.10 592.70 2633.70 C 598.10 2615.40 600.30 2604.40 612.00 2586.10 C 613.60 2583.60 617.00 2582.80 619.50 2584.40 C 621.50 2585.70 622.50 2588.10 621.90 2590.40 C 615.40 2614.50 619.80 2635.80 635.20 2654.00 Z" fill="#f8edf2" fill-rule="nonzero" node-id="290" stroke="none" target-height="779" target-width="361.60004" target-x="447.3" target-y="2582.8"></path><path d="M 779.00 2736.60 C 779.00 2831.90 779.70 2909.40 781.10 2969.30 C 782.00 3006.60 788.70 3046.70 801.00 3089.60 C 795.00 3112.90 792.40 3139.00 793.10 3167.80 C 793.40 3181.80 791.60 3196.00 791.10 3210.10 L 771.40 3210.30 L 710.20 2977.50 C 717.30 2973.30 721.50 2968.20 722.90 2962.10 C 739.80 2887.40 758.40 2812.20 779.00 2736.60 Z" fill="#fa8a62" fill-rule="nonzero" node-id="292" stroke="none" target-height="473.69995" target-width="90.79999" target-x="710.2" target-y="2736.6"></path><path d="M 909.00 3207.10 L 791.10 3210.10 C 791.60 3196.10 793.40 3181.90 793.10 3167.80 C 792.40 3139.00 795.00 3112.90 801.00 3089.60 C 831.90 2982.20 870.70 2890.30 871.00 2772.40 C 876.60 2770.70 882.40 2770.30 888.60 2771.20 C 891.30 2771.50 892.80 2773.10 892.90 2775.80 L 909.00 3207.10 Z" fill="#ff9967" fill-rule="nonzero" node-id="294" stroke="none" target-height="439.80005" target-width="117.900024" target-x="791.1" target-y="2770.3"></path><path d="M 1606.20 3049.50 C 1614.50 3084.90 1616.50 3122.90 1612.40 3163.50 C 1612.20 3165.70 1612.80 3167.80 1614.10 3169.60 C 1618.80 3176.10 1619.30 3182.70 1615.60 3189.60 C 1614.20 3192.20 1613.50 3195.00 1613.50 3197.90 C 1613.70 3296.40 1614.50 3394.80 1615.80 3493.20 C 1615.90 3505.70 1611.70 3511.90 1603.10 3511.80 C 1597.30 3511.70 1592.70 3506.90 1592.70 3501.10 L 1593.90 3206.70 C 1593.90 3205.00 1592.60 3203.70 1590.90 3203.70 C 1590.70 3203.70 1590.50 3203.70 1590.20 3203.80 C 1530.40 3217.50 1534.20 3257.00 1533.00 3314.00 C 1531.70 3379.90 1530.40 3446.20 1529.10 3513.10 L 1494.50 3506.60 C 1444.20 3498.60 1397.70 3492.60 1348.30 3473.50 C 1201.90 3416.70 1058.50 3391.50 924.20 3496.10 C 732.70 3419.30 565.30 3306.90 422.10 3158.90 L 425.50 3156.30 C 427.40 3154.80 428.80 3152.80 429.50 3150.50 L 447.20 3097.70 C 488.10 3116.30 552.40 3108.50 596.00 3102.80 C 598.30 3102.50 600.40 3101.60 602.20 3100.20 C 610.40 3093.90 619.70 3090.90 629.90 3091.00 C 632.20 3091.00 633.60 3092.20 634.00 3094.50 C 648.00 3170.10 662.30 3245.60 677.00 3320.90 C 681.90 3346.00 685.60 3360.20 714.90 3360.90 C 747.70 3361.80 779.00 3360.70 808.80 3357.70 L 1117.80 3357.30 L 1448.60 3359.00 C 1452.50 3359.00 1455.70 3355.90 1455.70 3352.00 L 1455.70 3352.00 L 1456.30 3065.20 L 1457.30 2932.40 L 1459.70 2802.30 C 1459.70 2799.80 1461.00 2797.50 1463.10 2796.10 C 1479.50 2785.20 1497.70 2780.70 1517.70 2782.60 C 1520.00 2782.80 1521.80 2784.80 1521.80 2787.10 C 1522.20 2874.70 1514.70 2971.10 1525.00 3057.10 C 1525.30 3059.50 1527.30 3061.20 1529.70 3061.10 C 1536.00 3060.90 1540.80 3056.00 1540.90 3049.30 C 1542.30 2962.40 1543.30 2876.10 1543.80 2790.30 C 1543.80 2786.20 1545.90 2784.60 1549.90 2785.70 C 1577.80 2793.00 1591.70 2809.60 1591.60 2835.50 C 1591.30 2894.30 1591.80 2952.90 1593.40 3011.50 C 1593.80 3030.10 1598.10 3042.70 1606.20 3049.50 Z" fill="#ffdfc3" fill-rule="nonzero" node-id="296" stroke="none" target-height="732.40015" target-width="1197.2001" target-x="422.1" target-y="2780.7"></path><path d="M 1652.80 2875.60 L 1656.20 3192.80 C 1656.20 3195.10 1657.10 3196.90 1658.80 3198.20 C 1663.90 3202.30 1666.50 3208.20 1666.50 3216.10 C 1667.30 3321.40 1667.20 3409.60 1666.10 3480.70 C 1666.00 3484.20 1667.60 3485.50 1671.00 3484.50 L 1680.60 3481.70 C 1682.50 3481.10 1683.80 3479.40 1683.80 3477.40 L 1681.10 3225.00 C 1681.10 3220.20 1685.00 3216.20 1689.80 3216.20 C 1690.50 3216.20 1691.30 3216.30 1692.00 3216.50 C 1728.50 3225.70 1727.70 3254.50 1729.60 3291.00 C 1733.30 3364.30 1728.90 3409.00 1731.40 3462.60 C 1731.60 3467.00 1733.60 3468.10 1737.30 3465.80 C 1740.50 3463.80 1743.80 3463.60 1747.20 3465.20 C 1750.50 3466.90 1752.10 3465.90 1752.10 3462.20 L 1752.00 3306.20 C 1752.00 3298.50 1758.20 3292.20 1765.90 3292.20 C 1768.10 3292.20 1770.30 3292.70 1772.30 3293.70 C 1802.70 3309.10 1807.90 3328.00 1808.60 3362.60 C 1809.30 3393.80 1810.80 3425.70 1813.00 3458.30 C 1786.00 3474.10 1763.10 3483.90 1744.20 3487.70 C 1700.40 3496.40 1656.40 3504.70 1612.40 3512.50 C 1600.30 3514.70 1572.60 3514.90 1529.10 3513.10 C 1530.40 3446.20 1531.70 3379.90 1533.00 3314.00 C 1534.20 3257.00 1530.40 3217.50 1590.20 3203.80 C 1591.80 3203.40 1593.40 3204.50 1593.80 3206.10 C 1593.80 3206.30 1593.90 3206.50 1593.90 3206.80 L 1592.70 3501.20 C 1592.70 3507.00 1597.30 3511.70 1603.10 3511.90 C 1611.70 3512.00 1616.00 3505.80 1615.80 3493.30 C 1614.50 3394.90 1613.70 3296.50 1613.50 3198.00 C 1613.50 3195.10 1614.20 3192.30 1615.60 3189.70 C 1619.20 3182.80 1618.70 3176.20 1614.10 3169.70 C 1612.80 3167.90 1612.20 3165.80 1612.40 3163.60 C 1616.60 3123.10 1614.50 3085.10 1606.20 3049.60 L 1611.10 2833.50 C 1611.10 2830.50 1612.60 2829.60 1615.40 2830.90 C 1634.90 2839.80 1647.30 2854.70 1652.80 2875.60 Z" fill="#ffcd82" fill-rule="nonzero" node-id="298" stroke="none" target-height="685.2998" target-width="283.90002" target-x="1529.1" target-y="2829.6"></path><path d="M 1652.80 2875.60 C 1661.20 2880.60 1668.00 2882.80 1673.10 2882.10 C 1700.30 2878.40 1731.10 2884.40 1765.60 2900.00 L 1765.30 3049.00 C 1765.30 3051.50 1766.30 3053.70 1768.20 3055.50 C 1790.40 3076.10 1806.60 3100.40 1816.70 3128.40 C 1828.60 3165.00 1851.40 3181.40 1885.20 3177.70 L 1865.50 3198.70 C 1863.80 3200.50 1863.00 3202.70 1863.10 3205.20 C 1867.10 3279.00 1865.00 3355.00 1856.70 3433.00 L 1813.00 3458.30 C 1810.70 3425.70 1809.30 3393.80 1808.60 3362.60 C 1807.90 3328.00 1802.60 3309.10 1772.30 3293.70 C 1765.40 3290.20 1757.00 3293.00 1753.50 3299.80 C 1752.50 3301.80 1752.00 3304.00 1752.00 3306.20 L 1752.10 3462.20 C 1752.10 3465.90 1750.50 3466.90 1747.20 3465.20 C 1743.90 3463.60 1740.60 3463.80 1737.30 3465.80 C 1733.60 3468.10 1731.60 3467.00 1731.40 3462.60 C 1728.90 3409.00 1733.30 3364.30 1729.60 3291.00 C 1727.70 3254.50 1728.40 3225.60 1692.00 3216.50 C 1687.30 3215.30 1682.60 3218.20 1681.40 3222.90 C 1681.20 3223.60 1681.10 3224.30 1681.10 3225.10 L 1683.80 3477.50 C 1683.80 3479.50 1682.50 3481.30 1680.60 3481.80 L 1671.00 3484.60 C 1667.60 3485.60 1666.00 3484.30 1666.10 3480.80 C 1667.20 3409.70 1667.40 3321.50 1666.50 3216.20 C 1666.50 3208.30 1663.90 3202.30 1658.80 3198.30 C 1657.00 3196.90 1656.20 3195.10 1656.20 3192.90 L 1652.80 2875.60 Z" fill="#ffdfc3" fill-rule="nonzero" node-id="300" stroke="none" target-height="610" target-width="232.3999" target-x="1652.8" target-y="2875.6"></path><path d="M 1457.30 2932.40 L 1456.30 3065.20 C 1452.20 3066.00 1451.10 3066.90 1452.80 3067.80 C 1437.80 3064.50 1422.70 3060.90 1407.20 3061.00 C 1285.40 3061.30 1163.70 3061.00 1042.20 3060.00 C 1044.00 3008.50 1059.50 2962.30 1088.50 2921.40 C 1093.10 2921.30 1096.20 2922.40 1097.80 2924.80 C 1099.30 2926.90 1100.70 2926.90 1102.10 2924.70 C 1102.90 2923.50 1102.70 2922.40 1101.50 2921.50 C 1100.30 2920.50 1100.10 2918.80 1101.10 2917.60 C 1101.70 2916.90 1102.60 2916.50 1103.50 2916.50 C 1114.10 2917.00 1123.20 2914.00 1130.80 2907.40 C 1133.00 2905.50 1135.00 2905.50 1137.00 2907.50 C 1154.90 2924.60 1189.50 2907.90 1211.60 2910.10 C 1238.40 2912.80 1265.00 2916.20 1291.50 2920.40 C 1328.80 2926.20 1371.20 2925.30 1411.20 2932.90 C 1422.70 2935.10 1427.70 2941.80 1426.10 2952.90 C 1425.80 2955.40 1427.30 2957.80 1429.70 2958.60 C 1437.90 2961.10 1444.50 2965.90 1449.30 2972.90 C 1449.70 2973.40 1450.40 2973.50 1450.90 2973.20 C 1451.10 2973.00 1451.30 2972.80 1451.30 2972.50 L 1451.70 2969.60 C 1451.90 2968.20 1452.30 2968.10 1453.00 2969.40 C 1453.40 2970.20 1454.00 2971.00 1454.50 2971.80 C 1455.10 2972.60 1455.50 2972.50 1455.50 2971.40 L 1457.30 2932.40 Z" fill="#f8edf2" fill-rule="nonzero" node-id="302" stroke="none" target-height="162.30005" target-width="415.1001" target-x="1042.2" target-y="2905.5"></path><path d="M 2539.10 3068.60 C 2536.30 3072.30 2534.70 3076.10 2534.20 3080.10 C 2533.90 3082.40 2533.00 3084.50 2531.50 3086.30 C 2468.70 3157.60 2400.70 3223.60 2327.50 3284.30 C 2324.00 3287.20 2315.60 3291.60 2302.40 3297.40 C 2263.00 3242.60 2195.00 3192.30 2126.90 3194.30 C 2036.80 3196.90 1987.80 3279.00 1942.70 3351.00 C 1922.30 3383.60 1893.60 3410.90 1856.80 3433.00 C 1865.10 3354.90 1867.20 3279.00 1863.20 3205.20 C 1863.10 3202.70 1863.80 3200.50 1865.60 3198.70 L 1885.30 3177.70 C 1931.70 3180.40 1994.60 3140.10 2027.30 3126.20 C 2078.90 3103.80 2125.90 3110.60 2168.50 3146.50 C 2170.90 3148.50 2174.40 3148.30 2176.50 3145.90 C 2177.30 3145.00 2177.80 3143.90 2177.90 3142.70 C 2182.00 3093.30 2205.30 3060.60 2247.90 3044.60 L 2291.40 3033.10 C 2292.80 3032.70 2294.40 3032.70 2295.80 3033.20 L 2357.40 3052.60 C 2362.30 3054.10 2367.60 3052.80 2371.10 3049.10 C 2428.60 2989.90 2489.80 3017.10 2539.10 3068.60 Z" fill="#f8edf2" fill-rule="nonzero" node-id="304" stroke="none" target-height="443.1001" target-width="682.30005" target-x="1856.8" target-y="2989.9"></path><path d="M 1452.90 3067.80 C 1375.50 3104.10 1277.70 3147.80 1159.70 3199.00 C 1146.90 3204.50 1134.80 3207.70 1123.60 3208.30 C 1121.30 3208.40 1120.40 3209.60 1120.70 3211.80 C 1124.00 3234.60 1113.60 3265.10 1118.20 3283.20 C 1125.00 3309.50 1124.90 3334.20 1117.90 3357.20 L 808.90 3357.60 L 771.50 3210.30 L 791.20 3210.10 L 909.10 3207.10 L 1007.50 3203.60 C 1014.40 3203.40 1018.40 3199.90 1019.60 3193.10 L 1042.50 3060.00 C 1164.00 3061.00 1285.70 3061.40 1407.50 3061.00 C 1422.70 3060.90 1437.90 3064.50 1452.90 3067.80 Z" fill="#f3e1df" fill-rule="nonzero" node-id="306" stroke="none" target-height="297.6001" target-width="681.4" target-x="771.5" target-y="3060"></path><path d="M 1456.30 3065.20 L 1455.70 3352.00 C 1455.70 3355.90 1452.50 3359.00 1448.60 3359.00 L 1448.60 3359.00 L 1117.80 3357.30 C 1124.80 3334.30 1124.90 3309.60 1118.10 3283.30 C 1113.50 3265.20 1123.90 3234.70 1120.60 3211.90 C 1120.30 3209.70 1121.20 3208.50 1123.50 3208.40 C 1134.70 3207.70 1146.80 3204.60 1159.60 3199.10 C 1277.60 3148.00 1375.40 3104.30 1452.80 3067.90 C 1451.10 3066.90 1452.30 3066.00 1456.30 3065.20 Z" fill="#cbd4e7" fill-rule="nonzero" node-id="308" stroke="none" target-height="293.80005" target-width="342.80005" target-x="1113.5" target-y="3065.2"></path><path d="M 2027.20 3126.10 C 1994.40 3140.00 1931.50 3180.40 1885.20 3177.60 C 1851.40 3181.30 1828.50 3164.80 1816.70 3128.30 C 1887.70 3122.20 1956.60 3123.90 2027.20 3126.10 Z" fill="#fa8a62" fill-rule="nonzero" node-id="310" stroke="none" target-height="59.100098" target-width="210.5" target-x="1816.7" target-y="3122.2"></path><path d="M 2302.30 3297.30 C 2301.70 3300.40 2300.30 3302.80 2298.10 3304.40 C 2013.30 3521.70 1649.60 3631.00 1290.40 3587.50 C 1335.00 3557.30 1382.30 3536.00 1432.40 3523.70 C 1444.00 3520.90 1455.70 3518.60 1467.70 3516.80 C 1470.10 3516.50 1472.30 3515.60 1474.20 3514.20 C 1480.20 3509.80 1487.00 3507.20 1494.60 3506.60 L 1529.20 3513.10 C 1572.70 3514.90 1600.40 3514.70 1612.50 3512.50 C 1656.60 3504.70 1700.50 3496.40 1744.30 3487.70 C 1763.20 3483.90 1786.10 3474.10 1813.10 3458.30 L 1856.80 3433.00 C 1893.60 3410.90 1922.20 3383.50 1942.70 3351.00 C 1987.80 3279.00 2036.80 3197.00 2126.90 3194.30 C 2194.90 3192.20 2262.90 3242.50 2302.30 3297.30 Z" fill="#ff9967" fill-rule="nonzero" node-id="312" stroke="none" target-height="438.80005" target-width="1011.9" target-x="1290.4" target-y="3192.2"></path><path d="M 1494.50 3506.50 C 1486.90 3507.20 1480.10 3509.70 1474.10 3514.10 C 1472.20 3515.50 1470.00 3516.40 1467.60 3516.70 C 1455.60 3518.50 1443.90 3520.80 1432.30 3523.60 C 1382.30 3536.00 1334.90 3557.20 1290.30 3587.40 C 1190.00 3577.20 1087.80 3554.70 983.60 3520.10 C 973.80 3516.80 954.00 3508.80 924.10 3495.90 C 1058.30 3391.20 1201.80 3416.50 1348.20 3473.30 C 1397.70 3492.60 1444.20 3498.50 1494.50 3506.50 Z" fill="#f7a597" fill-rule="nonzero" node-id="314" stroke="none" target-height="196.19995" target-width="570.4" target-x="924.1" target-y="3391.2"></path></svg>