<?xml version="1.0" standalone="no"?><!DOCTYPE svg PUBLIC "-//W3C//DTD SVG 1.1//EN" "http://www.w3.org/Graphics/SVG/1.1/DTD/svg11.dtd"><svg height="3849" node-id="1" sillyvg="true" template-height="3849" template-width="2903" version="1.1" viewBox="0 0 2903 3849" width="2903" xmlns="http://www.w3.org/2000/svg" xmlns:xlink="http://www.w3.org/1999/xlink"><defs node-id="88"></defs><path d="M 1978.20 830.90 C 1948.00 832.90 1911.90 833.50 1869.80 833.00 C 1861.30 832.90 1857.20 836.50 1857.30 844.00 C 1857.30 846.40 1856.60 848.50 1855.20 850.40 L 1796.10 928.10 C 1791.50 923.70 1787.40 923.20 1784.00 926.50 C 1778.60 931.70 1777.80 938.20 1781.60 945.90 C 1771.80 959.40 1764.40 970.60 1749.50 979.70 C 1715.10 1000.80 1681.40 1023.20 1648.70 1046.80 C 1648.10 1047.30 1647.30 1047.40 1646.60 1047.20 C 1645.90 1047.00 1645.10 1046.70 1644.40 1046.30 C 1642.10 1045.20 1640.50 1045.90 1639.60 1048.40 L 1636.60 1057.70 C 1636.20 1058.80 1636.00 1058.80 1635.90 1057.60 C 1635.70 1055.40 1635.00 1054.10 1634.10 1053.70 C 1632.30 1053.00 1631.40 1053.60 1631.30 1055.50 L 1629.30 1129.50 L 1631.50 419.40 C 1631.50 414.50 1634.00 412.00 1638.90 412.00 L 1780.20 412.40 C 1782.80 412.40 1784.10 411.10 1784.00 408.50 C 1783.20 305.60 1783.90 216.90 1785.90 142.40 C 1786.10 133.30 1787.70 121.80 1790.70 107.90 C 1791.30 105.30 1792.90 104.00 1795.60 103.90 L 1820.50 103.80 C 1829.30 103.80 1833.70 108.10 1833.70 116.90 L 1835.80 824.30 C 1835.80 827.80 1837.50 829.50 1841.00 829.50 L 1978.20 830.90 Z M 1762.20 682.40 C 1762.20 679.40 1759.80 676.90 1756.80 676.90 L 1747.70 676.80 C 1744.70 676.80 1742.20 679.20 1742.20 682.20 L 1741.70 734.40 C 1741.70 737.40 1744.10 739.90 1747.10 739.90 L 1756.20 740.00 C 1759.20 740.00 1761.70 737.60 1761.70 734.60 L 1762.20 682.40 Z M 1709.30 700.50 L 1696.50 700.10 C 1694.40 700.00 1692.70 701.60 1692.60 703.70 C 1692.60 703.70 1692.60 703.80 1692.60 703.80 L 1692.50 706.60 C 1691.80 728.20 1695.00 745.90 1699.60 746.10 L 1703.10 746.20 C 1707.70 746.40 1712.00 729.00 1712.70 707.30 C 1712.70 707.30 1712.70 707.20 1712.70 707.20 L 1712.80 704.40 C 1712.90 702.30 1711.40 700.60 1709.30 700.50 Z" fill="#ffc9b0" fill-rule="nonzero" node-id="90" stroke="none" target-height="1025.7" target-width="348.8999" target-x="1629.3" target-y="103.8"></path><path d="M 1747.70 676.90 L 1756.80 677.00 C 1759.80 677.00 1762.20 679.50 1762.20 682.50 L 1761.70 734.70 C 1761.70 737.70 1759.20 740.10 1756.20 740.10 L 1747.10 740.00 C 1744.10 740.00 1741.70 737.50 1741.70 734.50 L 1742.20 682.30 C 1742.20 679.20 1744.70 676.80 1747.70 676.90 Z" fill="#feffff" fill-rule="nonzero" node-id="92" stroke="none" target-height="63.299988" target-width="20.5" target-x="1741.7" target-y="676.8"></path><path d="M 1709.30 700.50 C 1711.30 700.60 1712.90 702.30 1712.90 704.30 L 1712.80 707.10 C 1712.10 728.80 1707.80 746.30 1703.20 746.10 C 1703.20 746.10 1703.20 746.10 1703.20 746.10 L 1699.70 746.00 C 1695.10 745.80 1691.90 728.20 1692.60 706.50 L 1692.70 703.70 C 1692.70 701.60 1694.40 700.00 1696.50 700.00 C 1696.50 700.00 1696.60 700.00 1696.60 700.00 L 1709.30 700.50 Z" fill="#feffff" fill-rule="nonzero" node-id="94" stroke="none" target-height="46.299988" target-width="21" target-x="1691.9" target-y="700"></path><path d="M 1978.20 830.90 L 2050.20 833.00 C 2053.10 833.10 2054.60 834.60 2054.70 837.50 L 2058.70 935.10 C 2051.00 912.90 2019.10 916.80 2000.70 922.10 C 1991.00 924.90 1982.20 930.90 1974.30 939.90 C 1872.60 1056.30 1797.00 1209.80 1781.60 1365.70 C 1730.20 1370.70 1679.80 1386.60 1630.30 1413.30 L 1629.40 1129.70 L 1631.40 1055.70 C 1631.40 1053.70 1632.40 1053.10 1634.20 1053.90 C 1635.20 1054.30 1635.80 1055.60 1636.00 1057.80 C 1636.10 1058.90 1636.30 1058.90 1636.70 1057.90 L 1639.70 1048.60 C 1640.50 1046.20 1642.10 1045.50 1644.50 1046.50 C 1645.20 1046.90 1646.00 1047.20 1646.70 1047.40 C 1647.40 1047.60 1648.20 1047.40 1648.80 1047.00 C 1681.60 1023.30 1715.20 1000.90 1749.60 979.90 C 1764.40 970.80 1771.80 959.60 1781.70 946.10 C 1794.20 949.10 1797.80 938.40 1796.20 928.30 L 1855.30 850.60 C 1856.70 848.70 1857.40 846.60 1857.40 844.20 C 1857.30 836.70 1861.40 833.00 1869.90 833.20 C 1911.90 833.50 1948.00 832.80 1978.20 830.90 Z" fill="#ffbf9a" fill-rule="nonzero" node-id="96" stroke="none" target-height="582.4" target-width="429.29993" target-x="1629.4" target-y="830.9"></path><path d="M 2433.00 1562.30 L 2432.90 1827.30 C 2390.80 1789.40 2345.40 1758.30 2296.70 1734.00 C 2294.60 1733.00 2293.00 1731.20 2292.00 1729.10 C 2289.60 1723.60 2288.00 1718.10 2287.10 1712.70 C 2286.30 1708.10 2284.90 1705.00 2283.00 1703.50 C 2281.00 1702.00 2278.50 1701.50 2275.60 1702.00 C 2273.10 1702.40 2270.70 1701.10 2269.70 1698.80 C 2266.20 1691.10 2266.60 1683.80 2270.90 1676.90 C 2272.00 1675.10 2272.50 1673.10 2272.40 1671.00 C 2266.20 1524.70 2272.30 1378.60 2273.40 1232.20 C 2273.50 1221.30 2272.60 1212.50 2270.70 1205.90 C 2269.80 1202.90 2270.90 1200.90 2273.90 1200.00 L 2276.50 1199.20 C 2279.50 1198.20 2281.20 1199.30 2281.60 1202.50 C 2286.10 1238.30 2287.50 1265.90 2286.00 1285.40 C 2280.90 1349.20 2285.90 1404.90 2284.00 1464.20 C 2284.00 1466.50 2284.70 1468.50 2286.30 1470.10 L 2289.30 1473.00 C 2290.90 1474.50 2293.40 1474.50 2294.90 1473.00 C 2295.60 1472.30 2296.00 1471.40 2296.00 1470.40 C 2300.20 1380.10 2292.30 1302.90 2292.60 1201.40 C 2292.60 1198.70 2294.70 1196.50 2297.40 1196.40 L 2355.50 1193.80 C 2357.70 1193.70 2359.40 1191.90 2359.40 1189.80 L 2359.40 911.40 C 2359.40 909.70 2360.20 908.60 2361.70 908.10 C 2362.50 907.80 2363.40 907.50 2364.30 907.20 C 2365.60 906.80 2366.30 907.20 2366.30 908.70 L 2367.50 1327.70 C 2367.50 1332.40 2371.20 1336.20 2375.90 1336.40 L 2422.70 1338.30 C 2429.20 1338.50 2432.40 1341.90 2432.50 1348.40 L 2433.00 1562.30 Z" fill="#ffdcc3" fill-rule="nonzero" node-id="98" stroke="none" target-height="920.50006" target-width="166.80005" target-x="2266.2" target-y="906.8"></path><path d="M 2058.60 935.10 L 2057.00 1573.80 C 2057.00 1576.30 2055.90 1578.20 2053.60 1579.50 L 2014.30 1600.80 C 2012.70 1601.70 2010.60 1601.10 2009.70 1599.50 C 2009.40 1599.00 2009.30 1598.50 2009.30 1597.90 C 2009.30 1562.30 2008.80 1526.30 2007.70 1489.80 C 2007.60 1485.20 2006.30 1481.60 2004.00 1479.20 C 2001.40 1476.60 1997.20 1476.60 1994.60 1479.30 C 1993.40 1480.50 1992.70 1482.20 1992.70 1483.90 L 1992.70 1610.30 C 1992.70 1612.70 1991.60 1614.90 1989.80 1616.40 C 1973.00 1629.80 1960.30 1646.40 1951.80 1666.20 C 1951.20 1667.50 1949.70 1668.10 1948.40 1667.50 C 1947.50 1667.10 1946.90 1666.20 1946.90 1665.20 C 1947.00 1619.60 1946.90 1573.30 1946.70 1526.50 C 1946.70 1518.70 1941.60 1513.00 1931.50 1509.40 C 1916.90 1458.30 1886.60 1417.10 1840.60 1386.00 C 1822.80 1373.90 1802.60 1370.10 1781.60 1365.80 C 1797.00 1209.90 1872.60 1056.40 1974.30 940.00 C 1982.20 930.90 1991.00 925.00 2000.70 922.20 C 2019.10 916.80 2050.90 912.90 2058.60 935.10 Z" fill="#ffad7f" fill-rule="nonzero" node-id="100" stroke="none" target-height="755.19995" target-width="277.00012" target-x="1781.6" target-y="912.9"></path><path d="M 1796.10 928.00 C 1797.60 938.10 1794.10 948.80 1781.60 945.80 C 1777.80 938.00 1778.60 931.50 1784.00 926.40 C 1787.40 923.10 1791.50 923.70 1796.10 928.00 Z" fill="#ffe6d5" fill-rule="nonzero" node-id="102" stroke="none" target-height="25.700012" target-width="19.799927" target-x="1777.8" target-y="923.1"></path><path d="M 2246.80 1201.50 L 2255.20 1201.50 C 2256.50 1201.50 2257.50 1202.60 2257.50 1203.90 L 2256.70 1676.40 C 2256.70 1677.70 2255.60 1678.70 2254.30 1678.70 L 2245.90 1678.70 C 2244.60 1678.70 2243.60 1677.60 2243.60 1676.30 L 2244.40 1203.80 C 2244.50 1202.60 2245.50 1201.50 2246.80 1201.50 Z" fill="#ffe6d5" fill-rule="nonzero" node-id="104" stroke="none" target-height="477.19995" target-width="13.899902" target-x="2243.6" target-y="1201.5"></path><path d="M 2209.10 1459.00 C 2208.40 1422.40 2209.20 1390.20 2211.40 1362.60 C 2212.10 1354.50 2217.70 1345.10 2218.10 1334.70 C 2219.70 1295.30 2220.50 1255.80 2220.50 1216.30 C 2220.50 1213.30 2221.00 1211.00 2222.10 1209.40 C 2222.90 1208.30 2223.90 1207.40 2225.00 1206.70 C 2227.30 1205.10 2228.50 1205.70 2228.40 1208.60 C 2226.30 1289.00 2226.60 1369.50 2225.00 1449.80 C 2223.50 1524.40 2228.60 1601.90 2218.80 1675.80 C 2218.50 1677.40 2217.00 1678.40 2215.40 1678.10 C 2214.10 1677.90 2213.20 1676.80 2213.00 1675.60 C 2208.90 1603.30 2210.40 1533.10 2209.10 1459.00 Z" fill="#ffe6d5" fill-rule="nonzero" node-id="106" stroke="none" target-height="473.30005" target-width="20.200195" target-x="2208.4" target-y="1205.1"></path><path d="M 2177.70 1352.20 L 2179.50 1354.10 C 2179.80 1354.40 2179.90 1354.90 2179.80 1355.30 L 2163.30 1425.90 C 2163.20 1426.40 2162.70 1426.80 2162.10 1426.90 L 2149.60 1426.90 C 2148.90 1426.90 2148.30 1426.30 2148.30 1425.70 C 2148.30 1425.50 2148.30 1425.40 2148.40 1425.30 L 2175.60 1352.80 C 2175.80 1352.10 2176.50 1351.80 2177.20 1352.00 C 2177.30 1351.90 2177.50 1352.00 2177.70 1352.20 Z" fill="#ff9481" fill-rule="nonzero" node-id="108" stroke="none" target-height="75.099976" target-width="31.599854" target-x="2148.3" target-y="1351.8"></path><path d="M 1781.50 1365.70 C 1802.50 1370.00 1822.70 1373.80 1840.50 1385.90 C 1886.50 1417.10 1916.80 1458.20 1931.40 1509.30 C 1925.50 1515.80 1922.60 1525.30 1922.70 1538.10 C 1898.80 1541.70 1879.40 1540.00 1864.40 1533.00 C 1835.90 1519.90 1813.60 1524.90 1788.60 1513.30 C 1787.90 1513.00 1787.20 1512.90 1786.50 1512.90 L 1723.90 1517.10 C 1721.40 1517.30 1719.10 1518.20 1717.20 1519.80 C 1702.70 1532.30 1685.70 1536.50 1666.20 1532.30 C 1664.40 1531.90 1662.50 1532.00 1660.80 1532.60 L 1488.50 1589.90 C 1485.50 1554.00 1495.00 1526.20 1517.20 1506.20 C 1551.30 1466.50 1589.00 1435.50 1630.20 1413.10 C 1679.70 1386.60 1730.20 1370.70 1781.50 1365.70 Z M 1707.40 1472.50 L 1718.20 1500.50 C 1718.50 1501.30 1719.40 1501.70 1720.30 1501.40 L 1721.50 1501.00 C 1727.10 1498.80 1729.30 1491.20 1726.40 1483.80 L 1724.70 1479.50 C 1721.90 1472.20 1715.10 1468.00 1709.50 1470.10 L 1708.30 1470.50 C 1707.50 1470.80 1707.10 1471.70 1707.40 1472.50 Z M 1684.30 1480.80 C 1678.60 1479.10 1677.20 1480.80 1680.20 1485.90 L 1690.10 1503.40 C 1691.10 1505.30 1693.50 1506.00 1695.40 1504.90 C 1696.50 1504.30 1697.20 1503.20 1697.40 1501.90 C 1698.80 1491.00 1694.40 1483.90 1684.30 1480.80 Z" fill="#ffa491" fill-rule="nonzero" node-id="110" stroke="none" target-height="224.20007" target-width="445.90002" target-x="1485.5" target-y="1365.7"></path><path d="M 2119.60 1480.60 C 2130.20 1459.60 2133.40 1428.80 2167.40 1443.80 C 2169.40 1444.70 2170.70 1446.70 2170.70 1448.90 L 2170.70 1477.70 C 2170.70 1480.50 2168.50 1482.90 2165.60 1483.10 L 2122.70 1485.40 C 2120.90 1485.50 2119.40 1484.20 2119.30 1482.30 C 2119.20 1481.70 2119.30 1481.10 2119.60 1480.60 Z" fill="#ff9481" fill-rule="nonzero" node-id="112" stroke="none" target-height="56.69995" target-width="51.5" target-x="2119.2" target-y="1428.8"></path><path d="M 1707.40 1472.50 C 1707.10 1471.70 1707.50 1470.80 1708.30 1470.40 L 1709.50 1470.00 C 1715.10 1467.90 1721.90 1472.10 1724.70 1479.40 L 1726.40 1483.70 C 1729.20 1491.00 1727.00 1498.70 1721.50 1500.90 L 1720.30 1501.30 C 1719.50 1501.60 1718.60 1501.20 1718.20 1500.40 L 1707.40 1472.50 Z" fill="#feffff" fill-rule="nonzero" node-id="114" stroke="none" target-height="33.69995" target-width="22.099976" target-x="1707.1" target-y="1467.9"></path><path d="M 1684.30 1480.80 C 1694.40 1483.90 1698.80 1490.90 1697.40 1501.90 C 1697.20 1504.00 1695.20 1505.60 1693.10 1505.30 C 1691.80 1505.20 1690.70 1504.40 1690.10 1503.30 L 1680.20 1485.80 C 1677.20 1480.80 1678.60 1479.10 1684.30 1480.80 Z" fill="#feffff" fill-rule="nonzero" node-id="116" stroke="none" target-height="26.5" target-width="21.600098" target-x="1677.2" target-y="1479.1"></path><path d="M 1517.20 1506.40 C 1495.00 1526.30 1485.50 1554.20 1488.50 1590.10 L 1488.40 1731.40 L 1488.30 1834.40 C 1488.30 1841.50 1491.90 1845.10 1499.00 1845.10 L 1578.20 1845.10 C 1580.90 1845.10 1582.30 1846.40 1582.30 1849.10 L 1585.30 2181.20 C 1585.50 2176.40 1584.90 2177.40 1583.50 2184.40 C 1583.30 2185.60 1583.20 2186.80 1583.20 2188.10 C 1585.40 2275.80 1586.10 2362.70 1585.20 2448.80 C 1585.20 2454.30 1588.10 2459.50 1592.80 2462.20 L 1643.50 2491.50 C 1666.20 2504.10 1686.60 2522.60 1704.70 2547.10 C 1706.30 2549.20 1708.30 2549.80 1710.70 2548.80 L 1792.20 2515.90 C 1797.10 2520.00 1799.80 2517.00 1800.30 2507.10 C 1807.70 2504.90 1815.70 2504.70 1824.30 2506.60 C 2049.30 2506.60 2156.70 2744.20 2153.60 2936.10 C 2149.10 2937.50 2146.40 2937.00 2145.20 2934.60 C 2096.90 2830.80 2024.30 2725.80 1905.80 2700.40 C 1768.00 2670.80 1687.20 2782.10 1640.20 2898.30 L 1608.20 2948.50 C 1606.90 2950.40 1605.00 2951.80 1602.70 2952.40 C 1572.40 2959.70 1469.90 2978.90 1456.20 2939.00 L 1454.70 2341.50 C 1454.70 2338.80 1453.50 2337.00 1451.00 2335.90 C 1445.80 2333.80 1439.20 2333.70 1431.30 2335.60 C 1421.60 2333.70 1413.90 2334.40 1408.30 2337.70 C 1396.20 2333.50 1388.00 2333.20 1383.60 2336.70 C 1377.50 2333.50 1373.00 2333.70 1369.90 2337.20 C 1368.00 2339.30 1367.10 2342.90 1367.10 2348.10 C 1367.10 2465.70 1367.40 2582.80 1367.80 2699.50 L 1362.80 2797.20 L 1360.10 2859.70 C 1359.80 2867.80 1352.90 2874.00 1344.70 2873.60 C 1342.20 2873.50 1339.80 2872.70 1337.60 2871.40 C 1337.10 2871.10 1335.90 2868.30 1334.20 2863.00 L 1331.70 2394.30 C 1331.70 2389.90 1329.70 2386.70 1326.00 2384.50 C 1316.80 2379.10 1312.20 2380.80 1312.30 2389.60 C 1308.90 2380.80 1301.60 2374.10 1290.40 2369.40 C 1284.00 2366.80 1276.50 2369.70 1274.30 2375.50 C 1272.80 2379.20 1268.70 2380.90 1265.00 2379.50 C 1262.40 2378.50 1260.60 2376.00 1260.50 2373.20 L 1257.90 2275.50 C 1257.80 2272.70 1255.50 2270.60 1252.80 2270.70 C 1252.60 2270.70 1252.30 2270.70 1252.10 2270.80 C 1245.60 2272.00 1239.70 2268.80 1234.40 2261.40 L 1230.40 2197.40 L 1226.70 2112.50 C 1226.60 2109.50 1225.00 2108.00 1221.90 2108.10 L 1148.10 2110.20 L 1036.90 2109.70 C 1034.50 2109.70 1033.30 2110.80 1033.30 2113.20 L 1030.70 2322.60 C 1030.60 2330.20 1024.40 2336.40 1016.80 2336.50 L 981.10 2336.90 C 974.60 2337.00 971.40 2340.30 971.40 2346.70 L 971.60 2561.00 C 959.50 2577.20 943.20 2589.50 922.80 2597.70 C 907.90 2603.70 898.60 2611.90 884.90 2618.80 C 716.60 2527.10 508.90 2558.30 368.00 2679.60 C 371.40 2654.70 348.60 2646.70 350.40 2623.00 C 374.10 2318.90 546.30 2065.80 842.60 1966.10 C 872.10 1956.20 929.80 1938.70 1015.90 1913.60 C 1088.20 1892.50 1132.20 1870.50 1170.00 1810.90 C 1220.20 1731.80 1256.60 1643.60 1291.90 1557.10 C 1302.40 1531.30 1322.60 1521.80 1352.30 1528.40 C 1354.40 1528.80 1356.60 1528.70 1358.60 1527.90 C 1395.90 1512.90 1435.30 1501.50 1476.00 1504.20 C 1490.30 1505.30 1504.00 1506.00 1517.20 1506.40 Z M 1403.80 1858.00 C 1403.80 1853.90 1400.50 1850.60 1396.40 1850.60 L 1396.40 1850.60 L 1391.60 1850.60 C 1387.50 1850.60 1384.20 1853.90 1384.20 1858.00 L 1384.20 1858.00 L 1384.20 2017.40 C 1384.20 2021.50 1387.50 2024.80 1391.60 2024.80 L 1396.40 2024.80 C 1400.50 2024.80 1403.80 2021.50 1403.80 2017.40 L 1403.80 1858.00 Z M 1334.00 1865.30 C 1334.00 1862.30 1331.50 1859.80 1328.50 1859.80 L 1328.50 1859.80 L 1321.20 1859.80 C 1318.20 1859.80 1315.70 1862.30 1315.70 1865.30 L 1315.70 1865.30 L 1316.00 2019.10 C 1316.00 2022.10 1318.50 2024.60 1321.50 2024.60 C 1321.50 2024.60 1321.50 2024.60 1321.50 2024.60 L 1328.80 2024.60 C 1331.80 2024.60 1334.30 2022.10 1334.30 2019.10 L 1334.30 2019.10 L 1334.00 1865.30 Z M 1215.00 1910.90 C 1215.00 1907.10 1211.90 1904.10 1208.20 1904.10 L 1208.20 1904.10 L 1207.30 1904.10 C 1203.50 1904.10 1200.50 1907.20 1200.50 1910.90 L 1200.50 1910.90 L 1200.50 1930.00 C 1200.50 1933.80 1203.60 1936.80 1207.30 1936.80 L 1207.30 1936.80 L 1208.20 1936.80 C 1212.00 1936.80 1215.00 1933.70 1215.00 1930.00 L 1215.00 1930.00 L 1215.00 1910.90 Z M 879.80 2146.60 C 884.60 2146.10 887.70 2138.50 886.70 2129.70 C 886.70 2129.70 886.70 2129.70 886.70 2129.70 C 885.70 2120.90 881.10 2114.20 876.30 2114.70 C 871.50 2115.20 868.40 2122.80 869.40 2131.60 C 869.40 2131.60 869.40 2131.60 869.40 2131.60 C 870.40 2140.40 875.00 2147.10 879.80 2146.60 Z M 1302.20 2272.70 C 1305.50 2272.30 1307.70 2268.20 1307.20 2263.50 C 1307.20 2263.50 1307.20 2263.50 1307.20 2263.50 C 1306.70 2258.70 1303.60 2255.20 1300.40 2255.50 C 1297.10 2255.90 1294.90 2260.00 1295.40 2264.70 C 1295.40 2264.70 1295.40 2264.70 1295.40 2264.70 C 1295.90 2269.50 1299.00 2273.00 1302.20 2272.70 Z" fill="#ffeee3" fill-rule="nonzero" node-id="118" stroke="none" target-height="1477.3999" target-width="1808.1" target-x="348.6" target-y="1501.5"></path><path d="M 2110.60 1507.00 C 2127.30 1501.80 2150.10 1504.70 2167.70 1506.10 C 2170.10 1506.30 2171.30 1507.60 2171.30 1510.00 L 2171.20 1543.70 C 2171.20 1547.00 2168.50 1549.60 2165.30 1549.60 L 2093.70 1549.70 C 2091.60 1549.70 2090.00 1548.00 2090.00 1546.00 C 2090.00 1545.50 2090.10 1544.90 2090.40 1544.40 L 2106.80 1510.30 C 2107.60 1508.70 2108.90 1507.60 2110.60 1507.00 Z" fill="#ff9481" fill-rule="nonzero" node-id="120" stroke="none" target-height="47.899902" target-width="81.30005" target-x="2090" target-y="1501.8"></path><path d="M 1922.80 1538.10 C 1923.90 1586.30 1924.70 1632.40 1925.30 1676.40 C 1925.70 1707.70 1915.50 1735.10 1894.60 1758.40 C 1892.30 1761.00 1890.90 1760.60 1890.60 1757.10 C 1887.10 1717.30 1886.00 1677.60 1887.20 1637.90 C 1887.40 1631.00 1885.50 1626.80 1881.60 1625.40 C 1877.80 1624.00 1873.70 1625.90 1872.20 1629.60 C 1871.90 1630.30 1871.80 1631.00 1871.70 1631.80 L 1868.40 1693.10 L 1867.40 1674.40 C 1867.20 1671.30 1865.60 1669.60 1862.50 1669.20 L 1807.50 1662.70 L 1807.10 1615.20 C 1807.10 1612.00 1805.40 1610.40 1802.20 1610.40 L 1647.70 1610.40 C 1644.90 1610.40 1643.50 1611.80 1643.60 1614.60 L 1644.10 1658.20 C 1643.00 1657.20 1642.30 1655.40 1642.20 1652.80 C 1642.10 1650.30 1640.80 1649.50 1638.50 1650.30 L 1598.10 1664.70 C 1599.00 1655.60 1595.10 1650.20 1586.60 1648.40 C 1582.00 1647.50 1577.40 1650.50 1576.50 1655.10 C 1576.40 1655.70 1576.30 1656.30 1576.30 1657.00 L 1577.50 1710.90 L 1548.70 1709.00 C 1549.30 1695.40 1547.10 1684.50 1542.10 1676.30 C 1540.80 1674.20 1538.10 1673.50 1535.90 1674.80 C 1534.60 1675.60 1533.80 1677.00 1533.70 1678.50 L 1531.80 1732.70 L 1488.30 1731.50 L 1488.40 1590.20 L 1660.70 1532.90 C 1662.40 1532.30 1664.30 1532.20 1666.10 1532.60 C 1685.60 1536.70 1702.60 1532.50 1717.10 1520.10 C 1719.00 1518.50 1721.20 1517.60 1723.80 1517.40 L 1786.40 1513.20 C 1787.10 1513.20 1787.90 1513.30 1788.50 1513.60 C 1813.50 1525.20 1835.80 1520.10 1864.30 1533.30 C 1879.50 1540.00 1898.90 1541.60 1922.80 1538.10 Z" fill="#ff9481" fill-rule="nonzero" node-id="122" stroke="none" target-height="247.80005" target-width="437.3999" target-x="1488.3" target-y="1513.2"></path><path d="M 2433.00 1562.30 C 2458.00 1567.30 2473.20 1563.90 2485.80 1590.00 C 2566.00 1755.20 2626.20 1921.00 2645.80 2105.60 C 2668.10 2316.70 2635.50 2524.50 2547.90 2729.10 C 2542.00 2742.80 2540.30 2761.00 2531.50 2776.90 C 2514.30 2774.90 2495.00 2774.50 2473.70 2775.70 C 2461.20 2776.40 2456.20 2782.70 2458.60 2794.40 C 2450.90 2789.90 2439.10 2787.90 2423.20 2788.60 L 2420.60 2448.50 L 2421.60 2282.30 C 2421.10 2233.20 2423.80 2185.50 2429.70 2139.10 C 2434.00 2105.50 2446.50 2092.90 2478.70 2087.60 C 2502.70 2083.60 2529.40 2070.40 2558.80 2048.00 C 2560.50 2046.70 2560.90 2045.10 2560.20 2043.20 C 2536.40 1979.40 2505.90 1924.20 2468.50 1877.60 C 2450.30 1854.90 2438.50 1838.20 2432.80 1827.30 L 2433.00 1562.30 Z" fill="#ffeee3" fill-rule="nonzero" node-id="124" stroke="none" target-height="1232.0999" target-width="247.5" target-x="2420.6" target-y="1562.3"></path><path d="M 2169.00 1571.20 L 2167.80 1578.80 L 2073.90 1578.90 C 2071.70 1578.90 2070.90 1577.80 2071.60 1575.70 C 2071.80 1575.00 2072.10 1574.20 2072.30 1573.50 C 2072.40 1573.10 2072.70 1572.80 2073.20 1572.80 L 2169.00 1571.20 Z" fill="#ff9481" fill-rule="nonzero" node-id="126" stroke="none" target-height="7.7000732" target-width="98.1001" target-x="2070.9" target-y="1571.2"></path><path d="M 2169.00 1571.20 C 2171.80 1571.60 2174.40 1572.50 2176.70 1573.90 C 2178.50 1575.00 2179.30 1576.50 2179.30 1578.50 L 2177.20 1704.20 C 2177.20 1706.50 2176.10 1707.20 2174.00 1706.30 C 2169.50 1704.60 2167.20 1700.70 2167.20 1694.60 C 2166.90 1656.20 2167.20 1617.60 2167.90 1578.70 L 2169.00 1571.20 Z" fill="#ffbf9a" fill-rule="nonzero" node-id="128" stroke="none" target-height="136" target-width="12.4001465" target-x="2166.9" target-y="1571.2"></path><path d="M 1644.10 1658.10 L 1644.00 2025.50 C 1646.30 2051.80 1643.40 2074.10 1635.60 2092.50 L 1585.30 2181.30 L 1582.30 1849.20 C 1582.30 1846.50 1580.90 1845.20 1578.20 1845.20 L 1499.00 1845.20 C 1491.90 1845.20 1488.30 1841.60 1488.30 1834.50 L 1488.40 1731.50 L 1531.90 1732.70 C 1539.30 1736.90 1544.20 1735.80 1546.50 1729.30 C 1548.60 1723.40 1549.40 1716.60 1548.80 1709.00 L 1577.60 1710.90 C 1577.20 1721.70 1580.00 1728.90 1586.10 1732.70 C 1589.30 1734.60 1593.40 1733.60 1595.30 1730.50 C 1595.90 1729.50 1596.20 1728.40 1596.30 1727.20 L 1598.20 1664.70 L 1638.60 1650.30 C 1640.90 1649.50 1642.10 1650.30 1642.30 1652.80 C 1642.30 1655.30 1642.90 1657.10 1644.10 1658.10 Z" fill="#ff6251" fill-rule="nonzero" node-id="130" stroke="none" target-height="531.80005" target-width="158" target-x="1488.3" target-y="1649.5"></path><path d="M 1598.10 1664.60 L 1596.20 1727.10 C 1596.10 1730.70 1593.10 1733.60 1589.40 1733.50 C 1588.20 1733.50 1587.10 1733.10 1586.10 1732.50 C 1580.00 1728.70 1577.10 1721.50 1577.60 1710.70 L 1576.40 1656.80 C 1576.30 1652.10 1580.10 1648.10 1584.80 1648.00 C 1585.40 1648.00 1586.00 1648.00 1586.70 1648.20 C 1595.20 1650.10 1599.00 1655.50 1598.10 1664.60 Z" fill="#feffff" fill-rule="nonzero" node-id="132" stroke="none" target-height="85.599976" target-width="22.699951" target-x="1576.3" target-y="1648"></path><path d="M 1868.40 1693.10 L 1868.10 1810.20 C 1868.10 1812.60 1867.30 1814.80 1865.80 1816.70 C 1843.00 1845.80 1833.40 1878.00 1810.20 1909.90 C 1808.50 1912.20 1807.60 1912.00 1807.60 1909.10 L 1807.50 1662.60 L 1862.50 1669.10 C 1865.60 1669.50 1867.20 1671.20 1867.40 1674.30 L 1868.40 1693.10 Z" fill="#ff6251" fill-rule="nonzero" node-id="134" stroke="none" target-height="249.59998" target-width="60.900024" target-x="1807.5" target-y="1662.6"></path><path d="M 1548.70 1708.80 C 1549.30 1716.40 1548.50 1723.10 1546.40 1729.10 C 1544.10 1735.60 1539.20 1736.80 1531.80 1732.50 L 1533.70 1678.30 C 1533.80 1675.80 1535.90 1673.80 1538.40 1673.90 C 1539.90 1674.00 1541.30 1674.80 1542.10 1676.10 C 1547.20 1684.30 1549.40 1695.20 1548.70 1708.80 Z" fill="#feffff" fill-rule="nonzero" node-id="136" stroke="none" target-height="63" target-width="17.599976" target-x="1531.8" target-y="1673.8"></path><g node-id="298"><path d="M 2219.05 1714.09 L 2218.83 1719.65 L 2218.17 1724.40 L 2217.44 1727.45 L 2216.61 1729.86 L 2215.71 1731.73 L 2214.52 1733.38 L 2213.36 1734.24 L 2212.20 1734.54 L 2211.03 1734.26 L 2209.86 1733.41 L 2208.64 1731.78 L 2207.71 1729.92 L 2206.85 1727.52 L 2206.08 1724.48 L 2205.36 1719.74 L 2205.05 1714.19 L 2205.28 1708.63 L 2205.94 1703.89 L 2206.67 1700.84 L 2207.49 1698.43 L 2208.40 1696.55 L 2209.59 1694.91 L 2210.75 1694.04 L 2211.91 1693.74 L 2213.08 1694.02 L 2214.25 1694.87 L 2215.46 1696.50 L 2216.39 1698.36 L 2217.26 1700.76 L 2218.03 1703.80 L 2218.75 1708.54 L 2219.05 1714.09 Z" fill="#ff9481" fill-rule="nonzero" group-id="1" node-id="140" stroke="none" target-height="40.80005" target-width="14" target-x="2205.0542" target-y="1693.7417"></path></g><g node-id="299"><path d="M 2256.89 1714.78 L 2256.75 1719.92 L 2256.12 1724.34 L 2255.40 1727.17 L 2254.55 1729.42 L 2253.61 1731.19 L 2252.38 1732.71 L 2251.16 1733.55 L 2249.89 1733.87 L 2248.61 1733.62 L 2247.34 1732.85 L 2246.04 1731.39 L 2245.01 1729.67 L 2244.04 1727.46 L 2243.17 1724.68 L 2242.31 1720.30 L 2241.90 1715.17 L 2242.05 1710.02 L 2242.67 1705.61 L 2243.40 1702.78 L 2244.24 1700.53 L 2245.19 1698.76 L 2246.41 1697.23 L 2247.64 1696.39 L 2248.90 1696.08 L 2250.18 1696.32 L 2251.45 1697.10 L 2252.75 1698.56 L 2253.79 1700.28 L 2254.75 1702.48 L 2255.62 1705.27 L 2256.48 1709.64 L 2256.89 1714.78 Z" fill="#ff9481" fill-rule="nonzero" group-id="2" node-id="145" stroke="none" target-height="37.788696" target-width="14.995605" target-x="2241.8994" target-y="1696.0784"></path></g><path d="M 1391.60 1850.60 L 1396.40 1850.60 C 1400.50 1850.60 1403.80 1853.90 1403.80 1858.00 L 1403.80 2017.40 C 1403.80 2021.50 1400.50 2024.80 1396.40 2024.80 L 1391.60 2024.80 C 1387.50 2024.80 1384.20 2021.50 1384.20 2017.40 L 1384.20 1858.00 C 1384.10 1853.90 1387.50 1850.60 1391.60 1850.60 Z" fill="#ff9481" fill-rule="nonzero" node-id="148" stroke="none" target-height="174.20007" target-width="19.700073" target-x="1384.1" target-y="1850.6"></path><path d="M 2134.27 1855.08 L 2136.82 1857.10 L 2138.75 1859.28 L 2140.15 1861.67 L 2140.85 1863.92 L 2140.94 1865.44 L 2140.68 1866.79 L 2140.10 1868.03 L 2139.19 1869.05 L 2138.05 1869.82 L 2136.62 1870.33 L 2134.28 1870.58 L 2131.53 1870.23 L 2128.77 1869.32 L 2125.90 1867.77 L 2123.34 1865.74 L 2121.42 1863.57 L 2120.01 1861.18 L 2119.32 1858.92 L 2119.23 1857.41 L 2119.48 1856.05 L 2120.07 1854.82 L 2120.97 1853.79 L 2122.12 1853.03 L 2123.55 1852.52 L 2125.89 1852.26 L 2128.64 1852.61 L 2131.40 1853.53 L 2134.27 1855.08 Z" fill="#ffc9b0" fill-rule="nonzero" group-id="3" node-id="152" stroke="none" target-height="18.31665" target-width="21.703613" target-x="2119.2324" target-y="1852.2642"></path><path d="M 1321.10 1859.80 L 1328.40 1859.80 C 1331.40 1859.80 1333.90 1862.30 1333.90 1865.30 L 1334.20 2019.10 C 1334.20 2022.10 1331.70 2024.60 1328.70 2024.60 L 1321.40 2024.60 C 1318.40 2024.60 1315.90 2022.10 1315.90 2019.10 L 1315.60 1865.30 C 1315.60 1862.30 1318.10 1859.80 1321.10 1859.80 Z" fill="#ff9481" fill-rule="nonzero" node-id="155" stroke="none" target-height="164.79993" target-width="18.599976" target-x="1315.6" target-y="1859.8"></path><path d="M 1207.30 1904.10 L 1208.20 1904.10 C 1212.00 1904.10 1215.00 1907.20 1215.00 1910.90 L 1215.00 1930.00 C 1215.00 1933.80 1211.90 1936.80 1208.20 1936.80 L 1207.30 1936.80 C 1203.50 1936.80 1200.50 1933.70 1200.50 1930.00 L 1200.50 1910.90 C 1200.50 1907.20 1203.50 1904.10 1207.30 1904.10 Z" fill="#ff9481" fill-rule="nonzero" node-id="157" stroke="none" target-height="32.700073" target-width="14.5" target-x="1200.5" target-y="1904.1"></path><path d="M 2220.10 2281.80 C 2219.40 2281.20 2218.80 2280.40 2218.30 2279.30 C 2217.20 2277.00 2215.50 2275.60 2213.00 2275.20 L 2178.70 2268.70 C 2177.90 2268.60 2177.30 2268.10 2176.90 2267.30 C 2176.60 2266.50 2176.30 2265.60 2176.20 2264.70 C 2175.90 2262.40 2174.50 2261.30 2172.20 2261.40 C 2141.50 2262.90 2120.20 2262.50 2108.30 2260.20 C 2037.90 2246.50 1968.70 2242.00 1900.60 2246.70 L 1926.80 2200.90 C 1974.10 2140.40 2011.30 2096.40 2083.50 2086.30 C 2086.50 2085.90 2088.80 2083.30 2088.90 2080.20 L 2090.60 1978.70 C 2090.60 1976.40 2091.80 1975.20 2094.20 1975.20 L 2212.90 1975.50 C 2217.90 1975.50 2220.40 1978.00 2220.30 1982.90 L 2220.30 2281.80 Z" fill="#ffc9b0" fill-rule="nonzero" node-id="159" stroke="none" target-height="306.6001" target-width="319.79993" target-x="1900.6" target-y="1975.2"></path><path d="M 1926.80 2200.80 L 1900.60 2246.60 C 1860.20 2331.20 1834.80 2417.80 1824.40 2506.50 C 1815.80 2504.60 1807.80 2504.80 1800.40 2507.00 L 1799.40 2450.80 C 1799.40 2449.50 1798.40 2448.50 1797.20 2448.50 C 1795.90 2448.50 1794.90 2449.50 1794.80 2450.80 L 1792.40 2515.80 L 1710.90 2548.70 C 1708.50 2549.70 1706.40 2549.10 1704.90 2547.00 C 1686.80 2522.50 1666.40 2504.00 1643.70 2491.40 C 1644.50 2301.70 1644.70 2179.30 1644.10 2124.30 C 1644.10 2115.00 1641.20 2104.30 1635.70 2092.40 C 1643.60 2074.00 1646.40 2051.70 1644.10 2025.40 C 1685.20 2016.50 1726.00 2010.30 1766.50 2006.70 C 1788.10 2004.80 1801.90 1993.90 1821.50 1985.90 C 1824.00 1984.90 1826.70 1985.80 1828.20 1988.00 C 1870.40 2050.80 1903.30 2121.70 1926.80 2200.80 Z M 1811.60 2170.60 C 1811.60 2165.60 1805.90 2161.50 1798.90 2161.50 C 1798.90 2161.50 1798.90 2161.50 1798.90 2161.50 C 1791.80 2161.50 1786.10 2165.50 1786.10 2170.60 C 1786.10 2175.60 1791.80 2179.70 1798.80 2179.70 C 1798.80 2179.70 1798.80 2179.70 1798.80 2179.70 C 1805.90 2179.60 1811.60 2175.60 1811.60 2170.60 Z" fill="#ffe6d5" fill-rule="nonzero" node-id="161" stroke="none" target-height="564.7999" target-width="291.1001" target-x="1635.7" target-y="1984.9"></path><path d="M 1635.60 2092.50 C 1641.20 2104.40 1644.00 2115.10 1644.00 2124.40 C 1644.50 2179.40 1644.40 2301.80 1643.60 2491.50 L 1592.90 2462.20 C 1588.10 2459.40 1585.20 2454.30 1585.30 2448.80 C 1586.20 2362.70 1585.50 2275.80 1583.30 2188.10 C 1583.30 2186.90 1583.30 2185.70 1583.60 2184.40 C 1585.00 2177.40 1585.60 2176.30 1585.40 2181.20 L 1635.60 2092.50 Z" fill="#ffc9b0" fill-rule="nonzero" node-id="163" stroke="none" target-height="399" target-width="61.19995" target-x="1583.3" target-y="2092.5"></path><path d="M 1230.30 2197.40 C 1221.40 2197.00 1216.80 2200.70 1216.70 2208.40 C 1214.40 2309.20 1213.80 2448.70 1215.00 2626.80 L 1035.10 2628.50 C 1030.60 2628.50 1026.90 2632.20 1026.90 2636.80 C 1026.90 2636.90 1026.90 2637.10 1026.90 2637.20 C 1029.20 2685.10 1028.10 2733.40 1023.60 2782.10 C 1023.20 2786.80 1020.30 2790.60 1015.20 2793.50 C 1013.50 2794.40 1012.70 2795.90 1012.70 2797.80 L 1011.70 2922.10 L 1006.60 2710.30 C 1006.60 2707.90 1005.60 2705.80 1003.90 2704.00 C 968.30 2669.10 928.60 2640.70 884.90 2618.80 C 898.60 2611.90 907.90 2603.80 922.80 2597.70 C 943.30 2589.50 959.50 2577.30 971.60 2561.00 L 1020.60 2543.60 C 1024.80 2542.10 1027.90 2538.70 1029.00 2534.40 C 1042.20 2480.80 1079.30 2384.50 1145.20 2380.50 C 1147.60 2380.40 1148.80 2379.10 1148.70 2376.70 L 1148.10 2110.20 L 1221.90 2108.10 C 1224.90 2108.10 1226.50 2109.50 1226.70 2112.50 L 1230.30 2197.40 Z" fill="#ffdcc3" fill-rule="nonzero" node-id="165" stroke="none" target-height="814" target-width="345.40002" target-x="884.9" target-y="2108.1"></path><path d="M 1148.10 2110.20 L 1148.70 2376.70 C 1148.70 2379.10 1147.60 2380.40 1145.20 2380.50 C 1079.40 2384.50 1042.20 2480.70 1029.00 2534.40 C 1027.90 2538.70 1024.80 2542.20 1020.60 2543.60 L 971.60 2561.00 L 971.40 2346.70 C 971.40 2340.20 974.60 2337.00 981.10 2336.90 L 1016.80 2336.50 C 1024.40 2336.40 1030.60 2330.30 1030.70 2322.60 L 1033.30 2113.20 C 1033.30 2110.80 1034.50 2109.60 1036.90 2109.70 L 1148.10 2110.20 Z" fill="#feffff" fill-rule="nonzero" node-id="167" stroke="none" target-height="451.3999" target-width="177.29993" target-x="971.4" target-y="2109.6"></path><path d="M 886.71 2129.76 L 886.89 2132.74 L 886.78 2135.46 L 886.42 2137.96 L 885.78 2140.41 L 884.95 2142.41 L 883.95 2144.05 L 882.68 2145.43 L 881.32 2146.29 L 879.83 2146.71 L 878.28 2146.63 L 876.76 2146.08 L 875.22 2145.01 L 873.90 2143.63 L 872.65 2141.85 L 871.49 2139.61 L 870.59 2137.25 L 869.89 2134.61 L 869.41 2131.67 L 869.24 2128.68 L 869.34 2125.96 L 869.70 2123.46 L 870.35 2121.02 L 871.18 2119.01 L 872.17 2117.37 L 873.44 2115.99 L 874.80 2115.13 L 876.30 2114.71 L 877.84 2114.79 L 879.36 2115.34 L 880.90 2116.41 L 882.23 2117.79 L 883.48 2119.57 L 884.64 2121.81 L 885.54 2124.17 L 886.23 2126.81 L 886.71 2129.76 Z" fill="#ff9481" fill-rule="nonzero" group-id="4" node-id="171" stroke="none" target-height="32.006836" target-width="17.647339" target-x="869.2388" target-y="2114.7078"></path><path d="M 1798.88 2161.44 L 1801.24 2161.60 L 1803.38 2162.03 L 1805.34 2162.70 L 1807.17 2163.64 L 1808.69 2164.73 L 1809.92 2165.98 L 1810.87 2167.43 L 1811.44 2168.95 L 1811.65 2170.58 L 1811.43 2172.22 L 1810.85 2173.73 L 1809.88 2175.17 L 1808.64 2176.41 L 1807.12 2177.49 L 1805.28 2178.42 L 1803.32 2179.08 L 1801.18 2179.49 L 1798.82 2179.64 L 1796.46 2179.47 L 1794.31 2179.05 L 1792.36 2178.37 L 1790.52 2177.44 L 1789.01 2176.34 L 1787.78 2175.09 L 1786.82 2173.65 L 1786.25 2172.13 L 1786.05 2170.49 L 1786.26 2168.86 L 1786.84 2167.34 L 1787.81 2165.91 L 1789.05 2164.67 L 1790.57 2163.58 L 1792.41 2162.66 L 1794.37 2162.00 L 1796.52 2161.59 L 1798.88 2161.44 Z" fill="#ff9481" fill-rule="nonzero" group-id="5" node-id="176" stroke="none" target-height="18.199951" target-width="25.600098" target-x="1786.0479" target-y="2161.438"></path><path d="M 1230.30 2197.40 L 1234.30 2261.40 L 1234.40 3206.50 C 1234.50 3208.70 1232.70 3210.60 1230.50 3210.60 C 1228.80 3210.60 1227.30 3209.60 1226.60 3208.10 C 1220.90 3195.10 1218.00 3180.40 1217.80 3163.80 C 1215.40 2984.70 1214.40 2805.70 1214.90 2626.80 C 1213.70 2448.70 1214.30 2309.20 1216.60 2208.40 C 1216.90 2200.60 1221.40 2197.00 1230.30 2197.40 Z" fill="#ff9481" fill-rule="nonzero" node-id="179" stroke="none" target-height="1013.6001" target-width="20.800049" target-x="1213.7" target-y="2197"></path><path d="M 2220.10 2281.80 C 2220.80 2286.10 2220.40 2286.80 2218.80 2284.10 L 2218.70 2454.10 C 2217.70 2640.80 2218.30 2827.40 2220.40 3014.00 C 2221.00 3069.10 2232.40 3141.40 2225.80 3204.70 C 2225.30 3210.00 2227.30 3213.60 2232.00 3215.40 L 2210.90 3228.30 C 2214.10 3165.10 2218.50 3104.50 2207.80 3041.20 C 2207.60 3039.60 2206.10 3038.50 2204.50 3038.70 C 2203.50 3038.80 2202.70 3039.50 2202.20 3040.40 L 2197.50 3050.50 C 2195.20 3048.30 2191.00 3047.80 2184.90 3049.00 C 2185.10 3026.70 2180.80 3006.90 2171.80 2989.60 C 2170.90 2987.90 2169.50 2987.30 2167.60 2987.70 C 2166.60 2987.90 2165.50 2988.10 2164.20 2988.30 C 2165.00 2977.10 2161.70 2972.10 2154.20 2973.30 L 2153.50 2936.00 C 2156.70 2744.10 2049.20 2506.50 1824.20 2506.50 C 1834.70 2417.80 1860.10 2331.20 1900.40 2246.60 C 1968.50 2241.90 2037.70 2246.40 2108.10 2260.10 C 2120.00 2262.40 2141.30 2262.80 2172.00 2261.30 C 2174.30 2261.20 2175.70 2262.30 2176.00 2264.60 C 2176.10 2265.60 2176.40 2266.50 2176.70 2267.20 C 2177.10 2268.00 2177.70 2268.40 2178.50 2268.60 L 2212.80 2275.10 C 2215.20 2275.50 2217.00 2276.90 2218.10 2279.20 C 2218.90 2280.40 2219.50 2281.20 2220.10 2281.80 Z" fill="#ffa491" fill-rule="nonzero" node-id="181" stroke="none" target-height="986.40015" target-width="408.19995" target-x="1824.2" target-y="2241.9"></path><path d="M 1307.23 2263.57 L 1307.27 2265.93 L 1306.91 2268.02 L 1306.16 2269.91 L 1305.14 2271.36 L 1303.82 2272.39 L 1302.31 2272.86 L 1300.73 2272.72 L 1299.22 2272.00 L 1297.91 2270.81 L 1296.78 2269.12 L 1295.97 2267.16 L 1295.50 2264.85 L 1295.47 2262.49 L 1295.83 2260.39 L 1296.58 2258.51 L 1297.60 2257.06 L 1298.92 2256.03 L 1300.43 2255.56 L 1302.01 2255.70 L 1303.52 2256.42 L 1304.82 2257.61 L 1305.96 2259.29 L 1306.76 2261.26 L 1307.23 2263.57 Z" fill="#ff9481" fill-rule="nonzero" group-id="6" node-id="185" stroke="none" target-height="17.298828" target-width="11.80603" target-x="1295.4651" target-y="2255.5596"></path><path d="M 2421.70 2282.30 L 2420.70 2448.50 C 2419.30 2449.50 2418.50 2451.30 2418.20 2454.00 C 2417.60 2459.00 2417.10 2459.00 2416.70 2454.10 L 2416.40 2449.70 C 2416.30 2448.70 2415.90 2448.60 2415.20 2449.20 C 2414.70 2449.60 2414.20 2450.00 2413.80 2450.50 C 2412.00 2452.60 2411.30 2452.20 2411.70 2449.50 C 2412.70 2443.30 2410.70 2440.40 2405.70 2440.80 C 2378.60 2442.80 2351.50 2444.50 2324.50 2446.10 C 2298.40 2447.60 2269.00 2454.50 2236.10 2466.80 C 2233.80 2467.70 2231.20 2466.50 2230.30 2464.20 C 2229.80 2462.90 2229.90 2461.50 2230.60 2460.40 L 2233.10 2456.10 C 2233.40 2455.60 2233.20 2455.10 2232.70 2454.80 C 2232.30 2454.60 2231.90 2454.70 2231.60 2454.90 L 2224.10 2462.00 C 2222.20 2463.70 2221.00 2463.40 2220.40 2461.00 L 2218.60 2454.00 L 2218.70 2284.00 L 2421.70 2282.30 Z" fill="#ffdcc3" fill-rule="nonzero" node-id="188" stroke="none" target-height="185.3999" target-width="203.09985" target-x="2218.6" target-y="2282.3"></path><path d="M 1408.40 2337.70 L 1408.80 3118.40 C 1406.00 3118.70 1406.90 3119.50 1411.60 3121.00 L 1383.10 3133.50 L 1383.70 2336.80 C 1388.00 2333.20 1396.30 2333.50 1408.40 2337.70 Z" fill="#ffbf9a" fill-rule="nonzero" node-id="190" stroke="none" target-height="800.30005" target-width="28.5" target-x="1383.1" target-y="2333.2"></path><path d="M 1383.60 2336.70 L 1383.00 3133.40 C 1379.70 3141.50 1375.50 3147.10 1370.40 3150.10 C 1367.00 3152.20 1365.30 3151.20 1365.30 3147.20 L 1365.60 2876.90 C 1373.00 2818.20 1373.70 2759.00 1367.70 2699.40 C 1367.30 2582.80 1367.10 2465.60 1367.00 2348.00 C 1367.00 2342.80 1367.90 2339.20 1369.80 2337.10 C 1373.00 2333.60 1377.60 2333.50 1383.60 2336.70 Z" fill="#f6722c" fill-rule="nonzero" node-id="192" stroke="none" target-height="818.69995" target-width="18.299927" target-x="1365.3" target-y="2333.5"></path><path d="M 1431.30 2335.60 C 1429.60 2341.80 1427.50 2347.90 1427.50 2354.50 C 1428.20 2600.30 1427.10 2846.00 1428.00 3091.80 C 1428.00 3092.20 1428.30 3095.00 1428.90 3100.00 C 1430.00 3109.70 1423.20 3115.80 1408.70 3118.30 L 1408.30 2337.60 C 1413.90 2334.40 1421.60 2333.70 1431.30 2335.60 Z" fill="#f6722c" fill-rule="nonzero" node-id="194" stroke="none" target-height="784.6001" target-width="23" target-x="1408.3" target-y="2333.7"></path><path d="M 1431.30 2335.60 C 1439.30 2333.70 1445.90 2333.80 1451.00 2335.90 C 1453.50 2336.90 1454.70 2338.80 1454.70 2341.50 L 1456.20 2939.00 C 1456.00 2983.10 1456.40 3027.60 1457.40 3072.50 C 1457.60 3080.70 1456.60 3088.70 1454.50 3096.50 C 1453.90 3098.90 1452.40 3100.60 1450.20 3101.70 L 1411.50 3120.90 C 1406.80 3119.50 1405.90 3118.60 1408.70 3118.30 C 1423.20 3115.80 1430.00 3109.60 1428.90 3100.00 C 1428.30 3095.00 1428.00 3092.20 1428.00 3091.80 C 1427.10 2846.00 1428.10 2600.30 1427.50 2354.50 C 1427.50 2347.90 1429.60 2341.80 1431.30 2335.60 Z" fill="#ffad7f" fill-rule="nonzero" node-id="196" stroke="none" target-height="787.19995" target-width="51.69995" target-x="1405.9" target-y="2333.7"></path><path d="M 1334.20 2863.10 C 1332.00 2964.90 1330.70 3066.50 1330.00 3167.90 C 1329.90 3184.30 1324.00 3197.30 1312.20 3206.60 C 1313.40 3144.40 1312.90 3054.90 1310.70 2938.10 C 1308.60 2825.30 1309.10 2642.50 1312.20 2389.60 C 1312.20 2380.80 1316.70 2379.20 1325.90 2384.50 C 1329.70 2386.70 1331.60 2390.00 1331.60 2394.30 L 1334.20 2863.10 Z" fill="#ffad7f" fill-rule="nonzero" node-id="198" stroke="none" target-height="827.40015" target-width="25.599976" target-x="1308.6" target-y="2379.2"></path><path d="M 1285.40 3217.20 C 1286.40 3233.00 1282.30 3243.60 1273.10 3249.30 C 1267.50 3229.70 1264.80 3209.20 1265.00 3187.70 C 1266.60 2965.10 1266.90 2707.10 1265.90 2413.60 C 1265.90 2410.90 1268.10 2408.70 1270.70 2408.70 C 1270.80 2408.70 1271.00 2408.70 1271.10 2408.70 L 1283.10 2409.60 C 1286.30 2409.80 1287.80 2411.50 1287.80 2414.70 L 1285.40 3217.20 Z" fill="#ffad7f" fill-rule="nonzero" node-id="200" stroke="none" target-height="840.6001" target-width="23" target-x="1264.8" target-y="2408.7"></path><path d="M 2420.60 2448.60 L 2423.20 2788.70 L 2423.90 3125.90 C 2377.30 3127.50 2335.00 3142.40 2297.00 3170.50 C 2294.70 3172.20 2291.30 3171.80 2289.60 3169.40 C 2288.90 3168.50 2288.60 3167.50 2288.60 3166.40 L 2286.80 3117.10 C 2286.80 3115.00 2285.20 3113.30 2283.10 3113.30 C 2281.00 3113.30 2279.30 3115.00 2279.20 3117.10 L 2279.20 3117.10 C 2278.50 3133.90 2287.20 3190.20 2262.50 3191.60 C 2260.10 3191.70 2258.90 3190.60 2258.90 3188.20 C 2258.40 3162.90 2258.50 3137.50 2259.00 3112.20 C 2259.10 3104.00 2255.10 3099.30 2249.40 3094.20 C 2246.60 3091.70 2245.20 3092.30 2245.40 3096.10 C 2246.60 3124.20 2252.70 3195.30 2231.90 3215.30 C 2227.30 3213.50 2225.20 3209.90 2225.70 3204.60 C 2232.30 3141.30 2220.90 3069.10 2220.30 3013.90 C 2218.20 2827.40 2217.60 2640.70 2218.60 2454.00 L 2220.40 2461.00 C 2221.00 2463.40 2222.20 2463.70 2224.10 2462.00 L 2231.60 2454.90 C 2232.00 2454.60 2232.60 2454.60 2232.90 2455.00 C 2233.20 2455.30 2233.20 2455.70 2233.00 2456.10 L 2230.50 2460.40 C 2229.20 2462.50 2230.00 2465.30 2232.10 2466.50 C 2233.30 2467.20 2234.70 2467.30 2235.90 2466.80 C 2268.70 2454.50 2298.20 2447.60 2324.30 2446.10 C 2351.40 2444.50 2378.40 2442.80 2405.50 2440.80 C 2410.50 2440.50 2412.50 2443.40 2411.50 2449.50 C 2411.10 2452.20 2411.70 2452.50 2413.60 2450.50 C 2414.00 2450.00 2414.50 2449.60 2415.00 2449.20 C 2415.70 2448.60 2416.10 2448.70 2416.20 2449.70 L 2416.50 2454.10 C 2416.90 2459.00 2417.40 2458.90 2418.00 2454.00 C 2418.40 2451.40 2419.30 2449.50 2420.60 2448.60 Z" fill="#ffc9b0" fill-rule="nonzero" node-id="202" stroke="none" target-height="774.80005" target-width="206.2998" target-x="2217.6" target-y="2440.5"></path><path d="M 1800.30 2507.10 C 1799.80 2517.00 1797.10 2520.00 1792.20 2515.90 L 1794.60 2450.90 C 1794.60 2449.60 1795.70 2448.60 1797.00 2448.60 C 1798.30 2448.60 1799.30 2449.60 1799.20 2450.90 L 1800.30 2507.10 Z" fill="#ff9481" fill-rule="nonzero" node-id="204" stroke="none" target-height="71.3999" target-width="8.100098" target-x="1792.2" target-y="2448.6"></path><path d="M 884.80 2618.80 C 928.50 2640.70 968.20 2669.10 1003.80 2704.00 C 1005.60 2705.80 1006.50 2707.90 1006.50 2710.30 L 1011.60 2922.10 L 1012.40 2963.90 L 1007.70 2976.20 C 938.00 2952.10 866.40 2934.30 793.30 2940.50 C 560.40 2960.40 385.10 3135.90 341.20 3362.70 C 340.90 3364.30 339.40 3365.30 337.80 3365.10 C 337.40 3365.00 337.00 3364.80 336.60 3364.60 C 326.80 3357.20 318.40 3349.30 311.30 3340.80 C 141.90 3138.80 173.90 2852.20 367.80 2679.70 C 508.90 2558.30 716.60 2527.20 884.80 2618.80 Z M 865.70 2812.00 L 876.00 2812.00 C 877.70 2812.00 879.20 2810.60 879.20 2808.80 L 879.20 2807.60 C 879.20 2790.70 876.30 2777.00 872.60 2777.00 C 872.60 2777.00 872.60 2777.00 872.50 2777.00 L 869.30 2777.00 C 865.60 2777.10 862.60 2790.80 862.60 2807.60 L 862.60 2808.80 C 862.50 2810.60 863.90 2812.00 865.70 2812.00 Z M 560.80 2797.00 L 545.90 2779.10 C 545.20 2778.20 544.00 2778.10 543.10 2778.80 C 543.10 2778.80 543.10 2778.80 543.10 2778.80 L 541.50 2780.20 C 537.80 2783.30 537.50 2789.10 540.90 2793.30 L 546.00 2799.40 C 549.40 2803.50 555.20 2804.30 559.00 2801.20 C 559.00 2801.20 559.00 2801.20 559.00 2801.20 L 560.60 2799.90 C 561.40 2799.10 561.50 2797.80 560.80 2797.00 Z M 623.80 2806.50 C 626.40 2808.30 632.50 2803.90 637.50 2796.60 C 642.50 2789.40 644.50 2782.10 641.90 2780.30 C 639.30 2778.50 633.20 2782.90 628.20 2790.20 C 623.20 2797.40 621.20 2804.70 623.80 2806.50 Z M 539.10 2819.50 C 541.00 2816.30 537.10 2810.40 530.30 2806.30 C 523.50 2802.20 516.50 2801.50 514.50 2804.80 C 514.50 2804.80 514.50 2804.80 514.50 2804.80 C 512.60 2808.00 516.50 2813.90 523.30 2818.00 C 523.30 2818.00 523.30 2818.00 523.30 2818.00 C 530.00 2822.00 537.10 2822.70 539.10 2819.50 C 539.10 2819.50 539.10 2819.50 539.10 2819.50 Z M 831.50 2831.70 C 831.60 2826.60 824.50 2822.20 815.70 2822.00 C 806.80 2821.80 799.50 2825.80 799.40 2830.90 C 799.30 2836.00 806.40 2840.40 815.20 2840.60 C 824.10 2840.80 831.40 2836.80 831.50 2831.70 Z" fill="#ff9481" fill-rule="nonzero" node-id="206" stroke="none" target-height="838.1001" target-width="870.5" target-x="141.9" target-y="2527.2"></path><path d="M 1068.70 2672.10 L 1069.00 2672.10 C 1072.60 2672.10 1075.50 2675.00 1075.60 2678.60 L 1077.00 3069.70 C 1077.00 3073.30 1074.10 3076.20 1070.50 3076.30 L 1070.20 3076.30 C 1066.60 3076.30 1063.70 3073.40 1063.60 3069.80 L 1062.20 2678.70 C 1062.20 2675.00 1065.10 2672.10 1068.70 2672.10 Z" fill="#ff9481" fill-rule="nonzero" node-id="208" stroke="none" target-height="404.19995" target-width="14.800049" target-x="1062.2" target-y="2672.1"></path><path d="M 2153.60 2936.10 L 2154.30 2973.40 C 2154.10 3070.70 2154.10 3168.00 2154.40 3265.30 C 2154.50 3298.00 2147.20 3317.50 2123.40 3337.50 C 2121.60 3339.00 2119.60 3339.40 2117.40 3338.70 C 2026.30 3312.80 1940.10 3324.60 1858.90 3374.10 C 1842.50 3346.70 1805.60 3247.30 1832.20 3213.10 C 1832.70 3212.30 1832.60 3211.30 1831.90 3210.80 C 1831.70 3210.60 1831.40 3210.50 1831.20 3210.50 L 1829.10 3210.30 C 1827.20 3210.00 1826.00 3209.00 1825.50 3207.10 L 1814.60 3171.60 C 1813.80 3169.00 1814.60 3167.00 1816.80 3165.60 C 1823.20 3161.50 1824.30 3155.80 1820.00 3148.60 C 1819.10 3147.10 1818.90 3145.30 1819.50 3143.60 C 1820.60 3140.30 1822.50 3138.50 1825.20 3138.40 C 1828.30 3138.20 1829.70 3136.60 1829.50 3133.50 C 1828.10 3114.00 1822.40 3095.90 1812.30 3079.30 C 1809.90 3075.30 1809.20 3072.70 1810.50 3071.50 C 1812.50 3069.60 1812.60 3066.40 1810.70 3064.40 C 1809.60 3063.30 1808.10 3062.70 1806.50 3062.90 C 1768.50 3067.20 1725.40 3065.00 1697.10 3091.20 C 1670.00 3071.70 1650.60 3045.90 1638.70 3013.80 C 1628.40 2985.80 1637.10 2957.10 1632.50 2927.10 C 1631.00 2917.30 1639.30 2911.50 1640.50 2903.50 C 1640.70 2901.90 1640.70 2900.10 1640.40 2898.30 C 1687.40 2782.10 1768.20 2670.70 1906.00 2700.40 C 2024.40 2725.90 2097.10 2830.90 2145.40 2934.60 C 2146.30 2937.00 2149.10 2937.50 2153.60 2936.10 Z M 1873.60 2871.10 C 1868.30 2866.10 1862.20 2862.80 1855.30 2861.00 C 1852.80 2860.30 1850.20 2861.70 1849.50 2864.20 C 1848.80 2866.40 1849.90 2868.80 1852.00 2869.80 L 1876.40 2883.30 C 1879.00 2884.80 1881.50 2884.60 1883.90 2882.90 C 1891.00 2877.80 1896.10 2871.10 1898.90 2862.90 C 1900.10 2860.00 1898.60 2856.70 1895.70 2855.60 C 1893.20 2854.60 1890.30 2855.50 1888.80 2857.90 L 1880.20 2870.40 C 1878.20 2873.20 1876.10 2873.40 1873.60 2871.10 Z M 1957.60 2930.80 L 1977.60 2948.30 C 1979.50 2949.80 1982.30 2949.50 1983.80 2947.60 C 1985.10 2945.90 1985.10 2943.50 1983.60 2941.90 L 1960.60 2918.30 C 1958.60 2916.20 1955.60 2915.40 1952.80 2916.20 C 1943.40 2918.70 1935.10 2923.50 1928.00 2930.40 C 1925.30 2932.70 1924.90 2936.80 1927.20 2939.50 C 1929.50 2942.20 1933.60 2942.60 1936.30 2940.30 L 1936.30 2940.30 L 1949.80 2930.50 C 1952.20 2928.80 1955.50 2928.90 1957.60 2930.80 Z" fill="#ffc9b0" fill-rule="nonzero" node-id="210" stroke="none" target-height="703.40015" target-width="526.1" target-x="1628.4" target-y="2670.7"></path><path d="M 1367.80 2699.50 C 1373.80 2759.10 1373.10 2818.30 1365.70 2877.00 L 1362.80 2797.20 L 1367.80 2699.50 Z" fill="#ffad7f" fill-rule="nonzero" node-id="212" stroke="none" target-height="177.5" target-width="11" target-x="1362.8" target-y="2699.5"></path><path d="M 1118.80 2753.40 L 1123.50 2753.40 C 1127.80 2753.40 1131.30 2756.90 1131.30 2761.20 L 1131.90 3102.40 C 1131.90 3106.70 1128.40 3110.20 1124.10 3110.20 L 1119.40 3110.20 C 1115.10 3110.20 1111.60 3106.70 1111.60 3102.40 L 1111.00 2761.20 C 1111.00 2756.90 1114.50 2753.40 1118.80 2753.40 Z" fill="#ff9481" fill-rule="nonzero" node-id="214" stroke="none" target-height="356.80005" target-width="20.900024" target-x="1111" target-y="2753.4"></path><path d="M 2531.60 2777.00 C 2541.60 2776.10 2548.90 2777.50 2553.60 2781.10 C 2555.60 2782.60 2556.50 2784.50 2556.50 2787.00 L 2553.80 2980.90 C 2553.80 2983.80 2555.80 2986.40 2558.60 2987.00 C 2617.20 2999.50 2655.00 3034.80 2672.00 3092.70 C 2673.20 3096.70 2671.70 3098.90 2667.50 3099.30 C 2653.40 3100.60 2638.70 3102.00 2623.50 3103.30 C 2591.60 3106.10 2556.90 3102.60 2522.70 3107.20 C 2498.30 3110.60 2489.20 3120.00 2463.70 3104.80 C 2460.60 3103.00 2458.80 3099.70 2458.80 3096.10 L 2458.70 2794.50 C 2456.30 2782.80 2461.30 2776.50 2473.80 2775.80 C 2495.10 2774.60 2514.40 2775.00 2531.60 2777.00 Z" fill="#ffdcc3" fill-rule="nonzero" node-id="216" stroke="none" target-height="345.3999" target-width="216.8999" target-x="2456.3" target-y="2774.6"></path><path d="M 865.70 2812.00 C 864.00 2812.00 862.50 2810.60 862.50 2808.80 L 862.50 2807.60 C 862.50 2790.80 865.50 2777.10 869.20 2777.00 L 872.40 2777.00 C 876.10 2776.90 879.10 2790.50 879.10 2807.40 C 879.10 2807.50 879.10 2807.60 879.10 2807.60 L 879.10 2808.80 C 879.10 2810.50 877.70 2812.00 875.90 2812.00 L 865.70 2812.00 Z" fill="#feffff" fill-rule="nonzero" node-id="218" stroke="none" target-height="35.100098" target-width="16.599976" target-x="862.5" target-y="2776.9"></path><path d="M 560.80 2797.00 C 561.50 2797.80 561.40 2799.10 560.60 2799.80 L 559.00 2801.10 C 555.30 2804.20 549.50 2803.50 546.00 2799.40 C 546.00 2799.40 546.00 2799.40 546.00 2799.40 L 540.90 2793.30 C 537.50 2789.20 537.80 2783.30 541.50 2780.20 L 543.10 2778.80 C 544.00 2778.10 545.20 2778.20 545.90 2779.10 C 545.90 2779.10 545.90 2779.10 545.90 2779.10 L 560.80 2797.00 Z" fill="#feffff" fill-rule="nonzero" node-id="220" stroke="none" target-height="26.099854" target-width="24" target-x="537.5" target-y="2778.1"></path><path d="M 641.83 2780.34 L 642.48 2781.07 L 642.88 2782.16 L 642.95 2783.76 L 642.52 2786.31 L 641.38 2789.61 L 639.73 2792.97 L 637.44 2796.65 L 634.79 2800.08 L 632.22 2802.79 L 629.52 2805.02 L 627.28 2806.31 L 625.76 2806.79 L 624.60 2806.81 L 623.68 2806.45 L 623.03 2805.71 L 622.63 2804.62 L 622.56 2803.02 L 622.99 2800.47 L 624.13 2797.17 L 625.78 2793.82 L 628.07 2790.14 L 630.72 2786.71 L 633.29 2783.99 L 635.99 2781.77 L 638.23 2780.48 L 639.75 2779.99 L 640.91 2779.98 L 641.83 2780.34 Z" fill="#feffff" fill-rule="nonzero" group-id="7" node-id="224" stroke="none" target-height="26.825195" target-width="20.395264" target-x="622.55664" target-y="2779.9805"></path><path d="M 1362.80 2797.20 L 1365.70 2877.00 L 1365.40 3147.30 C 1365.40 3151.30 1367.00 3152.20 1370.50 3150.20 C 1375.60 3147.20 1379.80 3141.60 1383.10 3133.50 L 1411.60 3121.00 L 1450.30 3101.80 C 1452.50 3100.70 1453.90 3099.00 1454.60 3096.60 C 1456.80 3088.80 1457.70 3080.80 1457.50 3072.60 C 1456.50 3027.70 1456.10 2983.20 1456.30 2939.10 C 1470.00 2978.90 1572.50 2959.80 1602.80 2952.50 C 1605.10 2951.90 1607.00 2950.50 1608.30 2948.60 L 1640.30 2898.40 C 1640.60 2900.30 1640.70 2902.00 1640.40 2903.60 C 1639.20 2911.60 1630.90 2917.40 1632.40 2927.20 C 1636.90 2957.10 1628.20 2985.90 1638.60 3013.90 C 1650.50 3046.00 1670.00 3071.80 1697.00 3091.30 L 1617.80 3143.40 C 1612.90 3135.60 1608.60 3138.10 1604.90 3150.70 L 1580.20 3169.10 C 1578.50 3170.30 1576.60 3171.10 1574.50 3171.30 C 1560.80 3172.80 1546.50 3177.80 1531.80 3186.10 C 1423.10 3247.80 1370.80 3317.80 1337.60 3438.40 L 1297.70 3512.40 C 1296.20 3515.10 1293.30 3516.80 1290.10 3516.80 L 1146.60 3516.10 C 1147.00 3510.20 1150.70 3501.00 1157.50 3488.60 C 1162.60 3479.30 1166.60 3464.70 1169.60 3445.00 C 1210.70 3380.60 1245.20 3315.40 1273.10 3249.40 C 1282.20 3243.80 1286.30 3233.10 1285.40 3217.30 C 1299.40 3220.00 1308.40 3216.50 1312.20 3206.70 C 1324.00 3197.30 1329.90 3184.40 1330.00 3168.00 C 1330.60 3066.60 1332.00 2965.00 1334.20 2863.20 C 1336.00 2868.40 1337.10 2871.20 1337.60 2871.60 C 1344.60 2875.80 1353.70 2873.70 1357.90 2866.80 C 1359.20 2864.70 1359.90 2862.30 1360.00 2859.80 L 1362.80 2797.20 Z" fill="#ffe6d5" fill-rule="nonzero" node-id="227" stroke="none" target-height="719.6001" target-width="550.4" target-x="1146.6" target-y="2797.2"></path><path d="M 530.36 2806.14 L 533.55 2808.36 L 536.06 2810.65 L 538.06 2813.15 L 539.21 2815.39 L 539.58 2816.92 L 539.53 2818.21 L 539.11 2819.33 L 538.31 2820.23 L 537.20 2820.88 L 535.67 2821.27 L 533.16 2821.31 L 530.02 2820.72 L 526.81 2819.58 L 523.35 2817.80 L 520.15 2815.58 L 517.64 2813.29 L 515.65 2810.79 L 514.50 2808.55 L 514.13 2807.02 L 514.18 2805.73 L 514.60 2804.60 L 515.39 2803.71 L 516.51 2803.06 L 518.04 2802.67 L 520.55 2802.63 L 523.69 2803.22 L 526.90 2804.36 L 530.36 2806.14 Z" fill="#feffff" fill-rule="nonzero" group-id="8" node-id="231" stroke="none" target-height="18.679688" target-width="25.449951" target-x="514.1294" target-y="2802.6294"></path><path d="M 815.74 2821.95 L 818.71 2822.19 L 821.40 2822.68 L 823.83 2823.42 L 826.15 2824.44 L 828.03 2825.61 L 829.52 2826.90 L 830.72 2828.43 L 831.39 2829.99 L 831.61 2831.64 L 831.31 2833.28 L 830.56 2834.81 L 829.30 2836.28 L 827.74 2837.50 L 825.81 2838.57 L 823.44 2839.48 L 820.98 2840.09 L 818.27 2840.46 L 815.29 2840.55 L 812.31 2840.31 L 809.62 2839.82 L 807.19 2839.08 L 804.87 2838.06 L 802.99 2836.89 L 801.50 2835.60 L 800.31 2834.07 L 799.63 2832.51 L 799.42 2830.86 L 799.71 2829.22 L 800.46 2827.69 L 801.73 2826.22 L 803.29 2825.00 L 805.22 2823.93 L 807.59 2823.02 L 810.05 2822.41 L 812.76 2822.04 L 815.74 2821.95 Z" fill="#feffff" fill-rule="nonzero" group-id="9" node-id="236" stroke="none" target-height="18.594238" target-width="32.190186" target-x="799.41736" target-y="2821.9531"></path><path d="M 1880.20 2870.40 L 1888.80 2857.90 C 1890.40 2855.20 1893.90 2854.40 1896.60 2856.10 C 1898.90 2857.50 1899.90 2860.40 1898.90 2863.00 C 1896.00 2871.30 1891.00 2877.90 1883.90 2883.00 C 1881.50 2884.70 1879.00 2884.80 1876.40 2883.40 L 1852.00 2869.90 C 1849.70 2868.80 1848.70 2866.00 1849.80 2863.60 C 1850.80 2861.50 1853.20 2860.50 1855.40 2861.10 C 1862.30 2862.80 1868.40 2866.20 1873.70 2871.20 C 1876.10 2873.40 1878.20 2873.20 1880.20 2870.40 Z" fill="#feffff" fill-rule="nonzero" node-id="239" stroke="none" target-height="30.400146" target-width="51.200073" target-x="1848.7" target-y="2854.4"></path><path d="M 1949.90 2930.50 L 1936.40 2940.30 C 1933.70 2942.60 1929.60 2942.20 1927.30 2939.50 C 1925.00 2936.80 1925.40 2932.70 1928.10 2930.40 L 1928.10 2930.40 C 1935.20 2923.50 1943.50 2918.80 1952.90 2916.20 C 1955.70 2915.40 1958.70 2916.30 1960.70 2918.30 L 1983.70 2941.90 C 1985.30 2943.70 1985.20 2946.50 1983.30 2948.10 C 1981.70 2949.50 1979.30 2949.60 1977.60 2948.30 L 1957.60 2930.80 C 1955.50 2928.90 1952.20 2928.80 1949.90 2930.50 Z" fill="#ffeee3" fill-rule="nonzero" node-id="241" stroke="none" target-height="34.200195" target-width="60.30005" target-x="1925" target-y="2915.4"></path><path d="M 1163.40 3023.00 C 1170.70 2989.20 1170.80 2957.80 1163.50 2928.60 C 1166.50 2927.50 1169.60 2927.20 1172.80 2927.60 C 1175.80 2928.00 1178.10 2930.60 1178.10 2933.70 L 1178.00 3155.50 C 1178.00 3159.10 1175.20 3162.10 1171.70 3162.30 C 1170.00 3162.40 1168.50 3162.00 1167.30 3161.00 C 1166.10 3160.00 1165.40 3158.20 1165.40 3155.60 C 1164.50 3111.40 1163.80 3067.20 1163.40 3023.00 Z" fill="#ff9481" fill-rule="nonzero" node-id="243" stroke="none" target-height="235.19995" target-width="14.699951" target-x="1163.4" target-y="2927.2"></path><path d="M 1163.50 2928.60 C 1170.70 2957.80 1170.70 2989.20 1163.40 3023.00 C 1157.60 2991.40 1157.70 2960.00 1163.50 2928.60 Z" fill="#ffa491" fill-rule="nonzero" node-id="245" stroke="none" target-height="94.3999" target-width="13.099976" target-x="1157.6" target-y="2928.6"></path><path d="M 1012.50 2963.90 C 1022.10 2987.00 1025.10 3013.30 1021.50 3042.70 C 1021.40 3045.30 1019.20 3047.40 1016.60 3047.30 C 1014.00 3047.20 1011.90 3045.00 1012.00 3042.40 L 1012.00 3042.40 L 1007.80 2976.10 L 1012.50 2963.90 Z" fill="#ffdcc3" fill-rule="nonzero" node-id="247" stroke="none" target-height="83.5" target-width="17.299988" target-x="1007.8" target-y="2963.9"></path><path d="M 2154.20 2973.30 C 2161.60 2972.10 2165.00 2977.10 2164.20 2988.30 L 2166.30 3272.90 C 2166.30 3275.90 2168.70 3278.30 2171.70 3278.30 C 2173.80 3278.30 2175.80 3277.00 2176.60 3275.10 C 2182.70 3261.40 2185.80 3246.50 2185.80 3230.30 C 2185.80 3169.50 2185.50 3109.10 2185.00 3049.10 C 2191.20 3047.90 2195.40 3048.40 2197.60 3050.60 L 2198.20 3238.00 C 2198.20 3240.20 2200.00 3242.00 2202.20 3242.00 C 2203.20 3242.00 2204.10 3241.60 2204.90 3241.00 C 2208.10 3238.20 2210.20 3234.00 2211.00 3228.40 L 2232.10 3215.50 C 2252.90 3195.50 2246.80 3124.40 2245.60 3096.30 C 2245.50 3092.50 2246.80 3091.80 2249.60 3094.40 C 2255.30 3099.50 2259.40 3104.20 2259.20 3112.40 C 2258.60 3137.70 2258.60 3163.00 2259.10 3188.40 C 2259.10 3190.70 2260.30 3191.90 2262.70 3191.80 C 2287.40 3190.40 2278.80 3134.10 2279.40 3117.30 C 2279.40 3115.20 2281.20 3113.50 2283.30 3113.50 C 2285.40 3113.50 2287.00 3115.20 2287.00 3117.30 C 2287.00 3117.30 2287.00 3117.30 2287.00 3117.30 L 2288.80 3166.60 C 2288.90 3169.50 2291.30 3171.80 2294.20 3171.80 C 2295.30 3171.80 2296.40 3171.40 2297.20 3170.80 C 2335.20 3142.70 2377.50 3127.80 2424.10 3126.20 C 2581.10 3124.20 2673.50 3276.70 2690.50 3418.40 L 2624.50 3447.20 C 2622.20 3448.20 2619.70 3447.60 2618.00 3445.90 C 2580.80 3406.30 2534.10 3383.50 2480.90 3409.40 C 2479.00 3410.30 2477.50 3411.80 2476.70 3413.70 C 2472.50 3423.30 2465.50 3429.80 2455.70 3433.30 C 2452.90 3434.30 2450.80 3436.10 2449.30 3438.70 C 2434.80 3463.40 2410.10 3486.90 2416.80 3518.40 C 2270.50 3518.80 2123.80 3521.00 1977.80 3517.20 C 1892.50 3515.00 1821.00 3519.90 1711.60 3515.60 C 1708.90 3515.50 1708.30 3514.30 1710.00 3512.10 L 1738.60 3473.30 C 1773.50 3436.70 1813.60 3403.80 1858.80 3374.50 C 1940.00 3325.00 2026.20 3313.20 2117.30 3339.10 C 2119.60 3339.70 2121.60 3339.30 2123.30 3337.90 C 2147.10 3317.90 2154.30 3298.30 2154.30 3265.70 C 2154.10 3168.00 2154.00 3070.60 2154.20 2973.30 Z M 2432.50 3240.90 C 2436.90 3241.00 2440.70 3233.30 2440.90 3223.70 C 2440.90 3223.70 2440.90 3223.70 2440.90 3223.70 C 2441.10 3214.10 2437.70 3206.20 2433.30 3206.10 C 2428.90 3206.00 2425.10 3213.70 2424.90 3223.30 C 2424.90 3223.30 2424.90 3223.30 2424.90 3223.30 C 2424.70 3232.90 2428.10 3240.80 2432.50 3240.90 Z M 2344.90 3266.30 C 2350.40 3267.50 2355.90 3263.40 2357.30 3257.10 C 2358.70 3250.80 2355.40 3244.70 2349.90 3243.50 C 2344.40 3242.30 2338.90 3246.40 2337.50 3252.70 C 2336.10 3259.10 2339.40 3265.10 2344.90 3266.30 C 2344.90 3266.30 2344.90 3266.30 2344.90 3266.30 Z M 1982.90 3434.60 C 1986.00 3431.40 1982.80 3423.30 1975.80 3416.50 C 1968.80 3409.70 1960.60 3406.70 1957.50 3409.90 L 1957.50 3409.90 C 1954.40 3413.10 1957.60 3421.20 1964.60 3428.00 C 1971.60 3434.90 1979.80 3437.80 1982.90 3434.60 L 1982.90 3434.60 Z M 1896.20 3431.10 C 1893.00 3427.80 1885.90 3429.40 1880.30 3434.70 C 1880.30 3434.70 1880.30 3434.70 1880.30 3434.70 C 1874.70 3440.00 1872.70 3447.10 1875.90 3450.40 C 1875.90 3450.40 1875.90 3450.40 1875.90 3450.40 C 1879.10 3453.70 1886.20 3452.10 1891.80 3446.80 C 1891.80 3446.80 1891.80 3446.80 1891.80 3446.80 C 1897.40 3441.50 1899.40 3434.50 1896.20 3431.10 L 1896.20 3431.10 Z M 1916.50 3452.20 C 1913.30 3448.30 1906.30 3448.90 1900.80 3453.50 C 1895.40 3458.00 1893.60 3464.90 1896.80 3468.70 C 1900.00 3472.60 1907.00 3472.00 1912.50 3467.40 C 1918.00 3462.80 1919.70 3456.10 1916.50 3452.20 Z" fill="#ff6251" fill-rule="nonzero" node-id="249" stroke="none" target-height="548.8999" target-width="982.19995" target-x="1708.3" target-y="2972.1"></path><path d="M 2184.90 3049.10 C 2185.40 3109.10 2185.70 3169.50 2185.70 3230.30 C 2185.70 3246.40 2182.60 3261.40 2176.50 3275.10 C 2175.30 3277.80 2172.20 3279.10 2169.50 3277.90 C 2167.50 3277.10 2166.30 3275.10 2166.30 3273.00 L 2164.20 2988.40 C 2165.50 2988.30 2166.60 2988.10 2167.60 2987.80 C 2169.50 2987.40 2170.90 2988.00 2171.80 2989.70 C 2180.80 3006.90 2185.20 3026.80 2184.90 3049.10 Z" fill="#ffbf9a" fill-rule="nonzero" node-id="251" stroke="none" target-height="291.7002" target-width="21.5" target-x="2164.2" target-y="2987.4"></path><path d="M 2210.90 3228.30 C 2210.10 3233.90 2208.00 3238.10 2204.80 3240.90 C 2203.10 3242.40 2200.60 3242.20 2199.10 3240.60 C 2198.50 3239.90 2198.10 3238.90 2198.10 3238.00 L 2197.50 3050.60 L 2202.20 3040.50 C 2202.90 3039.00 2204.60 3038.40 2206.10 3039.00 C 2207.00 3039.40 2207.60 3040.30 2207.80 3041.30 C 2218.50 3104.50 2214.10 3165.10 2210.90 3228.30 Z" fill="#ffbf9a" fill-rule="nonzero" node-id="253" stroke="none" target-height="204" target-width="21" target-x="2197.5" target-y="3038.4"></path><path d="M 1858.80 3374.10 C 1813.50 3403.40 1773.50 3436.40 1738.60 3472.90 C 1671.00 3368.10 1547.80 3283.50 1425.50 3359.40 C 1394.50 3378.70 1365.30 3410.20 1337.70 3438.30 C 1370.90 3317.70 1423.20 3247.70 1531.90 3186.00 C 1546.60 3177.60 1560.90 3172.70 1574.60 3171.20 C 1576.60 3171.00 1578.60 3170.20 1580.30 3169.00 L 1605.00 3150.60 C 1607.20 3152.30 1609.30 3153.30 1611.50 3153.50 C 1613.90 3153.80 1615.80 3152.90 1617.20 3150.80 C 1618.80 3148.50 1619.00 3146.00 1617.90 3143.30 L 1697.10 3091.20 C 1725.40 3065.00 1768.50 3067.30 1806.50 3062.90 C 1809.20 3062.60 1811.70 3064.60 1812.00 3067.30 C 1812.20 3068.80 1811.60 3070.40 1810.50 3071.50 C 1809.30 3072.70 1809.90 3075.30 1812.30 3079.30 C 1822.40 3095.90 1828.20 3113.90 1829.50 3133.50 C 1829.70 3136.60 1828.30 3138.20 1825.20 3138.40 C 1822.50 3138.50 1820.60 3140.30 1819.50 3143.60 C 1818.90 3145.30 1819.10 3147.10 1820.00 3148.60 C 1824.30 3155.80 1823.20 3161.50 1816.80 3165.60 C 1814.50 3167.00 1813.80 3169.00 1814.60 3171.60 L 1825.50 3207.10 C 1826.00 3208.90 1827.20 3210.00 1829.10 3210.30 L 1831.20 3210.50 C 1832.10 3210.60 1832.70 3211.50 1832.50 3212.40 C 1832.50 3212.70 1832.30 3212.90 1832.20 3213.20 C 1805.50 3247.30 1842.40 3346.60 1858.80 3374.10 Z" fill="#ecd9d3" fill-rule="nonzero" node-id="255" stroke="none" target-height="410.2998" target-width="521.1001" target-x="1337.7" target-y="3062.6"></path><path d="M 864.40 3067.30 C 864.30 3065.80 865.50 3064.50 867.10 3064.40 C 868.40 3064.30 869.60 3065.30 869.90 3066.60 C 870.90 3071.10 870.10 3074.90 867.50 3078.10 C 867.00 3078.80 866.00 3078.90 865.30 3078.40 C 864.90 3078.10 864.60 3077.60 864.70 3077.10 L 864.40 3067.30 Z" fill="#ff9481" fill-rule="nonzero" node-id="257" stroke="none" target-height="14.5998535" target-width="6.6000366" target-x="864.3" target-y="3064.3"></path><path d="M 1617.80 3143.20 C 1618.90 3145.90 1618.60 3148.40 1617.10 3150.70 C 1615.70 3152.80 1613.80 3153.70 1611.40 3153.40 C 1609.20 3153.20 1607.00 3152.30 1604.90 3150.50 C 1608.60 3137.90 1612.90 3135.40 1617.80 3143.20 Z" fill="#ff9481" fill-rule="nonzero" node-id="259" stroke="none" target-height="18.300049" target-width="14" target-x="1604.9" target-y="3135.4"></path><path d="M 901.00 3201.60 C 894.50 3207.20 888.40 3213.20 882.60 3219.60 C 875.70 3227.30 869.70 3233.30 864.60 3237.60 C 815.50 3279.60 767.90 3323.20 721.80 3368.40 C 717.30 3372.90 712.70 3383.10 708.20 3399.10 C 637.80 3413.90 594.60 3457.40 554.40 3515.40 L 360.80 3516.00 C 357.20 3516.00 356.10 3514.30 357.30 3510.90 C 437.30 3295.70 658.20 3106.80 901.00 3201.60 Z" fill="#ffe6d5" fill-rule="nonzero" node-id="261" stroke="none" target-height="409.19995" target-width="544.9" target-x="356.1" target-y="3106.8"></path><path d="M 901.00 3201.60 C 1018.90 3253.60 1098.80 3339.20 1169.60 3444.90 C 1166.60 3464.60 1162.60 3479.10 1157.50 3488.50 C 1150.70 3500.90 1147.10 3510.10 1146.60 3516.00 L 943.60 3516.70 C 883.70 3438.10 805.90 3390.50 708.10 3399.10 C 712.60 3383.10 717.20 3372.80 721.70 3368.40 C 767.80 3323.10 815.40 3279.50 864.50 3237.60 C 869.50 3233.30 875.50 3227.30 882.50 3219.60 C 888.40 3213.20 894.50 3207.20 901.00 3201.60 Z" fill="#ffdcc3" fill-rule="nonzero" node-id="263" stroke="none" target-height="315.09985" target-width="461.5" target-x="708.1" target-y="3201.6"></path><path d="M 2433.14 3206.21 L 2434.51 3206.50 L 2435.83 3207.29 L 2437.12 3208.67 L 2438.15 3210.32 L 2439.06 3212.39 L 2439.85 3214.98 L 2440.55 3219.05 L 2440.74 3223.78 L 2440.33 3228.50 L 2439.45 3232.54 L 2438.55 3235.09 L 2437.54 3237.12 L 2436.44 3238.71 L 2435.08 3240.04 L 2433.74 3240.76 L 2432.35 3241.00 L 2430.97 3240.70 L 2429.66 3239.91 L 2428.36 3238.53 L 2427.34 3236.89 L 2426.42 3234.81 L 2425.64 3232.22 L 2424.94 3228.15 L 2424.74 3223.42 L 2425.15 3218.70 L 2426.04 3214.66 L 2426.94 3212.12 L 2427.95 3210.09 L 2429.05 3208.49 L 2430.40 3207.17 L 2431.75 3206.44 L 2433.14 3206.21 Z" fill="#ffe6d5" fill-rule="nonzero" group-id="10" node-id="267" stroke="none" target-height="34.78955" target-width="15.995117" target-x="2424.7449" target-y="3206.2065"></path><path d="M 2349.65 3243.49 L 2351.40 3244.07 L 2352.93 3244.95 L 2354.29 3246.13 L 2355.42 3247.55 L 2356.30 3249.17 L 2356.94 3251.01 L 2357.28 3252.92 L 2357.31 3254.93 L 2357.03 3257.07 L 2356.40 3259.13 L 2355.53 3260.94 L 2354.42 3262.54 L 2353.07 3263.95 L 2351.60 3265.05 L 2349.99 3265.87 L 2348.26 3266.39 L 2346.50 3266.55 L 2344.67 3266.35 L 2342.92 3265.77 L 2341.38 3264.89 L 2340.03 3263.70 L 2338.90 3262.28 L 2338.02 3260.67 L 2337.38 3258.83 L 2337.04 3256.91 L 2337.00 3254.90 L 2337.29 3252.77 L 2337.92 3250.71 L 2338.79 3248.89 L 2339.90 3247.29 L 2341.24 3245.89 L 2342.72 3244.78 L 2344.33 3243.96 L 2346.06 3243.45 L 2347.82 3243.29 L 2349.65 3243.49 Z" fill="#ffdcc3" fill-rule="nonzero" group-id="11" node-id="272" stroke="none" target-height="23.258545" target-width="20.311035" target-x="2337.0034" target-y="3243.2878"></path><path d="M 1738.60 3472.90 L 1710.00 3511.70 C 1708.30 3513.90 1708.90 3515.10 1711.60 3515.20 C 1821.00 3519.50 1892.50 3514.60 1977.80 3516.80 C 2123.80 3520.60 2270.50 3518.40 2416.80 3518.00 L 2432.00 3517.90 L 2426.00 3645.30 C 2425.80 3649.30 2429.00 3652.80 2433.00 3652.90 C 2433.20 3652.90 2433.50 3652.90 2433.70 3652.90 C 2494.70 3650.00 2555.10 3651.70 2614.90 3658.00 C 2623.90 3659.00 2630.40 3661.10 2634.50 3664.50 C 2638.40 3667.70 2638.90 3673.40 2635.70 3677.20 C 2634.30 3678.80 2632.50 3680.00 2630.40 3680.30 C 2565.50 3692.00 2504.20 3692.70 2439.70 3695.60 C 2426.60 3696.20 2418.50 3700.70 2409.90 3709.20 C 2393.80 3725.50 2377.70 3714.30 2359.00 3717.30 C 2312.40 3725.00 2265.90 3718.20 2218.50 3722.30 C 2190.10 3724.80 2164.40 3720.20 2136.20 3719.30 C 2133.50 3719.30 2131.10 3720.00 2128.90 3721.60 L 2102.30 3741.40 C 2100.30 3742.90 2098.10 3743.30 2095.70 3742.70 C 2092.50 3741.90 2090.30 3739.80 2089.00 3736.20 C 2088.10 3733.70 2086.50 3731.60 2084.40 3729.90 C 2079.30 3726.00 2074.60 3726.50 2070.40 3731.40 C 2068.60 3733.40 2067.90 3735.70 2068.10 3738.30 C 2068.30 3741.10 2067.10 3742.40 2064.40 3742.10 C 2051.70 3741.10 2042.00 3740.90 2035.50 3741.50 C 2033.40 3741.70 2031.50 3742.50 2029.80 3743.80 C 2015.10 3755.20 2003.30 3753.40 1994.20 3738.40 C 1992.80 3736.10 1990.70 3734.20 1988.30 3733.10 C 1964.30 3722.50 1925.00 3714.70 1906.70 3740.70 C 1905.30 3742.70 1903.40 3743.60 1901.00 3743.60 L 1880.00 3743.60 C 1878.20 3743.60 1876.40 3743.00 1874.90 3742.00 C 1867.30 3736.70 1859.70 3736.80 1851.90 3742.40 C 1850.00 3743.80 1847.80 3744.60 1845.40 3744.80 C 1822.90 3746.90 1808.70 3750.80 1785.20 3745.20 C 1758.20 3738.60 1731.20 3739.60 1704.30 3748.00 C 1702.10 3748.70 1700.00 3748.80 1697.80 3748.20 L 1656.50 3738.50 C 1653.70 3737.90 1651.10 3738.30 1648.60 3739.80 C 1638.70 3746.10 1629.80 3744.70 1622.00 3735.80 C 1620.50 3734.00 1618.10 3733.30 1615.80 3734.00 C 1596.30 3739.70 1582.90 3747.40 1561.30 3740.50 C 1559.00 3739.70 1556.50 3739.60 1554.10 3740.00 C 1532.50 3743.80 1513.90 3739.60 1491.70 3743.70 C 1473.80 3747.10 1457.80 3743.10 1440.30 3746.50 C 1414.50 3751.50 1388.70 3750.10 1362.90 3742.50 C 1360.60 3741.80 1358.30 3741.70 1355.90 3742.20 C 1321.30 3750.10 1282.40 3744.20 1256.10 3744.00 C 1232.90 3743.80 1209.70 3742.90 1186.50 3741.40 C 1166.00 3739.90 1154.20 3725.10 1129.80 3741.30 C 1127.90 3742.60 1125.50 3742.90 1123.30 3742.30 C 1113.60 3739.50 1107.40 3738.30 1104.50 3738.80 C 1073.10 3743.90 1041.60 3744.80 1009.90 3741.40 C 1009.00 3741.30 1008.20 3741.90 1008.10 3742.80 C 1008.00 3743.30 1008.20 3743.90 1008.60 3744.20 L 1010.40 3746.00 C 1011.40 3747.00 1011.20 3747.50 1009.80 3747.70 C 986.40 3750.30 963.10 3748.60 940.00 3742.60 C 937.40 3741.90 934.80 3742.10 932.30 3743.10 C 920.90 3747.70 910.60 3745.90 901.30 3737.60 C 899.50 3736.00 897.50 3735.10 895.20 3734.90 C 858.80 3730.50 822.50 3724.60 786.50 3717.10 C 774.30 3714.60 745.30 3716.40 699.50 3722.50 C 696.40 3722.90 693.70 3722.00 691.60 3719.70 L 673.00 3700.20 C 672.40 3699.60 671.50 3699.30 670.60 3699.40 C 656.70 3701.70 642.90 3702.70 629.20 3702.30 C 606.20 3701.60 592.00 3687.10 564.30 3695.70 C 562.00 3696.40 559.50 3695.00 558.90 3692.70 C 558.50 3691.20 558.80 3689.70 559.90 3688.50 C 568.80 3679.00 584.30 3689.70 588.70 3674.90 C 589.50 3672.30 588.50 3670.70 585.80 3670.20 C 570.30 3667.50 554.80 3667.70 539.30 3670.70 C 537.10 3671.10 534.70 3670.80 532.70 3669.80 C 525.40 3666.20 517.80 3665.50 509.80 3667.80 C 507.50 3668.40 505.30 3668.50 503.00 3667.90 C 474.60 3661.00 449.90 3667.50 429.00 3687.40 C 427.90 3688.50 426.10 3688.50 425.00 3687.40 C 424.20 3686.60 424.00 3685.50 424.40 3684.40 C 427.40 3676.00 424.20 3671.50 414.90 3670.80 C 386.90 3668.90 358.90 3669.90 331.10 3674.00 C 329.30 3674.30 327.50 3673.00 327.20 3671.10 C 327.20 3671.10 327.20 3671.00 327.20 3671.00 L 326.90 3668.80 C 326.80 3667.90 327.10 3667.50 328.10 3667.40 C 350.60 3665.80 373.10 3664.10 395.50 3662.30 C 413.10 3660.90 433.00 3668.90 453.00 3658.60 C 455.10 3657.50 457.30 3657.00 459.70 3656.90 L 660.60 3653.60 C 662.90 3653.60 664.10 3652.40 664.10 3650.00 L 666.00 3517.30 L 943.70 3516.40 L 1146.70 3515.70 L 1290.20 3516.40 C 1293.40 3516.40 1296.30 3514.70 1297.80 3512.00 L 1337.70 3438.00 C 1365.20 3409.90 1394.40 3378.40 1425.50 3359.10 C 1547.80 3283.50 1671.00 3368.20 1738.60 3472.90 Z M 865.30 3667.00 C 876.70 3660.90 888.10 3659.10 899.40 3661.40 C 933.10 3668.30 964.20 3670.60 992.80 3668.40 C 1016.80 3666.60 1023.40 3685.40 1048.30 3673.80 C 1050.50 3672.80 1052.70 3672.30 1055.10 3672.30 C 1065.80 3672.30 1076.50 3672.30 1087.10 3672.30 C 1104.70 3672.30 1128.50 3665.80 1150.40 3670.30 C 1176.20 3675.70 1202.40 3677.40 1228.90 3675.60 C 1231.20 3675.50 1233.40 3674.70 1235.30 3673.30 C 1250.30 3662.70 1283.90 3667.50 1299.20 3675.50 C 1301.00 3676.40 1302.20 3675.90 1302.80 3674.00 L 1305.10 3666.20 C 1305.50 3664.90 1306.90 3664.20 1308.10 3664.60 C 1309.00 3664.90 1309.60 3665.60 1309.70 3666.50 L 1311.30 3678.10 C 1311.70 3681.00 1314.40 3683.10 1317.30 3682.70 C 1317.90 3682.60 1318.50 3682.40 1319.10 3682.10 C 1325.30 3678.80 1330.80 3678.90 1335.70 3682.30 C 1338.10 3684.00 1340.80 3684.70 1343.70 3684.40 L 1394.50 3679.60 C 1395.90 3679.50 1397.10 3678.60 1397.70 3677.40 L 1399.50 3673.50 C 1400.80 3670.90 1402.70 3670.30 1405.20 3671.80 C 1428.90 3686.10 1451.90 3685.70 1474.00 3670.70 C 1476.30 3669.10 1478.80 3668.90 1481.30 3670.10 L 1487.40 3672.90 C 1489.90 3674.10 1492.40 3674.20 1495.00 3673.30 C 1505.30 3669.90 1514.30 3671.90 1522.10 3679.10 C 1523.60 3680.50 1525.90 3680.40 1527.30 3678.90 C 1527.60 3678.50 1527.90 3678.10 1528.10 3677.70 L 1530.60 3671.30 C 1531.50 3669.00 1534.00 3667.90 1536.30 3668.80 C 1537.70 3669.40 1538.80 3670.60 1539.00 3672.10 L 1539.50 3675.00 C 1540.10 3678.70 1543.70 3681.20 1547.40 3680.60 C 1550.20 3680.10 1552.40 3678.00 1553.00 3675.20 C 1554.10 3669.60 1557.50 3666.60 1563.20 3666.40 C 1565.30 3666.30 1567.20 3667.90 1567.30 3670.10 C 1567.30 3670.30 1567.30 3670.40 1567.30 3670.60 C 1566.70 3680.30 1571.00 3684.50 1580.10 3683.20 C 1582.50 3682.90 1584.60 3682.00 1586.50 3680.50 C 1598.60 3670.90 1611.60 3668.80 1625.50 3674.10 C 1626.70 3674.60 1628.00 3674.40 1629.10 3673.70 L 1640.90 3665.80 C 1642.90 3664.40 1645.60 3664.90 1647.00 3666.90 C 1647.50 3667.60 1647.80 3668.50 1647.80 3669.40 L 1647.80 3675.00 C 1647.80 3678.10 1649.30 3679.60 1652.40 3679.60 L 1680.50 3679.50 C 1683.00 3679.50 1685.50 3678.50 1687.40 3676.90 C 1698.70 3667.60 1710.40 3666.50 1722.60 3673.80 C 1724.80 3675.10 1727.50 3675.80 1730.10 3675.60 L 1871.50 3664.70 C 1873.70 3664.60 1875.60 3663.80 1877.30 3662.40 C 1878.20 3661.70 1879.30 3661.10 1880.40 3660.70 C 1881.90 3660.10 1883.60 3660.20 1885.70 3660.80 C 1914.30 3670.30 1943.50 3674.40 1973.40 3673.20 C 1998.10 3672.20 2014.30 3657.60 2043.40 3668.30 C 2045.80 3669.20 2048.30 3669.10 2050.70 3668.20 C 2067.60 3661.30 2078.50 3668.90 2090.20 3664.90 C 2092.50 3664.20 2093.80 3663.20 2094.30 3662.00 C 2096.00 3658.00 2094.10 3653.40 2090.10 3651.70 C 2089.30 3651.30 2088.40 3651.10 2087.50 3651.10 C 1913.40 3641.20 1737.50 3654.80 1564.00 3652.70 C 1310.70 3649.60 1057.20 3650.10 803.90 3648.60 C 793.60 3648.50 782.80 3652.20 771.90 3651.20 C 747.90 3648.90 723.80 3648.60 699.60 3650.40 C 691.50 3650.90 678.90 3647.60 673.40 3657.90 C 672.00 3660.50 672.80 3662.00 675.70 3662.40 C 690.20 3664.10 725.20 3668.90 737.60 3661.80 C 739.60 3660.60 741.70 3660.40 743.90 3661.20 C 776.00 3672.50 800.80 3656.40 830.90 3668.80 C 841.00 3673.00 852.90 3673.50 866.60 3670.50 C 867.30 3670.40 867.40 3670.00 866.90 3669.50 C 866.50 3669.00 865.90 3668.60 865.30 3668.40 C 864.30 3668.10 864.30 3667.60 865.30 3667.00 Z" fill="#ffeee3" fill-rule="nonzero" node-id="275" stroke="none" target-height="471.69995" target-width="2312.0999" target-x="326.8" target-y="3283.5"></path><path d="M 943.70 3516.70 L 666.00 3517.60 L 554.40 3515.50 C 594.60 3457.50 637.80 3414.00 708.20 3399.20 C 806.00 3390.50 883.80 3438.10 943.70 3516.70 Z" fill="#ff9481" fill-rule="nonzero" node-id="277" stroke="none" target-height="127.1001" target-width="389.3" target-x="554.4" target-y="3390.5"></path><path d="M 2690.30 3418.10 C 2694.40 3437.30 2695.70 3464.10 2694.30 3498.60 C 2693.80 3512.20 2689.50 3517.10 2675.30 3517.30 C 2595.10 3518.50 2514.00 3518.80 2432.00 3518.00 L 2416.80 3518.10 C 2410.10 3486.60 2434.90 3463.10 2449.30 3438.40 C 2450.80 3435.90 2452.90 3434.10 2455.70 3433.00 C 2465.50 3429.50 2472.50 3423.00 2476.70 3413.40 C 2477.50 3411.50 2479.00 3410.00 2480.90 3409.10 C 2534.10 3383.20 2580.80 3406.00 2618.00 3445.60 C 2619.60 3447.40 2622.20 3447.90 2624.50 3446.90 L 2690.30 3418.10 Z" fill="#ff9481" fill-rule="nonzero" node-id="279" stroke="none" target-height="135.6001" target-width="285.59985" target-x="2410.1" target-y="3383.2"></path><path d="M 1975.80 3416.70 L 1979.04 3420.27 L 1981.44 3423.72 L 1982.73 3426.14 L 1983.56 3428.29 L 1984.00 3430.20 L 1984.06 3432.11 L 1983.68 3433.60 L 1982.91 3434.78 L 1981.76 3435.58 L 1980.28 3436.00 L 1978.37 3435.99 L 1976.44 3435.60 L 1974.28 3434.84 L 1971.81 3433.62 L 1968.30 3431.31 L 1964.65 3428.18 L 1961.41 3424.61 L 1959.00 3421.16 L 1957.72 3418.74 L 1956.89 3416.59 L 1956.45 3414.68 L 1956.39 3412.77 L 1956.77 3411.28 L 1957.54 3410.10 L 1958.69 3409.30 L 1960.17 3408.88 L 1962.08 3408.89 L 1964.00 3409.28 L 1966.17 3410.04 L 1968.64 3411.26 L 1972.15 3413.57 L 1975.80 3416.70 Z" fill="#ffe6d5" fill-rule="nonzero" group-id="12" node-id="283" stroke="none" target-height="27.12085" target-width="27.670898" target-x="1956.3893" target-y="3408.88"></path><path d="M 1896.13 3431.30 L 1896.99 3432.53 L 1897.51 3433.97 L 1897.67 3435.68 L 1897.49 3437.42 L 1896.98 3439.30 L 1896.11 3441.33 L 1894.31 3444.19 L 1891.78 3447.03 L 1888.82 3449.42 L 1885.87 3451.08 L 1883.80 3451.85 L 1881.91 3452.26 L 1880.16 3452.36 L 1878.46 3452.11 L 1877.04 3451.53 L 1875.85 3450.60 L 1874.99 3449.37 L 1874.47 3447.93 L 1874.31 3446.22 L 1874.49 3444.48 L 1875.00 3442.60 L 1875.87 3440.57 L 1877.67 3437.71 L 1880.20 3434.87 L 1883.16 3432.48 L 1886.11 3430.82 L 1888.18 3430.05 L 1890.07 3429.64 L 1891.82 3429.54 L 1893.52 3429.79 L 1894.94 3430.37 L 1896.13 3431.30 Z" fill="#ffeee3" fill-rule="nonzero" group-id="13" node-id="288" stroke="none" target-height="22.813232" target-width="23.355957" target-x="1874.3123" target-y="3429.5437"></path><path d="M 1916.34 3452.53 L 1917.23 3453.91 L 1917.76 3455.45 L 1917.95 3457.17 L 1917.80 3458.92 L 1917.34 3460.73 L 1916.52 3462.62 L 1915.45 3464.39 L 1914.07 3466.08 L 1912.36 3467.72 L 1910.45 3469.11 L 1908.54 3470.16 L 1906.61 3470.91 L 1904.60 3471.38 L 1902.74 3471.51 L 1900.99 3471.35 L 1899.33 3470.86 L 1897.91 3470.06 L 1896.70 3468.95 L 1895.82 3467.56 L 1895.28 3466.02 L 1895.10 3464.30 L 1895.25 3462.55 L 1895.71 3460.75 L 1896.53 3458.85 L 1897.60 3457.09 L 1898.98 3455.39 L 1900.69 3453.76 L 1902.60 3452.36 L 1904.51 3451.31 L 1906.44 3450.56 L 1908.45 3450.10 L 1910.31 3449.96 L 1912.06 3450.12 L 1913.72 3450.61 L 1915.14 3451.41 L 1916.34 3452.53 Z" fill="#ffeee3" fill-rule="nonzero" group-id="14" node-id="293" stroke="none" target-height="21.552734" target-width="22.851074" target-x="1895.0988" target-y="3449.96"></path><path d="M 865.50 3668.40 C 866.10 3668.60 866.70 3669.00 867.10 3669.50 C 867.60 3670.00 867.50 3670.40 866.80 3670.50 C 853.10 3673.50 841.10 3673.00 831.10 3668.80 C 800.90 3656.40 776.10 3672.50 744.10 3661.20 C 741.90 3660.40 739.80 3660.60 737.80 3661.80 C 725.40 3668.80 690.40 3664.10 675.90 3662.40 C 672.90 3662.10 672.10 3660.60 673.60 3657.90 C 679.10 3647.60 691.70 3650.90 699.80 3650.40 C 724.00 3648.60 748.10 3648.90 772.10 3651.20 C 783.00 3652.20 793.80 3648.60 804.10 3648.60 C 1057.40 3650.10 1310.90 3649.60 1564.20 3652.70 C 1737.70 3654.80 1913.60 3641.20 2087.70 3651.10 C 2092.10 3651.40 2095.40 3655.10 2095.10 3659.40 C 2095.00 3660.30 2094.80 3661.20 2094.50 3662.00 C 2094.00 3663.20 2092.60 3664.10 2090.40 3664.90 C 2078.70 3668.90 2067.80 3661.30 2050.90 3668.20 C 2048.50 3669.20 2046.10 3669.20 2043.60 3668.30 C 2014.50 3657.60 1998.20 3672.20 1973.60 3673.20 C 1943.70 3674.40 1914.50 3670.30 1885.90 3660.80 C 1883.80 3660.10 1882.10 3660.10 1880.60 3660.70 C 1879.50 3661.10 1878.40 3661.70 1877.50 3662.40 C 1875.80 3663.80 1873.90 3664.60 1871.70 3664.70 L 1730.30 3675.60 C 1727.70 3675.80 1725.10 3675.20 1722.80 3673.80 C 1710.60 3666.50 1698.90 3667.50 1687.60 3676.90 C 1685.70 3678.50 1683.20 3679.40 1680.70 3679.50 L 1652.60 3679.60 C 1649.50 3679.60 1648.00 3678.10 1648.00 3675.00 L 1648.00 3669.40 C 1648.00 3667.00 1646.10 3665.00 1643.60 3665.00 C 1642.70 3665.00 1641.80 3665.30 1641.10 3665.80 L 1629.30 3673.70 C 1628.20 3674.40 1626.90 3674.60 1625.70 3674.10 C 1611.80 3668.80 1598.80 3670.90 1586.70 3680.50 C 1584.80 3682.00 1582.70 3682.90 1580.30 3683.20 C 1571.20 3684.50 1566.90 3680.30 1567.50 3670.60 C 1567.60 3668.50 1566.00 3666.60 1563.80 3666.50 C 1563.60 3666.50 1563.50 3666.50 1563.30 3666.50 C 1557.60 3666.70 1554.20 3669.70 1553.10 3675.30 C 1552.40 3679.00 1548.80 3681.40 1545.10 3680.70 C 1542.30 3680.20 1540.10 3677.90 1539.70 3675.10 L 1539.20 3672.20 C 1538.80 3669.80 1536.50 3668.20 1534.10 3668.60 C 1532.60 3668.90 1531.30 3669.90 1530.80 3671.30 L 1528.30 3677.70 C 1527.60 3679.60 1525.50 3680.60 1523.60 3679.90 C 1523.10 3679.70 1522.70 3679.50 1522.40 3679.10 C 1514.60 3671.90 1505.60 3669.90 1495.30 3673.30 C 1492.70 3674.20 1490.20 3674.00 1487.70 3672.90 L 1481.60 3670.10 C 1479.10 3668.90 1476.60 3669.10 1474.30 3670.70 C 1452.10 3685.70 1429.20 3686.10 1405.50 3671.80 C 1403.00 3670.30 1401.00 3670.80 1399.80 3673.50 L 1398.00 3677.40 C 1397.40 3678.60 1396.20 3679.50 1394.80 3679.60 L 1344.00 3684.40 C 1341.10 3684.70 1338.40 3684.00 1336.00 3682.30 C 1331.20 3678.90 1325.60 3678.80 1319.40 3682.10 C 1316.80 3683.50 1313.50 3682.40 1312.20 3679.80 C 1311.90 3679.30 1311.70 3678.70 1311.60 3678.00 L 1310.00 3666.40 C 1309.80 3665.10 1308.60 3664.20 1307.20 3664.40 C 1306.30 3664.50 1305.60 3665.20 1305.30 3666.00 L 1303.00 3673.80 C 1302.40 3675.80 1301.20 3676.30 1299.40 3675.30 C 1284.10 3667.30 1250.50 3662.50 1235.50 3673.10 C 1233.60 3674.50 1231.50 3675.20 1229.10 3675.40 C 1202.60 3677.30 1176.40 3675.50 1150.60 3670.10 C 1128.70 3665.60 1105.00 3672.10 1087.30 3672.10 C 1076.70 3672.10 1066.00 3672.10 1055.30 3672.10 C 1053.00 3672.10 1050.70 3672.60 1048.50 3673.60 C 1023.60 3685.20 1017.00 3666.30 993.00 3668.20 C 964.40 3670.40 933.20 3668.10 899.60 3661.20 C 888.20 3658.90 876.90 3660.70 865.50 3666.80 C 864.30 3667.60 864.30 3668.10 865.50 3668.40 Z" fill="#ecd9d3" fill-rule="nonzero" node-id="296" stroke="none" target-height="44.900146" target-width="1423.2999" target-x="672.1" target-y="3641.2"></path></svg>